solid OpenSCAD_Model
  facet normal 0.999878 -0.0156231 0
    outer loop
      vertex 7.63125 22.4 30.4
      vertex 7.25 -2 40
      vertex 7.25 -2 30.4
    endloop
  endfacet
  facet normal 0.999878 -0.0156233 0
    outer loop
      vertex 7.98438 45 40
      vertex 7.63125 22.4 30.4
      vertex 7.98438 45 39.5932
    endloop
  endfacet
  facet normal 0.999878 -0.0156232 -2.70357e-07
    outer loop
      vertex 7.63125 22.4 30.4
      vertex 7.98438 45 40
      vertex 7.25 -2 40
    endloop
  endfacet
  facet normal 0.999878 -0.0156274 0
    outer loop
      vertex 7.98438 45 39.5932
      vertex 7.95696 43.2456 20.1413
      vertex 7.98438 45 0.40678
    endloop
  endfacet
  facet normal 0.999879 -0.0155478 -7.18005e-06
    outer loop
      vertex 7.98438 45 39.5932
      vertex 7.95641 43.2101 20.4216
      vertex 7.95696 43.2456 20.1413
    endloop
  endfacet
  facet normal 0.999877 -0.0156561 2.93905e-06
    outer loop
      vertex 7.98438 45 39.5932
      vertex 7.95531 43.1399 20.6953
      vertex 7.95641 43.2101 20.4216
    endloop
  endfacet
  facet normal 0.999879 -0.0155852 -4.04102e-06
    outer loop
      vertex 7.98438 45 39.5932
      vertex 7.95369 43.0359 20.958
      vertex 7.95531 43.1399 20.6953
    endloop
  endfacet
  facet normal 0.999878 -0.0156347 1.17529e-06
    outer loop
      vertex 7.98438 45 39.5932
      vertex 7.95156 42.8997 21.2056
      vertex 7.95369 43.0359 20.958
    endloop
  endfacet
  facet normal 0.999877 -0.0156558 3.58346e-06
    outer loop
      vertex 7.98438 45 39.5932
      vertex 7.94896 42.7337 21.4342
      vertex 7.95156 42.8997 21.2056
    endloop
  endfacet
  facet normal 0.999878 -0.0156079 -2.39732e-06
    outer loop
      vertex 7.98438 45 39.5932
      vertex 7.94594 42.5402 21.6402
      vertex 7.94896 42.7337 21.4342
    endloop
  endfacet
  facet normal 0.999878 -0.0156169 -1.16455e-06
    outer loop
      vertex 7.98438 45 39.5932
      vertex 7.94254 42.3225 21.8203
      vertex 7.94594 42.5402 21.6402
    endloop
  endfacet
  facet normal 0.999878 -0.0156304 8.71829e-07
    outer loop
      vertex 7.98438 45 39.5932
      vertex 7.93881 42.0839 21.9717
      vertex 7.94254 42.3225 21.8203
    endloop
  endfacet
  facet normal 0.999878 -0.0156096 -2.56474e-06
    outer loop
      vertex 7.98438 45 39.5932
      vertex 7.93482 41.8283 22.092
      vertex 7.93881 42.0839 21.9717
    endloop
  endfacet
  facet normal 0.999878 -0.0156286 8.77096e-07
    outer loop
      vertex 7.98438 45 39.5932
      vertex 7.93062 41.5596 22.1793
      vertex 7.93482 41.8283 22.092
    endloop
  endfacet
  facet normal 0.999878 -0.0156318 1.50686e-06
    outer loop
      vertex 7.98438 45 39.5932
      vertex 7.92628 41.282 22.2323
      vertex 7.93062 41.5596 22.1793
    endloop
  endfacet
  facet normal 0.999878 -0.0156013 -5.0381e-06
    outer loop
      vertex 7.98438 45 39.5932
      vertex 7.92188 41 22.25
      vertex 7.92628 41.282 22.2323
    endloop
  endfacet
  facet normal 0.999878 -0.0156366 3.11166e-06
    outer loop
      vertex 7.98438 45 39.5932
      vertex 7.91747 40.718 22.2323
      vertex 7.92188 41 22.25
    endloop
  endfacet
  facet normal 0.999878 -0.0156325 2.10407e-06
    outer loop
      vertex 7.98438 45 39.5932
      vertex 7.91313 40.4404 22.1793
      vertex 7.91747 40.718 22.2323
    endloop
  endfacet
  facet normal 0.999878 -0.0156293 1.27173e-06
    outer loop
      vertex 7.98438 45 39.5932
      vertex 7.90893 40.1717 22.092
      vertex 7.91313 40.4404 22.1793
    endloop
  endfacet
  facet normal 0.999878 -0.015606 -5.16397e-06
    outer loop
      vertex 7.98438 45 39.5932
      vertex 7.90494 39.9161 21.9717
      vertex 7.90893 40.1717 22.092
    endloop
  endfacet
  facet normal 0.999878 -0.0156232 -1.88857e-07
    outer loop
      vertex 7.63125 22.4 30.4
      vertex 7.90494 39.9161 21.9717
      vertex 7.98438 45 39.5932
    endloop
  endfacet
  facet normal 0.999878 -0.0156265 -6.99453e-06
    outer loop
      vertex 7.90494 39.9161 21.9717
      vertex 7.63125 22.4 30.4
      vertex 7.90121 39.6775 21.8203
    endloop
  endfacet
  facet normal 0.999878 -0.0156204 5.37983e-06
    outer loop
      vertex 7.90121 39.6775 21.8203
      vertex 7.63125 22.4 30.4
      vertex 7.89781 39.4598 21.6402
    endloop
  endfacet
  facet normal 0.999878 -0.0156173 1.12791e-05
    outer loop
      vertex 7.89781 39.4598 21.6402
      vertex 7.63125 22.4 30.4
      vertex 7.89479 39.2663 21.4342
    endloop
  endfacet
  facet normal 0.999878 -0.0156337 -1.95973e-05
    outer loop
      vertex 7.89479 39.2663 21.4342
      vertex 7.63125 22.4 30.4
      vertex 7.89219 39.1003 21.2056
    endloop
  endfacet
  facet normal 0.999878 -0.0156262 -5.867e-06
    outer loop
      vertex 7.89219 39.1003 21.2056
      vertex 7.63125 22.4 30.4
      vertex 7.89006 38.9641 20.958
    endloop
  endfacet
  facet normal 0.999878 -0.0156232 0
    outer loop
      vertex 7.88679 38.7544 20.1413
      vertex 7.63125 22.4 30.4
      vertex 7.88679 38.7544 19.8587
    endloop
  endfacet
  facet normal 0.999878 -0.0156135 1.55084e-05
    outer loop
      vertex 7.88734 38.7899 20.4216
      vertex 7.63125 22.4 30.4
      vertex 7.88679 38.7544 20.1413
    endloop
  endfacet
  facet normal 0.999878 -0.015629 -9.90393e-06
    outer loop
      vertex 7.88844 38.8601 20.6953
      vertex 7.63125 22.4 30.4
      vertex 7.88734 38.7899 20.4216
    endloop
  endfacet
  facet normal 0.999878 -0.015614 1.54477e-05
    outer loop
      vertex 7.89006 38.9641 20.958
      vertex 7.63125 22.4 30.4
      vertex 7.88844 38.8601 20.6953
    endloop
  endfacet
  facet normal 0.999878 -0.0156274 0
    outer loop
      vertex 7.95696 43.2456 19.8587
      vertex 7.98438 45 0.40678
      vertex 7.95696 43.2456 20.1413
    endloop
  endfacet
  facet normal 0.999879 -0.0155478 7.18004e-06
    outer loop
      vertex 7.95641 43.2101 19.5784
      vertex 7.98438 45 0.40678
      vertex 7.95696 43.2456 19.8587
    endloop
  endfacet
  facet normal 0.999877 -0.0156561 -2.93905e-06
    outer loop
      vertex 7.95531 43.1399 19.3047
      vertex 7.98438 45 0.40678
      vertex 7.95641 43.2101 19.5784
    endloop
  endfacet
  facet normal 0.999879 -0.0155852 4.04102e-06
    outer loop
      vertex 7.95369 43.0359 19.042
      vertex 7.98438 45 0.40678
      vertex 7.95531 43.1399 19.3047
    endloop
  endfacet
  facet normal 0.999878 -0.0156347 -1.17529e-06
    outer loop
      vertex 7.95156 42.8997 18.7944
      vertex 7.98438 45 0.40678
      vertex 7.95369 43.0359 19.042
    endloop
  endfacet
  facet normal 0.999877 -0.0156558 -3.58345e-06
    outer loop
      vertex 7.94896 42.7337 18.5658
      vertex 7.98438 45 0.40678
      vertex 7.95156 42.8997 18.7944
    endloop
  endfacet
  facet normal 0.999878 -0.0156079 2.39732e-06
    outer loop
      vertex 7.94594 42.5402 18.3598
      vertex 7.98438 45 0.40678
      vertex 7.94896 42.7337 18.5658
    endloop
  endfacet
  facet normal 0.999878 -0.0156169 1.16455e-06
    outer loop
      vertex 7.94254 42.3225 18.1797
      vertex 7.98438 45 0.40678
      vertex 7.94594 42.5402 18.3598
    endloop
  endfacet
  facet normal 0.999878 -0.0156304 -8.71828e-07
    outer loop
      vertex 7.93881 42.0839 18.0283
      vertex 7.98438 45 0.40678
      vertex 7.94254 42.3225 18.1797
    endloop
  endfacet
  facet normal 0.999878 -0.0156096 2.56474e-06
    outer loop
      vertex 7.93482 41.8283 17.908
      vertex 7.98438 45 0.40678
      vertex 7.93881 42.0839 18.0283
    endloop
  endfacet
  facet normal 0.999878 -0.0156286 -8.77095e-07
    outer loop
      vertex 7.93062 41.5596 17.8207
      vertex 7.98438 45 0.40678
      vertex 7.93482 41.8283 17.908
    endloop
  endfacet
  facet normal 0.999878 -0.0156318 -1.50686e-06
    outer loop
      vertex 7.92628 41.282 17.7677
      vertex 7.98438 45 0.40678
      vertex 7.93062 41.5596 17.8207
    endloop
  endfacet
  facet normal 0.999878 -0.0156013 5.0381e-06
    outer loop
      vertex 7.92188 41 17.75
      vertex 7.98438 45 0.40678
      vertex 7.92628 41.282 17.7677
    endloop
  endfacet
  facet normal 0.999878 -0.0156366 -3.11166e-06
    outer loop
      vertex 7.91747 40.718 17.7677
      vertex 7.98438 45 0.40678
      vertex 7.92188 41 17.75
    endloop
  endfacet
  facet normal 0.999878 -0.0156325 -2.10407e-06
    outer loop
      vertex 7.91313 40.4404 17.8207
      vertex 7.98438 45 0.40678
      vertex 7.91747 40.718 17.7677
    endloop
  endfacet
  facet normal 0.999878 -0.0156293 -1.27172e-06
    outer loop
      vertex 7.90893 40.1717 17.908
      vertex 7.98438 45 0.40678
      vertex 7.91313 40.4404 17.8207
    endloop
  endfacet
  facet normal 0.999878 -0.015606 5.16396e-06
    outer loop
      vertex 7.90494 39.9161 18.0283
      vertex 7.98438 45 0.40678
      vertex 7.90893 40.1717 17.908
    endloop
  endfacet
  facet normal 0.999878 -0.0156265 6.99453e-06
    outer loop
      vertex 7.63125 22.4 9.6
      vertex 7.90494 39.9161 18.0283
      vertex 7.90121 39.6775 18.1797
    endloop
  endfacet
  facet normal 0.999878 -0.0156204 -5.37983e-06
    outer loop
      vertex 7.63125 22.4 9.6
      vertex 7.90121 39.6775 18.1797
      vertex 7.89781 39.4598 18.3598
    endloop
  endfacet
  facet normal 0.999878 -0.0156173 -1.12791e-05
    outer loop
      vertex 7.63125 22.4 9.6
      vertex 7.89781 39.4598 18.3598
      vertex 7.89479 39.2663 18.5658
    endloop
  endfacet
  facet normal 0.999878 -0.0156337 1.95973e-05
    outer loop
      vertex 7.63125 22.4 9.6
      vertex 7.89479 39.2663 18.5658
      vertex 7.89219 39.1003 18.7944
    endloop
  endfacet
  facet normal 0.999878 -0.0156262 5.867e-06
    outer loop
      vertex 7.63125 22.4 9.6
      vertex 7.89219 39.1003 18.7944
      vertex 7.89006 38.9641 19.042
    endloop
  endfacet
  facet normal 0.999878 -0.015614 -1.54477e-05
    outer loop
      vertex 7.63125 22.4 9.6
      vertex 7.89006 38.9641 19.042
      vertex 7.88844 38.8601 19.3047
    endloop
  endfacet
  facet normal 0.999878 -0.0156232 0
    outer loop
      vertex 7.63125 22.4 9.6
      vertex 7.88679 38.7544 19.8587
      vertex 7.63125 22.4 30.4
    endloop
  endfacet
  facet normal 0.999878 -0.0156135 -1.55084e-05
    outer loop
      vertex 7.88679 38.7544 19.8587
      vertex 7.63125 22.4 9.6
      vertex 7.88734 38.7899 19.5784
    endloop
  endfacet
  facet normal 0.999878 -0.015629 9.90393e-06
    outer loop
      vertex 7.88734 38.7899 19.5784
      vertex 7.63125 22.4 9.6
      vertex 7.88844 38.8601 19.3047
    endloop
  endfacet
  facet normal 0.999878 -0.0156232 1.88857e-07
    outer loop
      vertex 7.90494 39.9161 18.0283
      vertex 7.63125 22.4 9.6
      vertex 7.98438 45 0.40678
    endloop
  endfacet
  facet normal 0.999878 -0.0156233 0
    outer loop
      vertex 7.63125 22.4 9.6
      vertex 7.98438 45 0
      vertex 7.98438 45 0.40678
    endloop
  endfacet
  facet normal 0.999878 -0.0156232 2.70357e-07
    outer loop
      vertex 7.98438 45 0
      vertex 7.63125 22.4 9.6
      vertex 7.25 -2 0
    endloop
  endfacet
  facet normal 0.999878 -0.0156231 0
    outer loop
      vertex 7.63125 22.4 9.6
      vertex 7.25 -2 9.6
      vertex 7.25 -2 0
    endloop
  endfacet
  facet normal 0 0 -1
    outer loop
      vertex 4.4 22.4 30.4
      vertex 7.25 -2 30.4
      vertex 4.4 -2 30.4
    endloop
  endfacet
  facet normal 0 0 -1
    outer loop
      vertex 7.25 -2 30.4
      vertex 4.4 22.4 30.4
      vertex 7.63125 22.4 30.4
    endloop
  endfacet
  facet normal 0 0 1
    outer loop
      vertex -18 16 40
      vertex -26 16 40
      vertex -18 6 40
    endloop
  endfacet
  facet normal 0 0 1
    outer loop
      vertex 8 48 40
      vertex 7.98438 45 40
      vertex 8 45 40
    endloop
  endfacet
  facet normal -0 0 1
    outer loop
      vertex 0 48 40
      vertex 7.98438 45 40
      vertex 8 48 40
    endloop
  endfacet
  facet normal 0 0 1
    outer loop
      vertex 7.98438 45 40
      vertex 0 48 40
      vertex 0 6 40
    endloop
  endfacet
  facet normal 0 0 1
    outer loop
      vertex 7.98438 45 40
      vertex 0 6 40
      vertex 7.25 -2 40
    endloop
  endfacet
  facet normal -0 0 1
    outer loop
      vertex -18 6 40
      vertex 7.25 -2 40
      vertex 0 6 40
    endloop
  endfacet
  facet normal 0 0 1
    outer loop
      vertex -18 6 40
      vertex -26 -2 40
      vertex 7.25 -2 40
    endloop
  endfacet
  facet normal 0 0 1
    outer loop
      vertex -26 -2 40
      vertex -18 6 40
      vertex -26 16 40
    endloop
  endfacet
  facet normal 0 -1 0
    outer loop
      vertex -26 -2 40
      vertex -0.4 -2 33.4
      vertex 7.25 -2 40
    endloop
  endfacet
  facet normal 0 -1 0
    outer loop
      vertex -26 -2 40
      vertex -0.4 -2 6.6
      vertex -0.4 -2 33.4
    endloop
  endfacet
  facet normal 0 -1 0
    outer loop
      vertex 7.25 -2 0
      vertex -0.4 -2 6.6
      vertex -26 -2 0
    endloop
  endfacet
  facet normal 0 -1 0
    outer loop
      vertex -26 -2 0
      vertex -0.4 -2 6.6
      vertex -26 -2 40
    endloop
  endfacet
  facet normal 0 -1 0
    outer loop
      vertex 4.4 -2 33.4
      vertex 7.25 -2 40
      vertex -0.4 -2 33.4
    endloop
  endfacet
  facet normal 0 -1 0
    outer loop
      vertex 7.25 -2 30.4
      vertex 4.4 -2 33.4
      vertex 4.4 -2 30.4
    endloop
  endfacet
  facet normal 0 -1 0
    outer loop
      vertex 4.4 -2 33.4
      vertex 7.25 -2 30.4
      vertex 7.25 -2 40
    endloop
  endfacet
  facet normal 0 -1 0
    outer loop
      vertex 4.4 -2 6.6
      vertex 7.25 -2 9.6
      vertex 4.4 -2 9.6
    endloop
  endfacet
  facet normal 0 -1 0
    outer loop
      vertex 4.4 -2 6.6
      vertex 7.25 -2 0
      vertex 7.25 -2 9.6
    endloop
  endfacet
  facet normal 0 -1 0
    outer loop
      vertex -0.4 -2 6.6
      vertex 7.25 -2 0
      vertex 4.4 -2 6.6
    endloop
  endfacet
  facet normal 1 -0 0
    outer loop
      vertex -0.4 -2 33.4
      vertex -0.4 6 6.6
      vertex -0.4 6 33.4
    endloop
  endfacet
  facet normal 1 0 0
    outer loop
      vertex -0.4 6 6.6
      vertex -0.4 -2 33.4
      vertex -0.4 -2 6.6
    endloop
  endfacet
  facet normal 0 0 1
    outer loop
      vertex 0 6 6.6
      vertex 4.4 22 6.6
      vertex 0 22 6.6
    endloop
  endfacet
  facet normal 0 0 1
    outer loop
      vertex 4.4 22 6.6
      vertex 0 6 6.6
      vertex 4.4 -2 6.6
    endloop
  endfacet
  facet normal 0 0 1
    outer loop
      vertex -0.4 -2 6.6
      vertex 0 6 6.6
      vertex -0.4 6 6.6
    endloop
  endfacet
  facet normal 0 0 1
    outer loop
      vertex 0 6 6.6
      vertex -0.4 -2 6.6
      vertex 4.4 -2 6.6
    endloop
  endfacet
  facet normal 0 -0.0227683 0.999741
    outer loop
      vertex 0 22.6099 6.61389
      vertex 4.4 22 6.6
      vertex 4.4 22.6099 6.61389
    endloop
  endfacet
  facet normal 0 -0.0227683 0.999741
    outer loop
      vertex 4.4 22 6.6
      vertex 0 22.6099 6.61389
      vertex 0 22 6.6
    endloop
  endfacet
  facet normal 0 -0.0682434 0.997669
    outer loop
      vertex 0 23.2185 6.65552
      vertex 4.4 22.6099 6.61389
      vertex 4.4 23.2185 6.65552
    endloop
  endfacet
  facet normal 0 -0.0682434 0.997669
    outer loop
      vertex 4.4 22.6099 6.61389
      vertex 0 23.2185 6.65552
      vertex 0 22.6099 6.61389
    endloop
  endfacet
  facet normal 0 -0.113581 0.993529
    outer loop
      vertex 0 23.8246 6.72481
      vertex 4.4 23.2185 6.65552
      vertex 4.4 23.8246 6.72481
    endloop
  endfacet
  facet normal 0 -0.113581 0.993529
    outer loop
      vertex 4.4 23.2185 6.65552
      vertex 0 23.8246 6.72481
      vertex 0 23.2185 6.65552
    endloop
  endfacet
  facet normal 0 -0.158655 0.987334
    outer loop
      vertex 0 24.427 6.82161
      vertex 4.4 23.8246 6.72481
      vertex 4.4 24.427 6.82161
    endloop
  endfacet
  facet normal 0 -0.158655 0.987334
    outer loop
      vertex 4.4 23.8246 6.72481
      vertex 0 24.427 6.82161
      vertex 0 23.8246 6.72481
    endloop
  endfacet
  facet normal 0 -0.203455 0.979084
    outer loop
      vertex 0 25.0243 6.94573
      vertex 4.4 24.427 6.82161
      vertex 4.4 25.0243 6.94573
    endloop
  endfacet
  facet normal 0 -0.203455 0.979084
    outer loop
      vertex 4.4 24.427 6.82161
      vertex 0 25.0243 6.94573
      vertex 0 24.427 6.82161
    endloop
  endfacet
  facet normal 0 -0.247824 0.968805
    outer loop
      vertex 0 25.6153 7.09691
      vertex 4.4 25.0243 6.94573
      vertex 4.4 25.6153 7.09691
    endloop
  endfacet
  facet normal 0 -0.247824 0.968805
    outer loop
      vertex 4.4 25.0243 6.94573
      vertex 0 25.6153 7.09691
      vertex 0 25.0243 6.94573
    endloop
  endfacet
  facet normal 0 -0.291661 0.956522
    outer loop
      vertex 0 26.1988 7.27483
      vertex 4.4 25.6153 7.09691
      vertex 4.4 26.1988 7.27483
    endloop
  endfacet
  facet normal 0 -0.291661 0.956522
    outer loop
      vertex 4.4 25.6153 7.09691
      vertex 0 26.1988 7.27483
      vertex 0 25.6153 7.09691
    endloop
  endfacet
  facet normal 0 -0.334888 0.942258
    outer loop
      vertex 0 26.7736 7.47912
      vertex 4.4 26.1988 7.27483
      vertex 4.4 26.7736 7.47912
    endloop
  endfacet
  facet normal 0 -0.334888 0.942258
    outer loop
      vertex 4.4 26.1988 7.27483
      vertex 0 26.7736 7.47912
      vertex 0 26.1988 7.27483
    endloop
  endfacet
  facet normal 0 -0.377388 0.926055
    outer loop
      vertex 0 27.3386 7.70937
      vertex 4.4 26.7736 7.47912
      vertex 4.4 27.3386 7.70937
    endloop
  endfacet
  facet normal 0 -0.377388 0.926055
    outer loop
      vertex 4.4 26.7736 7.47912
      vertex 0 27.3386 7.70937
      vertex 0 26.7736 7.47912
    endloop
  endfacet
  facet normal 0 -0.41922 0.907885
    outer loop
      vertex 0 27.8924 7.96509
      vertex 4.4 27.3386 7.70937
      vertex 4.4 27.8924 7.96509
    endloop
  endfacet
  facet normal 0 -0.41922 0.907885
    outer loop
      vertex 4.4 27.3386 7.70937
      vertex 0 27.8924 7.96509
      vertex 0 27.3386 7.70937
    endloop
  endfacet
  facet normal 0 -0.460031 0.887903
    outer loop
      vertex 0 28.4341 8.24575
      vertex 4.4 27.8924 7.96509
      vertex 4.4 28.4341 8.24575
    endloop
  endfacet
  facet normal 0 -0.460031 0.887903
    outer loop
      vertex 4.4 27.8924 7.96509
      vertex 0 28.4341 8.24575
      vertex 0 27.8924 7.96509
    endloop
  endfacet
  facet normal 0 -0.500019 0.866014
    outer loop
      vertex 0 28.9624 8.55078
      vertex 4.4 28.4341 8.24575
      vertex 4.4 28.9624 8.55078
    endloop
  endfacet
  facet normal 0 -0.500019 0.866014
    outer loop
      vertex 4.4 28.4341 8.24575
      vertex 0 28.9624 8.55078
      vertex 0 28.4341 8.24575
    endloop
  endfacet
  facet normal 0 -0.538896 0.842373
    outer loop
      vertex 0 29.4763 8.87954
      vertex 4.4 28.9624 8.55078
      vertex 4.4 29.4763 8.87954
    endloop
  endfacet
  facet normal 0 -0.538896 0.842373
    outer loop
      vertex 4.4 28.9624 8.55078
      vertex 0 29.4763 8.87954
      vertex 0 28.9624 8.55078
    endloop
  endfacet
  facet normal 0 -0.57667 0.816977
    outer loop
      vertex 0 29.9747 9.23134
      vertex 4.4 29.4763 8.87954
      vertex 4.4 29.9747 9.23134
    endloop
  endfacet
  facet normal 0 -0.57667 0.816977
    outer loop
      vertex 4.4 29.4763 8.87954
      vertex 0 29.9747 9.23134
      vertex 0 29.4763 8.87954
    endloop
  endfacet
  facet normal 0 -0.613245 0.789893
    outer loop
      vertex 0 30.4566 9.60547
      vertex 4.4 29.9747 9.23134
      vertex 4.4 30.4566 9.60547
    endloop
  endfacet
  facet normal 0 -0.613245 0.789893
    outer loop
      vertex 4.4 29.9747 9.23134
      vertex 0 30.4566 9.60547
      vertex 0 29.9747 9.23134
    endloop
  endfacet
  facet normal 0 -0.648576 0.76115
    outer loop
      vertex 0 30.9209 10.0011
      vertex 4.4 30.4566 9.60547
      vertex 4.4 30.9209 10.0011
    endloop
  endfacet
  facet normal 0 -0.648576 0.76115
    outer loop
      vertex 4.4 30.4566 9.60547
      vertex 0 30.9209 10.0011
      vertex 0 30.4566 9.60547
    endloop
  endfacet
  facet normal 0 -0.682517 0.73087
    outer loop
      vertex 0 31.3668 10.4175
      vertex 4.4 30.9209 10.0011
      vertex 4.4 31.3668 10.4175
    endloop
  endfacet
  facet normal 0 -0.682517 0.73087
    outer loop
      vertex 4.4 30.9209 10.0011
      vertex 0 31.3668 10.4175
      vertex 0 30.9209 10.0011
    endloop
  endfacet
  facet normal 0 -0.715174 0.698946
    outer loop
      vertex 0 31.3668 10.4175
      vertex 4.4 31.7932 10.8538
      vertex 0 31.7932 10.8538
    endloop
  endfacet
  facet normal 0 -0.715174 0.698946
    outer loop
      vertex 4.4 31.7932 10.8538
      vertex 0 31.3668 10.4175
      vertex 4.4 31.3668 10.4175
    endloop
  endfacet
  facet normal 0 -0.746205 0.665716
    outer loop
      vertex 0 31.7932 10.8538
      vertex 4.4 32.1993 11.309
      vertex 0 32.1993 11.309
    endloop
  endfacet
  facet normal 0 -0.746205 0.665716
    outer loop
      vertex 4.4 32.1993 11.309
      vertex 0 31.7932 10.8538
      vertex 4.4 31.7932 10.8538
    endloop
  endfacet
  facet normal 0 -0.775693 0.631111
    outer loop
      vertex 0 32.1993 11.309
      vertex 4.4 32.5843 11.7822
      vertex 0 32.5843 11.7822
    endloop
  endfacet
  facet normal 0 -0.775693 0.631111
    outer loop
      vertex 4.4 32.5843 11.7822
      vertex 0 32.1993 11.309
      vertex 4.4 32.1993 11.309
    endloop
  endfacet
  facet normal 0 -0.803624 0.595137
    outer loop
      vertex 0 32.5843 11.7822
      vertex 4.4 32.9474 12.2725
      vertex 0 32.9474 12.2725
    endloop
  endfacet
  facet normal 0 -0.803624 0.595137
    outer loop
      vertex 4.4 32.9474 12.2725
      vertex 0 32.5843 11.7822
      vertex 4.4 32.5843 11.7822
    endloop
  endfacet
  facet normal 0 -0.829875 0.557949
    outer loop
      vertex 0 32.9474 12.2725
      vertex 4.4 33.2878 12.7788
      vertex 0 33.2878 12.7788
    endloop
  endfacet
  facet normal 0 -0.829875 0.557949
    outer loop
      vertex 4.4 33.2878 12.7788
      vertex 0 32.9474 12.2725
      vertex 4.4 32.9474 12.2725
    endloop
  endfacet
  facet normal 0 -0.854455 0.519526
    outer loop
      vertex 0 33.2878 12.7788
      vertex 4.4 33.6047 13.3
      vertex 0 33.6047 13.3
    endloop
  endfacet
  facet normal 0 -0.854455 0.519526
    outer loop
      vertex 4.4 33.6047 13.3
      vertex 0 33.2878 12.7788
      vertex 4.4 33.2878 12.7788
    endloop
  endfacet
  facet normal 0 -0.877118 0.480276
    outer loop
      vertex 0 33.6047 13.3
      vertex 4.4 33.8977 13.8351
      vertex 0 33.8977 13.8351
    endloop
  endfacet
  facet normal 0 -0.877118 0.480276
    outer loop
      vertex 4.4 33.8977 13.8351
      vertex 0 33.6047 13.3
      vertex 4.4 33.6047 13.3
    endloop
  endfacet
  facet normal 0 -0.898166 0.439657
    outer loop
      vertex 0 33.8977 13.8351
      vertex 4.4 34.1659 14.383
      vertex 0 34.1659 14.383
    endloop
  endfacet
  facet normal 0 -0.898166 0.439657
    outer loop
      vertex 4.4 34.1659 14.383
      vertex 0 33.8977 13.8351
      vertex 4.4 33.8977 13.8351
    endloop
  endfacet
  facet normal 0 -0.917192 0.398444
    outer loop
      vertex 0 34.1659 14.383
      vertex 4.4 34.409 14.9426
      vertex 0 34.409 14.9426
    endloop
  endfacet
  facet normal 0 -0.917192 0.398444
    outer loop
      vertex 4.4 34.409 14.9426
      vertex 0 34.1659 14.383
      vertex 4.4 34.1659 14.383
    endloop
  endfacet
  facet normal 0 -0.934402 0.35622
    outer loop
      vertex 0 34.409 14.9426
      vertex 4.4 34.6263 15.5126
      vertex 0 34.6263 15.5126
    endloop
  endfacet
  facet normal 0 -0.934402 0.35622
    outer loop
      vertex 4.4 34.6263 15.5126
      vertex 0 34.409 14.9426
      vertex 4.4 34.409 14.9426
    endloop
  endfacet
  facet normal 0 -0.949614 0.313423
    outer loop
      vertex 0 34.6263 15.5126
      vertex 4.4 34.8175 16.0919
      vertex 0 34.8175 16.0919
    endloop
  endfacet
  facet normal 0 -0.949614 0.313423
    outer loop
      vertex 4.4 34.8175 16.0919
      vertex 0 34.6263 15.5126
      vertex 4.4 34.6263 15.5126
    endloop
  endfacet
  facet normal 0 -0.962964 0.26963
    outer loop
      vertex 0 34.8175 16.0919
      vertex 4.4 34.982 16.6794
      vertex 0 34.982 16.6794
    endloop
  endfacet
  facet normal 0 -0.962964 0.26963
    outer loop
      vertex 4.4 34.982 16.6794
      vertex 0 34.8175 16.0919
      vertex 4.4 34.8175 16.0919
    endloop
  endfacet
  facet normal 0 -0.974192 0.225721
    outer loop
      vertex 0 34.982 16.6794
      vertex 4.4 35.1197 17.2737
      vertex 0 35.1197 17.2737
    endloop
  endfacet
  facet normal 0 -0.974192 0.225721
    outer loop
      vertex 4.4 35.1197 17.2737
      vertex 0 34.982 16.6794
      vertex 4.4 34.982 16.6794
    endloop
  endfacet
  facet normal 0 -0.983461 0.181121
    outer loop
      vertex 0 35.1197 17.2737
      vertex 4.4 35.2302 17.8737
      vertex 0 35.2302 17.8737
    endloop
  endfacet
  facet normal 0 -0.983461 0.181121
    outer loop
      vertex 4.4 35.2302 17.8737
      vertex 0 35.1197 17.2737
      vertex 4.4 35.1197 17.2737
    endloop
  endfacet
  facet normal 0 -0.990677 0.136232
    outer loop
      vertex 0 35.2302 17.8737
      vertex 4.4 35.3133 18.478
      vertex 0 35.3133 18.478
    endloop
  endfacet
  facet normal 0 -0.990677 0.136232
    outer loop
      vertex 4.4 35.3133 18.478
      vertex 0 35.2302 17.8737
      vertex 4.4 35.2302 17.8737
    endloop
  endfacet
  facet normal 0 -0.995854 0.0909643
    outer loop
      vertex 0 35.3133 18.478
      vertex 4.4 35.3688 19.0856
      vertex 0 35.3688 19.0856
    endloop
  endfacet
  facet normal 0 -0.995854 0.0909643
    outer loop
      vertex 4.4 35.3688 19.0856
      vertex 0 35.3133 18.478
      vertex 4.4 35.3133 18.478
    endloop
  endfacet
  facet normal 0 -0.998969 0.0454077
    outer loop
      vertex 0 35.3688 19.0856
      vertex 4.4 35.3965 19.695
      vertex 0 35.3965 19.695
    endloop
  endfacet
  facet normal 0 -0.998969 0.0454077
    outer loop
      vertex 4.4 35.3965 19.695
      vertex 0 35.3688 19.0856
      vertex 4.4 35.3688 19.0856
    endloop
  endfacet
  facet normal 0 -1 0
    outer loop
      vertex 0 35.3965 19.695
      vertex 4.4 35.3965 20.305
      vertex 0 35.3965 20.305
    endloop
  endfacet
  facet normal 0 -1 -0
    outer loop
      vertex 4.4 35.3965 20.305
      vertex 0 35.3965 19.695
      vertex 4.4 35.3965 19.695
    endloop
  endfacet
  facet normal 0 -0.998969 -0.0454077
    outer loop
      vertex 0 35.3965 20.305
      vertex 4.4 35.3688 20.9144
      vertex 0 35.3688 20.9144
    endloop
  endfacet
  facet normal 0 -0.998969 -0.0454077
    outer loop
      vertex 4.4 35.3688 20.9144
      vertex 0 35.3965 20.305
      vertex 4.4 35.3965 20.305
    endloop
  endfacet
  facet normal 0 -0.995854 -0.0909643
    outer loop
      vertex 0 35.3688 20.9144
      vertex 4.4 35.3133 21.522
      vertex 0 35.3133 21.522
    endloop
  endfacet
  facet normal 0 -0.995854 -0.0909643
    outer loop
      vertex 4.4 35.3133 21.522
      vertex 0 35.3688 20.9144
      vertex 4.4 35.3688 20.9144
    endloop
  endfacet
  facet normal 0 -0.990677 -0.136232
    outer loop
      vertex 0 35.3133 21.522
      vertex 4.4 35.2302 22.1263
      vertex 0 35.2302 22.1263
    endloop
  endfacet
  facet normal 0 -0.990677 -0.136232
    outer loop
      vertex 4.4 35.2302 22.1263
      vertex 0 35.3133 21.522
      vertex 4.4 35.3133 21.522
    endloop
  endfacet
  facet normal 0 -0.983461 -0.181121
    outer loop
      vertex 0 35.2302 22.1263
      vertex 4.4 35.1197 22.7263
      vertex 0 35.1197 22.7263
    endloop
  endfacet
  facet normal 0 -0.983461 -0.181121
    outer loop
      vertex 4.4 35.1197 22.7263
      vertex 0 35.2302 22.1263
      vertex 4.4 35.2302 22.1263
    endloop
  endfacet
  facet normal 0 -0.974192 -0.225721
    outer loop
      vertex 0 35.1197 22.7263
      vertex 4.4 34.982 23.3206
      vertex 0 34.982 23.3206
    endloop
  endfacet
  facet normal 0 -0.974192 -0.225721
    outer loop
      vertex 4.4 34.982 23.3206
      vertex 0 35.1197 22.7263
      vertex 4.4 35.1197 22.7263
    endloop
  endfacet
  facet normal 0 -0.962964 -0.26963
    outer loop
      vertex 0 34.982 23.3206
      vertex 4.4 34.8175 23.9081
      vertex 0 34.8175 23.9081
    endloop
  endfacet
  facet normal 0 -0.962964 -0.26963
    outer loop
      vertex 4.4 34.8175 23.9081
      vertex 0 34.982 23.3206
      vertex 4.4 34.982 23.3206
    endloop
  endfacet
  facet normal 0 -0.949614 -0.313423
    outer loop
      vertex 0 34.8175 23.9081
      vertex 4.4 34.6263 24.4874
      vertex 0 34.6263 24.4874
    endloop
  endfacet
  facet normal 0 -0.949614 -0.313423
    outer loop
      vertex 4.4 34.6263 24.4874
      vertex 0 34.8175 23.9081
      vertex 4.4 34.8175 23.9081
    endloop
  endfacet
  facet normal 0 -0.934402 -0.35622
    outer loop
      vertex 0 34.6263 24.4874
      vertex 4.4 34.409 25.0574
      vertex 0 34.409 25.0574
    endloop
  endfacet
  facet normal 0 -0.934402 -0.35622
    outer loop
      vertex 4.4 34.409 25.0574
      vertex 0 34.6263 24.4874
      vertex 4.4 34.6263 24.4874
    endloop
  endfacet
  facet normal 0 -0.917192 -0.398444
    outer loop
      vertex 0 34.409 25.0574
      vertex 4.4 34.1659 25.617
      vertex 0 34.1659 25.617
    endloop
  endfacet
  facet normal 0 -0.917192 -0.398444
    outer loop
      vertex 4.4 34.1659 25.617
      vertex 0 34.409 25.0574
      vertex 4.4 34.409 25.0574
    endloop
  endfacet
  facet normal 0 -0.898166 -0.439657
    outer loop
      vertex 0 34.1659 25.617
      vertex 4.4 33.8977 26.1649
      vertex 0 33.8977 26.1649
    endloop
  endfacet
  facet normal 0 -0.898166 -0.439657
    outer loop
      vertex 4.4 33.8977 26.1649
      vertex 0 34.1659 25.617
      vertex 4.4 34.1659 25.617
    endloop
  endfacet
  facet normal 0 -0.877118 -0.480276
    outer loop
      vertex 0 33.8977 26.1649
      vertex 4.4 33.6047 26.7
      vertex 0 33.6047 26.7
    endloop
  endfacet
  facet normal 0 -0.877118 -0.480276
    outer loop
      vertex 4.4 33.6047 26.7
      vertex 0 33.8977 26.1649
      vertex 4.4 33.8977 26.1649
    endloop
  endfacet
  facet normal 0 -0.854455 -0.519526
    outer loop
      vertex 0 33.6047 26.7
      vertex 4.4 33.2878 27.2212
      vertex 0 33.2878 27.2212
    endloop
  endfacet
  facet normal 0 -0.854455 -0.519526
    outer loop
      vertex 4.4 33.2878 27.2212
      vertex 0 33.6047 26.7
      vertex 4.4 33.6047 26.7
    endloop
  endfacet
  facet normal 0 -0.829875 -0.557949
    outer loop
      vertex 0 33.2878 27.2212
      vertex 4.4 32.9474 27.7275
      vertex 0 32.9474 27.7275
    endloop
  endfacet
  facet normal 0 -0.829875 -0.557949
    outer loop
      vertex 4.4 32.9474 27.7275
      vertex 0 33.2878 27.2212
      vertex 4.4 33.2878 27.2212
    endloop
  endfacet
  facet normal 0 -0.803624 -0.595137
    outer loop
      vertex 0 32.9474 27.7275
      vertex 4.4 32.5843 28.2178
      vertex 0 32.5843 28.2178
    endloop
  endfacet
  facet normal 0 -0.803624 -0.595137
    outer loop
      vertex 4.4 32.5843 28.2178
      vertex 0 32.9474 27.7275
      vertex 4.4 32.9474 27.7275
    endloop
  endfacet
  facet normal 0 -0.775693 -0.631111
    outer loop
      vertex 0 32.5843 28.2178
      vertex 4.4 32.1993 28.691
      vertex 0 32.1993 28.691
    endloop
  endfacet
  facet normal 0 -0.775693 -0.631111
    outer loop
      vertex 4.4 32.1993 28.691
      vertex 0 32.5843 28.2178
      vertex 4.4 32.5843 28.2178
    endloop
  endfacet
  facet normal 0 -0.746205 -0.665716
    outer loop
      vertex 0 32.1993 28.691
      vertex 4.4 31.7932 29.1462
      vertex 0 31.7932 29.1462
    endloop
  endfacet
  facet normal 0 -0.746205 -0.665716
    outer loop
      vertex 4.4 31.7932 29.1462
      vertex 0 32.1993 28.691
      vertex 4.4 32.1993 28.691
    endloop
  endfacet
  facet normal 0 -0.715174 -0.698946
    outer loop
      vertex 0 31.7932 29.1462
      vertex 4.4 31.3668 29.5825
      vertex 0 31.3668 29.5825
    endloop
  endfacet
  facet normal 0 -0.715174 -0.698946
    outer loop
      vertex 4.4 31.3668 29.5825
      vertex 0 31.7932 29.1462
      vertex 4.4 31.7932 29.1462
    endloop
  endfacet
  facet normal 0 -0.682517 -0.73087
    outer loop
      vertex 0 30.9209 29.9989
      vertex 4.4 31.3668 29.5825
      vertex 4.4 30.9209 29.9989
    endloop
  endfacet
  facet normal -0 -0.682517 -0.73087
    outer loop
      vertex 4.4 31.3668 29.5825
      vertex 0 30.9209 29.9989
      vertex 0 31.3668 29.5825
    endloop
  endfacet
  facet normal 0 -0.648547 -0.761174
    outer loop
      vertex 0 30.4566 30.3945
      vertex 4.4 30.9209 29.9989
      vertex 4.4 30.4566 30.3945
    endloop
  endfacet
  facet normal -0 -0.648547 -0.761174
    outer loop
      vertex 4.4 30.9209 29.9989
      vertex 0 30.4566 30.3945
      vertex 0 30.9209 29.9989
    endloop
  endfacet
  facet normal 0 -0.613316 -0.789837
    outer loop
      vertex 0 29.9747 30.7687
      vertex 4.4 30.4566 30.3945
      vertex 4.4 29.9747 30.7687
    endloop
  endfacet
  facet normal -0 -0.613316 -0.789837
    outer loop
      vertex 4.4 30.4566 30.3945
      vertex 0 29.9747 30.7687
      vertex 0 30.4566 30.3945
    endloop
  endfacet
  facet normal 0 -0.57667 -0.816977
    outer loop
      vertex 0 29.4763 31.1205
      vertex 4.4 29.9747 30.7687
      vertex 4.4 29.4763 31.1205
    endloop
  endfacet
  facet normal -0 -0.57667 -0.816977
    outer loop
      vertex 4.4 29.9747 30.7687
      vertex 0 29.4763 31.1205
      vertex 0 29.9747 30.7687
    endloop
  endfacet
  facet normal 0 -0.538826 -0.842417
    outer loop
      vertex 0 28.9624 31.4492
      vertex 4.4 29.4763 31.1205
      vertex 4.4 28.9624 31.4492
    endloop
  endfacet
  facet normal -0 -0.538826 -0.842417
    outer loop
      vertex 4.4 29.4763 31.1205
      vertex 0 28.9624 31.4492
      vertex 0 29.4763 31.1205
    endloop
  endfacet
  facet normal 0 -0.499983 -0.866035
    outer loop
      vertex 0 28.4341 31.7542
      vertex 4.4 28.9624 31.4492
      vertex 4.4 28.4341 31.7542
    endloop
  endfacet
  facet normal -0 -0.499983 -0.866035
    outer loop
      vertex 4.4 28.9624 31.4492
      vertex 0 28.4341 31.7542
      vertex 0 28.9624 31.4492
    endloop
  endfacet
  facet normal 0 -0.460083 -0.887876
    outer loop
      vertex 0 27.8924 32.0349
      vertex 4.4 28.4341 31.7542
      vertex 4.4 27.8924 32.0349
    endloop
  endfacet
  facet normal -0 -0.460083 -0.887876
    outer loop
      vertex 4.4 28.4341 31.7542
      vertex 0 27.8924 32.0349
      vertex 0 28.4341 31.7542
    endloop
  endfacet
  facet normal 0 -0.419193 -0.907897
    outer loop
      vertex 0 27.3386 32.2906
      vertex 4.4 27.8924 32.0349
      vertex 4.4 27.3386 32.2906
    endloop
  endfacet
  facet normal -0 -0.419193 -0.907897
    outer loop
      vertex 4.4 27.8924 32.0349
      vertex 0 27.3386 32.2906
      vertex 0 27.8924 32.0349
    endloop
  endfacet
  facet normal 0 -0.377458 -0.926027
    outer loop
      vertex 0 26.7736 32.5209
      vertex 4.4 27.3386 32.2906
      vertex 4.4 26.7736 32.5209
    endloop
  endfacet
  facet normal -0 -0.377458 -0.926027
    outer loop
      vertex 4.4 27.3386 32.2906
      vertex 0 26.7736 32.5209
      vertex 0 27.3386 32.2906
    endloop
  endfacet
  facet normal 0 -0.334903 -0.942253
    outer loop
      vertex 0 26.1988 32.7252
      vertex 4.4 26.7736 32.5209
      vertex 4.4 26.1988 32.7252
    endloop
  endfacet
  facet normal -0 -0.334903 -0.942253
    outer loop
      vertex 4.4 26.7736 32.5209
      vertex 0 26.1988 32.7252
      vertex 0 26.7736 32.5209
    endloop
  endfacet
  facet normal 0 -0.291631 -0.956531
    outer loop
      vertex 0 25.6153 32.9031
      vertex 4.4 26.1988 32.7252
      vertex 4.4 25.6153 32.9031
    endloop
  endfacet
  facet normal -0 -0.291631 -0.956531
    outer loop
      vertex 4.4 26.1988 32.7252
      vertex 0 25.6153 32.9031
      vertex 0 26.1988 32.7252
    endloop
  endfacet
  facet normal 0 -0.247855 -0.968797
    outer loop
      vertex 0 25.0243 33.0543
      vertex 4.4 25.6153 32.9031
      vertex 4.4 25.0243 33.0543
    endloop
  endfacet
  facet normal -0 -0.247855 -0.968797
    outer loop
      vertex 4.4 25.6153 32.9031
      vertex 0 25.0243 33.0543
      vertex 0 25.6153 32.9031
    endloop
  endfacet
  facet normal 0 -0.203424 -0.979091
    outer loop
      vertex 0 24.427 33.1784
      vertex 4.4 25.0243 33.0543
      vertex 4.4 24.427 33.1784
    endloop
  endfacet
  facet normal -0 -0.203424 -0.979091
    outer loop
      vertex 4.4 25.0243 33.0543
      vertex 0 24.427 33.1784
      vertex 0 25.0243 33.0543
    endloop
  endfacet
  facet normal 0 -0.158655 -0.987334
    outer loop
      vertex 0 23.8246 33.2752
      vertex 4.4 24.427 33.1784
      vertex 4.4 23.8246 33.2752
    endloop
  endfacet
  facet normal -0 -0.158655 -0.987334
    outer loop
      vertex 4.4 24.427 33.1784
      vertex 0 23.8246 33.2752
      vertex 0 24.427 33.1784
    endloop
  endfacet
  facet normal 0 -0.113597 -0.993527
    outer loop
      vertex 0 23.2185 33.3445
      vertex 4.4 23.8246 33.2752
      vertex 4.4 23.2185 33.3445
    endloop
  endfacet
  facet normal -0 -0.113597 -0.993527
    outer loop
      vertex 4.4 23.8246 33.2752
      vertex 0 23.2185 33.3445
      vertex 0 23.8246 33.2752
    endloop
  endfacet
  facet normal 0 -0.0681945 -0.997672
    outer loop
      vertex 0 22.6099 33.3861
      vertex 4.4 23.2185 33.3445
      vertex 4.4 22.6099 33.3861
    endloop
  endfacet
  facet normal -0 -0.0681945 -0.997672
    outer loop
      vertex 4.4 23.2185 33.3445
      vertex 0 22.6099 33.3861
      vertex 0 23.2185 33.3445
    endloop
  endfacet
  facet normal 0 -0.0227847 -0.99974
    outer loop
      vertex 0 22 33.4
      vertex 4.4 22.6099 33.3861
      vertex 4.4 22 33.4
    endloop
  endfacet
  facet normal -0 -0.0227847 -0.99974
    outer loop
      vertex 4.4 22.6099 33.3861
      vertex 0 22 33.4
      vertex 0 22.6099 33.3861
    endloop
  endfacet
  facet normal 0 0 -1
    outer loop
      vertex 4.4 -2 33.4
      vertex 0 6 33.4
      vertex 4.4 22 33.4
    endloop
  endfacet
  facet normal 0 0 -1
    outer loop
      vertex -0.4 -2 33.4
      vertex 0 6 33.4
      vertex 4.4 -2 33.4
    endloop
  endfacet
  facet normal -0 0 -1
    outer loop
      vertex 0 6 33.4
      vertex -0.4 -2 33.4
      vertex -0.4 6 33.4
    endloop
  endfacet
  facet normal -0 0 -1
    outer loop
      vertex 4.4 22 33.4
      vertex 0 6 33.4
      vertex 0 22 33.4
    endloop
  endfacet
  facet normal -1 0 0
    outer loop
      vertex 4.4 22.4 9.6
      vertex 4.4 35.3965 19.695
      vertex 4.4 35.3688 19.0856
    endloop
  endfacet
  facet normal -1 -0 0
    outer loop
      vertex 4.4 35.3965 19.695
      vertex 4.4 22.4 9.6
      vertex 4.4 35.3965 20.305
    endloop
  endfacet
  facet normal -1 0 0
    outer loop
      vertex 4.4 22.4 9.6
      vertex 4.4 35.3688 19.0856
      vertex 4.4 35.3133 18.478
    endloop
  endfacet
  facet normal -1 0 0
    outer loop
      vertex 4.4 22.4 30.4
      vertex 4.4 35.3965 20.305
      vertex 4.4 22.4 9.6
    endloop
  endfacet
  facet normal -1 0 0
    outer loop
      vertex 4.4 22.4 9.6
      vertex 4.4 35.3133 18.478
      vertex 4.4 35.2302 17.8737
    endloop
  endfacet
  facet normal -1 0 0
    outer loop
      vertex 4.4 35.3965 20.305
      vertex 4.4 22.4 30.4
      vertex 4.4 35.3688 20.9144
    endloop
  endfacet
  facet normal -1 0 0
    outer loop
      vertex 4.4 22.4 9.6
      vertex 4.4 35.2302 17.8737
      vertex 4.4 35.1197 17.2737
    endloop
  endfacet
  facet normal -1 0 0
    outer loop
      vertex 4.4 35.3688 20.9144
      vertex 4.4 22.4 30.4
      vertex 4.4 35.3133 21.522
    endloop
  endfacet
  facet normal -1 0 0
    outer loop
      vertex 4.4 22.4 9.6
      vertex 4.4 35.1197 17.2737
      vertex 4.4 34.982 16.6794
    endloop
  endfacet
  facet normal -1 0 0
    outer loop
      vertex 4.4 35.3133 21.522
      vertex 4.4 22.4 30.4
      vertex 4.4 35.2302 22.1263
    endloop
  endfacet
  facet normal -1 0 0
    outer loop
      vertex 4.4 22.4 9.6
      vertex 4.4 34.982 16.6794
      vertex 4.4 34.8175 16.0919
    endloop
  endfacet
  facet normal -1 0 0
    outer loop
      vertex 4.4 35.2302 22.1263
      vertex 4.4 22.4 30.4
      vertex 4.4 35.1197 22.7263
    endloop
  endfacet
  facet normal -1 0 0
    outer loop
      vertex 4.4 22.4 9.6
      vertex 4.4 34.8175 16.0919
      vertex 4.4 34.6263 15.5126
    endloop
  endfacet
  facet normal -1 0 0
    outer loop
      vertex 4.4 35.1197 22.7263
      vertex 4.4 22.4 30.4
      vertex 4.4 34.982 23.3206
    endloop
  endfacet
  facet normal -1 0 0
    outer loop
      vertex 4.4 22.4 9.6
      vertex 4.4 34.6263 15.5126
      vertex 4.4 34.409 14.9426
    endloop
  endfacet
  facet normal -1 0 0
    outer loop
      vertex 4.4 34.982 23.3206
      vertex 4.4 22.4 30.4
      vertex 4.4 34.8175 23.9081
    endloop
  endfacet
  facet normal -1 0 0
    outer loop
      vertex 4.4 22.4 9.6
      vertex 4.4 34.409 14.9426
      vertex 4.4 34.1659 14.383
    endloop
  endfacet
  facet normal -1 0 0
    outer loop
      vertex 4.4 34.8175 23.9081
      vertex 4.4 22.4 30.4
      vertex 4.4 34.6263 24.4874
    endloop
  endfacet
  facet normal -1 0 0
    outer loop
      vertex 4.4 22.4 9.6
      vertex 4.4 34.1659 14.383
      vertex 4.4 33.8977 13.8351
    endloop
  endfacet
  facet normal -1 0 0
    outer loop
      vertex 4.4 34.6263 24.4874
      vertex 4.4 22.4 30.4
      vertex 4.4 34.409 25.0574
    endloop
  endfacet
  facet normal -1 0 0
    outer loop
      vertex 4.4 22.4 9.6
      vertex 4.4 33.8977 13.8351
      vertex 4.4 33.6047 13.3
    endloop
  endfacet
  facet normal -1 0 0
    outer loop
      vertex 4.4 34.409 25.0574
      vertex 4.4 22.4 30.4
      vertex 4.4 34.1659 25.617
    endloop
  endfacet
  facet normal -1 0 0
    outer loop
      vertex 4.4 22.4 9.6
      vertex 4.4 33.6047 13.3
      vertex 4.4 33.2878 12.7788
    endloop
  endfacet
  facet normal -1 0 0
    outer loop
      vertex 4.4 34.1659 25.617
      vertex 4.4 22.4 30.4
      vertex 4.4 33.8977 26.1649
    endloop
  endfacet
  facet normal -1 0 0
    outer loop
      vertex 4.4 22.4 9.6
      vertex 4.4 33.2878 12.7788
      vertex 4.4 32.9474 12.2725
    endloop
  endfacet
  facet normal -1 0 0
    outer loop
      vertex 4.4 33.8977 26.1649
      vertex 4.4 22.4 30.4
      vertex 4.4 33.6047 26.7
    endloop
  endfacet
  facet normal -1 0 0
    outer loop
      vertex 4.4 22.4 9.6
      vertex 4.4 32.9474 12.2725
      vertex 4.4 32.5843 11.7822
    endloop
  endfacet
  facet normal -1 0 0
    outer loop
      vertex 4.4 33.6047 26.7
      vertex 4.4 22.4 30.4
      vertex 4.4 33.2878 27.2212
    endloop
  endfacet
  facet normal -1 0 0
    outer loop
      vertex 4.4 22.4 9.6
      vertex 4.4 32.5843 11.7822
      vertex 4.4 32.1993 11.309
    endloop
  endfacet
  facet normal -1 0 0
    outer loop
      vertex 4.4 33.2878 27.2212
      vertex 4.4 22.4 30.4
      vertex 4.4 32.9474 27.7275
    endloop
  endfacet
  facet normal -1 0 0
    outer loop
      vertex 4.4 22.4 9.6
      vertex 4.4 32.1993 11.309
      vertex 4.4 31.7932 10.8538
    endloop
  endfacet
  facet normal -1 0 0
    outer loop
      vertex 4.4 32.9474 27.7275
      vertex 4.4 22.4 30.4
      vertex 4.4 32.5843 28.2178
    endloop
  endfacet
  facet normal -1 0 0
    outer loop
      vertex 4.4 22.4 9.6
      vertex 4.4 31.7932 10.8538
      vertex 4.4 31.3668 10.4175
    endloop
  endfacet
  facet normal -1 0 0
    outer loop
      vertex 4.4 32.5843 28.2178
      vertex 4.4 22.4 30.4
      vertex 4.4 32.1993 28.691
    endloop
  endfacet
  facet normal -1 0 0
    outer loop
      vertex 4.4 22.4 9.6
      vertex 4.4 31.3668 10.4175
      vertex 4.4 30.9209 10.0011
    endloop
  endfacet
  facet normal -1 0 0
    outer loop
      vertex 4.4 32.1993 28.691
      vertex 4.4 22.4 30.4
      vertex 4.4 31.7932 29.1462
    endloop
  endfacet
  facet normal -1 0 0
    outer loop
      vertex 4.4 22.4 9.6
      vertex 4.4 30.9209 10.0011
      vertex 4.4 30.4566 9.60547
    endloop
  endfacet
  facet normal -1 0 0
    outer loop
      vertex 4.4 31.7932 29.1462
      vertex 4.4 22.4 30.4
      vertex 4.4 31.3668 29.5825
    endloop
  endfacet
  facet normal -1 0 0
    outer loop
      vertex 4.4 22.4 9.6
      vertex 4.4 30.4566 9.60547
      vertex 4.4 29.9747 9.23134
    endloop
  endfacet
  facet normal -1 0 0
    outer loop
      vertex 4.4 31.3668 29.5825
      vertex 4.4 22.4 30.4
      vertex 4.4 30.9209 29.9989
    endloop
  endfacet
  facet normal -1 0 0
    outer loop
      vertex 4.4 22.4 9.6
      vertex 4.4 29.9747 9.23134
      vertex 4.4 29.4763 8.87954
    endloop
  endfacet
  facet normal -1 0 0
    outer loop
      vertex 4.4 30.9209 29.9989
      vertex 4.4 22.4 30.4
      vertex 4.4 30.4566 30.3945
    endloop
  endfacet
  facet normal -1 0 0
    outer loop
      vertex 4.4 22.4 9.6
      vertex 4.4 29.4763 8.87954
      vertex 4.4 28.9624 8.55078
    endloop
  endfacet
  facet normal -1 0 0
    outer loop
      vertex 4.4 30.4566 30.3945
      vertex 4.4 22.4 30.4
      vertex 4.4 29.9747 30.7687
    endloop
  endfacet
  facet normal -1 0 0
    outer loop
      vertex 4.4 22.4 9.6
      vertex 4.4 28.9624 8.55078
      vertex 4.4 28.4341 8.24575
    endloop
  endfacet
  facet normal -1 -0 0
    outer loop
      vertex 4.4 29.9747 30.7687
      vertex 4.4 22.4 30.4
      vertex 4.4 29.4763 31.1205
    endloop
  endfacet
  facet normal -1 0 0
    outer loop
      vertex 4.4 22.4 9.6
      vertex 4.4 28.4341 8.24575
      vertex 4.4 27.8924 7.96509
    endloop
  endfacet
  facet normal -1 -0 0
    outer loop
      vertex 4.4 29.4763 31.1205
      vertex 4.4 22.4 30.4
      vertex 4.4 28.9624 31.4492
    endloop
  endfacet
  facet normal -1 0 0
    outer loop
      vertex 4.4 22.4 9.6
      vertex 4.4 27.8924 7.96509
      vertex 4.4 27.3386 7.70937
    endloop
  endfacet
  facet normal -1 -0 0
    outer loop
      vertex 4.4 28.9624 31.4492
      vertex 4.4 22.4 30.4
      vertex 4.4 28.4341 31.7542
    endloop
  endfacet
  facet normal -1 0 0
    outer loop
      vertex 4.4 22.4 9.6
      vertex 4.4 27.3386 7.70937
      vertex 4.4 26.7736 7.47912
    endloop
  endfacet
  facet normal -1 -0 0
    outer loop
      vertex 4.4 28.4341 31.7542
      vertex 4.4 22.4 30.4
      vertex 4.4 27.8924 32.0349
    endloop
  endfacet
  facet normal -1 0 0
    outer loop
      vertex 4.4 22.4 9.6
      vertex 4.4 26.7736 7.47912
      vertex 4.4 26.1988 7.27483
    endloop
  endfacet
  facet normal -1 -0 0
    outer loop
      vertex 4.4 27.8924 32.0349
      vertex 4.4 22.4 30.4
      vertex 4.4 27.3386 32.2906
    endloop
  endfacet
  facet normal -1 0 0
    outer loop
      vertex 4.4 22.4 9.6
      vertex 4.4 26.1988 7.27483
      vertex 4.4 25.6153 7.09691
    endloop
  endfacet
  facet normal -1 -0 0
    outer loop
      vertex 4.4 27.3386 32.2906
      vertex 4.4 22.4 30.4
      vertex 4.4 26.7736 32.5209
    endloop
  endfacet
  facet normal -1 0 0
    outer loop
      vertex 4.4 22.4 9.6
      vertex 4.4 25.6153 7.09691
      vertex 4.4 25.0243 6.94573
    endloop
  endfacet
  facet normal -1 -0 0
    outer loop
      vertex 4.4 26.7736 32.5209
      vertex 4.4 22.4 30.4
      vertex 4.4 26.1988 32.7252
    endloop
  endfacet
  facet normal -1 0 0
    outer loop
      vertex 4.4 22.4 9.6
      vertex 4.4 25.0243 6.94573
      vertex 4.4 24.427 6.82161
    endloop
  endfacet
  facet normal -1 -0 0
    outer loop
      vertex 4.4 26.1988 32.7252
      vertex 4.4 22.4 30.4
      vertex 4.4 25.6153 32.9031
    endloop
  endfacet
  facet normal -1 0 0
    outer loop
      vertex 4.4 22.4 9.6
      vertex 4.4 24.427 6.82161
      vertex 4.4 23.8246 6.72481
    endloop
  endfacet
  facet normal -1 -0 0
    outer loop
      vertex 4.4 25.6153 32.9031
      vertex 4.4 22.4 30.4
      vertex 4.4 25.0243 33.0543
    endloop
  endfacet
  facet normal -1 0 0
    outer loop
      vertex 4.4 22.4 9.6
      vertex 4.4 23.8246 6.72481
      vertex 4.4 23.2185 6.65552
    endloop
  endfacet
  facet normal -1 -0 0
    outer loop
      vertex 4.4 25.0243 33.0543
      vertex 4.4 22.4 30.4
      vertex 4.4 24.427 33.1784
    endloop
  endfacet
  facet normal -1 0 0
    outer loop
      vertex 4.4 22.4 9.6
      vertex 4.4 23.2185 6.65552
      vertex 4.4 22.6099 6.61389
    endloop
  endfacet
  facet normal -1 -0 0
    outer loop
      vertex 4.4 24.427 33.1784
      vertex 4.4 22.4 30.4
      vertex 4.4 23.8246 33.2752
    endloop
  endfacet
  facet normal -1 -0 0
    outer loop
      vertex 4.4 23.8246 33.2752
      vertex 4.4 22.4 30.4
      vertex 4.4 23.2185 33.3445
    endloop
  endfacet
  facet normal -1 0 0
    outer loop
      vertex 4.4 22 6.6
      vertex 4.4 22.4 9.6
      vertex 4.4 22.6099 6.61389
    endloop
  endfacet
  facet normal -1 0 0
    outer loop
      vertex 4.4 -2 9.6
      vertex 4.4 22 6.6
      vertex 4.4 -2 6.6
    endloop
  endfacet
  facet normal -1 0 0
    outer loop
      vertex 4.4 22 6.6
      vertex 4.4 -2 9.6
      vertex 4.4 22.4 9.6
    endloop
  endfacet
  facet normal -1 -0 0
    outer loop
      vertex 4.4 23.2185 33.3445
      vertex 4.4 22.4 30.4
      vertex 4.4 22.6099 33.3861
    endloop
  endfacet
  facet normal -1 0 0
    outer loop
      vertex 4.4 22.4 30.4
      vertex 4.4 22 33.4
      vertex 4.4 22.6099 33.3861
    endloop
  endfacet
  facet normal -1 0 0
    outer loop
      vertex 4.4 -2 30.4
      vertex 4.4 22 33.4
      vertex 4.4 22.4 30.4
    endloop
  endfacet
  facet normal -1 -0 0
    outer loop
      vertex 4.4 22 33.4
      vertex 4.4 -2 30.4
      vertex 4.4 -2 33.4
    endloop
  endfacet
  facet normal -0 0 1
    outer loop
      vertex 4.4 22.4 9.6
      vertex 7.25 -2 9.6
      vertex 7.63125 22.4 9.6
    endloop
  endfacet
  facet normal 0 0 1
    outer loop
      vertex 7.25 -2 9.6
      vertex 4.4 22.4 9.6
      vertex 4.4 -2 9.6
    endloop
  endfacet
  facet normal 0 -1 0
    outer loop
      vertex 4.4 22.4 9.6
      vertex 7.63125 22.4 30.4
      vertex 4.4 22.4 30.4
    endloop
  endfacet
  facet normal 0 -1 -0
    outer loop
      vertex 7.63125 22.4 30.4
      vertex 4.4 22.4 9.6
      vertex 7.63125 22.4 9.6
    endloop
  endfacet
  facet normal 0 0 -1
    outer loop
      vertex 7.25 -2 0
      vertex -18 6 0
      vertex 0 6 0
    endloop
  endfacet
  facet normal 0 0 -1
    outer loop
      vertex -26 -2 0
      vertex -18 6 0
      vertex 7.25 -2 0
    endloop
  endfacet
  facet normal 0 0 -1
    outer loop
      vertex -26 16 0
      vertex -18 6 0
      vertex -26 -2 0
    endloop
  endfacet
  facet normal 0 0 -1
    outer loop
      vertex -18 6 0
      vertex -26 16 0
      vertex -18 16 0
    endloop
  endfacet
  facet normal 0 0 -1
    outer loop
      vertex 7.98438 45 0
      vertex 8 48 0
      vertex 8 45 0
    endloop
  endfacet
  facet normal 0 0 -1
    outer loop
      vertex 0 6 0
      vertex 7.98438 45 0
      vertex 7.25 -2 0
    endloop
  endfacet
  facet normal 0 0 -1
    outer loop
      vertex 0 48 0
      vertex 7.98438 45 0
      vertex 0 6 0
    endloop
  endfacet
  facet normal 0 0 -1
    outer loop
      vertex 7.98438 45 0
      vertex 0 48 0
      vertex 8 48 0
    endloop
  endfacet
  facet normal -1 0 0
    outer loop
      vertex -26 -2 0
      vertex -26 16 40
      vertex -26 16 0
    endloop
  endfacet
  facet normal -1 -0 0
    outer loop
      vertex -26 16 40
      vertex -26 -2 0
      vertex -26 -2 40
    endloop
  endfacet
  facet normal 0 1 -0
    outer loop
      vertex -18 16 0
      vertex -26 16 40
      vertex -18 16 40
    endloop
  endfacet
  facet normal 0 1 0
    outer loop
      vertex -26 16 40
      vertex -18 16 0
      vertex -26 16 0
    endloop
  endfacet
  facet normal 1 -0 0
    outer loop
      vertex -18 6 40
      vertex -18 16 0
      vertex -18 16 40
    endloop
  endfacet
  facet normal 1 0 0
    outer loop
      vertex -18 16 0
      vertex -18 6 40
      vertex -18 6 0
    endloop
  endfacet
  facet normal 0 1 0
    outer loop
      vertex 0 6 6.6
      vertex 0 6 0
      vertex -0.4 6 6.6
    endloop
  endfacet
  facet normal 0 1 0
    outer loop
      vertex -0.4 6 33.4
      vertex 0 6 40
      vertex 0 6 33.4
    endloop
  endfacet
  facet normal 0 1 0
    outer loop
      vertex 0 6 40
      vertex -0.4 6 33.4
      vertex -18 6 40
    endloop
  endfacet
  facet normal 0 1 -0
    outer loop
      vertex -0.4 6 6.6
      vertex -18 6 40
      vertex -0.4 6 33.4
    endloop
  endfacet
  facet normal 0 1 0
    outer loop
      vertex -18 6 0
      vertex -0.4 6 6.6
      vertex 0 6 0
    endloop
  endfacet
  facet normal 0 1 0
    outer loop
      vertex -0.4 6 6.6
      vertex -18 6 0
      vertex -18 6 40
    endloop
  endfacet
  facet normal -1 0 0
    outer loop
      vertex 0 48 0
      vertex 0 43.2456 19.8587
      vertex 0 48 40
    endloop
  endfacet
  facet normal -1 0 0
    outer loop
      vertex 0 48 0
      vertex 0 43.2101 19.5784
      vertex 0 43.2456 19.8587
    endloop
  endfacet
  facet normal -1 0 0
    outer loop
      vertex 0 48 0
      vertex 0 43.1399 19.3047
      vertex 0 43.2101 19.5784
    endloop
  endfacet
  facet normal -1 0 0
    outer loop
      vertex 0 48 0
      vertex 0 43.0359 19.042
      vertex 0 43.1399 19.3047
    endloop
  endfacet
  facet normal -1 0 0
    outer loop
      vertex 0 48 0
      vertex 0 42.8997 18.7944
      vertex 0 43.0359 19.042
    endloop
  endfacet
  facet normal -1 0 0
    outer loop
      vertex 0 48 0
      vertex 0 42.7337 18.5658
      vertex 0 42.8997 18.7944
    endloop
  endfacet
  facet normal -1 0 0
    outer loop
      vertex 0 48 0
      vertex 0 42.5402 18.3598
      vertex 0 42.7337 18.5658
    endloop
  endfacet
  facet normal -1 0 0
    outer loop
      vertex 0 48 0
      vertex 0 42.3225 18.1797
      vertex 0 42.5402 18.3598
    endloop
  endfacet
  facet normal -1 0 0
    outer loop
      vertex 0 48 0
      vertex 0 42.0839 18.0283
      vertex 0 42.3225 18.1797
    endloop
  endfacet
  facet normal -1 0 0
    outer loop
      vertex 0 48 0
      vertex 0 41.8283 17.908
      vertex 0 42.0839 18.0283
    endloop
  endfacet
  facet normal -1 0 0
    outer loop
      vertex 0 48 0
      vertex 0 41.5596 17.8207
      vertex 0 41.8283 17.908
    endloop
  endfacet
  facet normal -1 0 0
    outer loop
      vertex 0 48 0
      vertex 0 41.282 17.7677
      vertex 0 41.5596 17.8207
    endloop
  endfacet
  facet normal -1 0 0
    outer loop
      vertex 0 33.6047 13.3
      vertex 0 41.282 17.7677
      vertex 0 48 0
    endloop
  endfacet
  facet normal -1 0 0
    outer loop
      vertex 0 41.282 17.7677
      vertex 0 33.6047 13.3
      vertex 0 41 17.75
    endloop
  endfacet
  facet normal -1 0 -0
    outer loop
      vertex 0 33.8977 13.8351
      vertex 0 41 17.75
      vertex 0 33.6047 13.3
    endloop
  endfacet
  facet normal -1 -0 0
    outer loop
      vertex 0 41 17.75
      vertex 0 33.8977 13.8351
      vertex 0 40.718 17.7677
    endloop
  endfacet
  facet normal -1 0 -0
    outer loop
      vertex 0 34.1659 14.383
      vertex 0 40.718 17.7677
      vertex 0 33.8977 13.8351
    endloop
  endfacet
  facet normal -1 -0 0
    outer loop
      vertex 0 40.718 17.7677
      vertex 0 34.1659 14.383
      vertex 0 40.4404 17.8207
    endloop
  endfacet
  facet normal -1 0 -0
    outer loop
      vertex 0 34.409 14.9426
      vertex 0 40.4404 17.8207
      vertex 0 34.1659 14.383
    endloop
  endfacet
  facet normal -1 0 -0
    outer loop
      vertex 0 34.6263 15.5126
      vertex 0 40.1717 17.908
      vertex 0 34.409 14.9426
    endloop
  endfacet
  facet normal -1 -0 0
    outer loop
      vertex 0 40.1717 17.908
      vertex 0 34.6263 15.5126
      vertex 0 39.9161 18.0283
    endloop
  endfacet
  facet normal -1 0 -0
    outer loop
      vertex 0 34.8175 16.0919
      vertex 0 39.9161 18.0283
      vertex 0 34.6263 15.5126
    endloop
  endfacet
  facet normal -1 -0 0
    outer loop
      vertex 0 38.7544 19.8587
      vertex 0 35.3965 19.695
      vertex 0 38.7544 20.1413
    endloop
  endfacet
  facet normal -1 0 0
    outer loop
      vertex 0 38.7899 19.5784
      vertex 0 35.3965 19.695
      vertex 0 38.7544 19.8587
    endloop
  endfacet
  facet normal -1 0 0
    outer loop
      vertex 0 35.3688 19.0856
      vertex 0 38.7899 19.5784
      vertex 0 38.8601 19.3047
    endloop
  endfacet
  facet normal -1 0 0
    outer loop
      vertex 0 35.3133 18.478
      vertex 0 38.8601 19.3047
      vertex 0 38.9641 19.042
    endloop
  endfacet
  facet normal -1 0 -0
    outer loop
      vertex 0 34.982 16.6794
      vertex 0 39.6775 18.1797
      vertex 0 34.8175 16.0919
    endloop
  endfacet
  facet normal -1 -0 0
    outer loop
      vertex 0 38.7899 19.5784
      vertex 0 35.3688 19.0856
      vertex 0 35.3965 19.695
    endloop
  endfacet
  facet normal -1 0 0
    outer loop
      vertex 0 38.8601 19.3047
      vertex 0 35.3133 18.478
      vertex 0 35.3688 19.0856
    endloop
  endfacet
  facet normal -1 -0 0
    outer loop
      vertex 0 39.1003 18.7944
      vertex 0 35.3133 18.478
      vertex 0 38.9641 19.042
    endloop
  endfacet
  facet normal -1 0 -0
    outer loop
      vertex 0 35.3133 18.478
      vertex 0 39.1003 18.7944
      vertex 0 35.2302 17.8737
    endloop
  endfacet
  facet normal -1 -0 0
    outer loop
      vertex 0 39.2663 18.5658
      vertex 0 35.2302 17.8737
      vertex 0 39.1003 18.7944
    endloop
  endfacet
  facet normal -1 0 -0
    outer loop
      vertex 0 35.2302 17.8737
      vertex 0 39.2663 18.5658
      vertex 0 35.1197 17.2737
    endloop
  endfacet
  facet normal -1 -0 0
    outer loop
      vertex 0 39.4598 18.3598
      vertex 0 35.1197 17.2737
      vertex 0 39.2663 18.5658
    endloop
  endfacet
  facet normal -1 0 -0
    outer loop
      vertex 0 35.1197 17.2737
      vertex 0 39.4598 18.3598
      vertex 0 34.982 16.6794
    endloop
  endfacet
  facet normal -1 -0 0
    outer loop
      vertex 0 39.6775 18.1797
      vertex 0 34.982 16.6794
      vertex 0 39.4598 18.3598
    endloop
  endfacet
  facet normal -1 -0 0
    outer loop
      vertex 0 39.9161 18.0283
      vertex 0 34.8175 16.0919
      vertex 0 39.6775 18.1797
    endloop
  endfacet
  facet normal -1 -0 0
    outer loop
      vertex 0 40.4404 17.8207
      vertex 0 34.409 14.9426
      vertex 0 40.1717 17.908
    endloop
  endfacet
  facet normal -1 0 0
    outer loop
      vertex 0 48 0
      vertex 0 33.2878 12.7788
      vertex 0 33.6047 13.3
    endloop
  endfacet
  facet normal -1 0 0
    outer loop
      vertex 0 48 0
      vertex 0 32.9474 12.2725
      vertex 0 33.2878 12.7788
    endloop
  endfacet
  facet normal -1 0 0
    outer loop
      vertex 0 48 0
      vertex 0 32.5843 11.7822
      vertex 0 32.9474 12.2725
    endloop
  endfacet
  facet normal -1 0 0
    outer loop
      vertex 0 48 0
      vertex 0 32.1993 11.309
      vertex 0 32.5843 11.7822
    endloop
  endfacet
  facet normal -1 0 0
    outer loop
      vertex 0 48 0
      vertex 0 31.7932 10.8538
      vertex 0 32.1993 11.309
    endloop
  endfacet
  facet normal -1 0 0
    outer loop
      vertex 0 48 0
      vertex 0 31.3668 10.4175
      vertex 0 31.7932 10.8538
    endloop
  endfacet
  facet normal -1 0 0
    outer loop
      vertex 0 48 0
      vertex 0 30.9209 10.0011
      vertex 0 31.3668 10.4175
    endloop
  endfacet
  facet normal -1 0 0
    outer loop
      vertex 0 48 0
      vertex 0 30.4566 9.60547
      vertex 0 30.9209 10.0011
    endloop
  endfacet
  facet normal -1 0 0
    outer loop
      vertex 0 48 0
      vertex 0 29.9747 9.23134
      vertex 0 30.4566 9.60547
    endloop
  endfacet
  facet normal -1 0 0
    outer loop
      vertex 0 48 0
      vertex 0 29.4763 8.87954
      vertex 0 29.9747 9.23134
    endloop
  endfacet
  facet normal -1 0 0
    outer loop
      vertex 0 48 0
      vertex 0 28.9624 8.55078
      vertex 0 29.4763 8.87954
    endloop
  endfacet
  facet normal -1 0 0
    outer loop
      vertex 0 48 0
      vertex 0 28.4341 8.24575
      vertex 0 28.9624 8.55078
    endloop
  endfacet
  facet normal -1 0 0
    outer loop
      vertex 0 48 0
      vertex 0 27.8924 7.96509
      vertex 0 28.4341 8.24575
    endloop
  endfacet
  facet normal -1 0 0
    outer loop
      vertex 0 48 0
      vertex 0 27.3386 7.70937
      vertex 0 27.8924 7.96509
    endloop
  endfacet
  facet normal -1 0 0
    outer loop
      vertex 0 48 0
      vertex 0 26.7736 7.47912
      vertex 0 27.3386 7.70937
    endloop
  endfacet
  facet normal -1 0 0
    outer loop
      vertex 0 48 0
      vertex 0 26.1988 7.27483
      vertex 0 26.7736 7.47912
    endloop
  endfacet
  facet normal -1 0 0
    outer loop
      vertex 0 48 0
      vertex 0 25.6153 7.09691
      vertex 0 26.1988 7.27483
    endloop
  endfacet
  facet normal -1 0 0
    outer loop
      vertex 0 48 0
      vertex 0 25.0243 6.94573
      vertex 0 25.6153 7.09691
    endloop
  endfacet
  facet normal -1 0 0
    outer loop
      vertex 0 48 0
      vertex 0 24.427 6.82161
      vertex 0 25.0243 6.94573
    endloop
  endfacet
  facet normal -1 0 0
    outer loop
      vertex 0 48 0
      vertex 0 23.8246 6.72481
      vertex 0 24.427 6.82161
    endloop
  endfacet
  facet normal -1 0 0
    outer loop
      vertex 0 48 0
      vertex 0 23.2185 6.65552
      vertex 0 23.8246 6.72481
    endloop
  endfacet
  facet normal -1 0 0
    outer loop
      vertex 0 6 0
      vertex 0 23.2185 6.65552
      vertex 0 48 0
    endloop
  endfacet
  facet normal -1 0 0
    outer loop
      vertex 0 23.2185 6.65552
      vertex 0 6 0
      vertex 0 22.6099 6.61389
    endloop
  endfacet
  facet normal -1 0 0
    outer loop
      vertex 0 22.6099 6.61389
      vertex 0 6 0
      vertex 0 22 6.6
    endloop
  endfacet
  facet normal -1 -0 0
    outer loop
      vertex 0 22 6.6
      vertex 0 6 0
      vertex 0 6 6.6
    endloop
  endfacet
  facet normal -1 0 0
    outer loop
      vertex 0 43.2456 20.1413
      vertex 0 48 40
      vertex 0 43.2456 19.8587
    endloop
  endfacet
  facet normal -1 0 0
    outer loop
      vertex 0 43.2101 20.4216
      vertex 0 48 40
      vertex 0 43.2456 20.1413
    endloop
  endfacet
  facet normal -1 0 0
    outer loop
      vertex 0 43.1399 20.6953
      vertex 0 48 40
      vertex 0 43.2101 20.4216
    endloop
  endfacet
  facet normal -1 0 0
    outer loop
      vertex 0 43.0359 20.958
      vertex 0 48 40
      vertex 0 43.1399 20.6953
    endloop
  endfacet
  facet normal -1 0 0
    outer loop
      vertex 0 42.8997 21.2056
      vertex 0 48 40
      vertex 0 43.0359 20.958
    endloop
  endfacet
  facet normal -1 0 0
    outer loop
      vertex 0 42.7337 21.4342
      vertex 0 48 40
      vertex 0 42.8997 21.2056
    endloop
  endfacet
  facet normal -1 0 0
    outer loop
      vertex 0 42.5402 21.6402
      vertex 0 48 40
      vertex 0 42.7337 21.4342
    endloop
  endfacet
  facet normal -1 0 0
    outer loop
      vertex 0 42.3225 21.8203
      vertex 0 48 40
      vertex 0 42.5402 21.6402
    endloop
  endfacet
  facet normal -1 0 0
    outer loop
      vertex 0 42.0839 21.9717
      vertex 0 48 40
      vertex 0 42.3225 21.8203
    endloop
  endfacet
  facet normal -1 0 0
    outer loop
      vertex 0 41.8283 22.092
      vertex 0 48 40
      vertex 0 42.0839 21.9717
    endloop
  endfacet
  facet normal -1 0 0
    outer loop
      vertex 0 41.5596 22.1793
      vertex 0 48 40
      vertex 0 41.8283 22.092
    endloop
  endfacet
  facet normal -1 0 0
    outer loop
      vertex 0 41.282 22.2323
      vertex 0 48 40
      vertex 0 41.5596 22.1793
    endloop
  endfacet
  facet normal -1 0 0
    outer loop
      vertex 0 33.6047 26.7
      vertex 0 41.282 22.2323
      vertex 0 41 22.25
    endloop
  endfacet
  facet normal -1 0 0
    outer loop
      vertex 0 33.8977 26.1649
      vertex 0 41 22.25
      vertex 0 40.718 22.2323
    endloop
  endfacet
  facet normal -1 0 0
    outer loop
      vertex 0 34.1659 25.617
      vertex 0 40.718 22.2323
      vertex 0 40.4404 22.1793
    endloop
  endfacet
  facet normal -1 0 0
    outer loop
      vertex 0 34.409 25.0574
      vertex 0 40.4404 22.1793
      vertex 0 40.1717 22.092
    endloop
  endfacet
  facet normal -1 0 0
    outer loop
      vertex 0 34.6263 24.4874
      vertex 0 40.1717 22.092
      vertex 0 39.9161 21.9717
    endloop
  endfacet
  facet normal -1 0 0
    outer loop
      vertex 0 34.8175 23.9081
      vertex 0 39.9161 21.9717
      vertex 0 39.6775 21.8203
    endloop
  endfacet
  facet normal -1 0 0
    outer loop
      vertex 0 34.982 23.3206
      vertex 0 39.6775 21.8203
      vertex 0 39.4598 21.6402
    endloop
  endfacet
  facet normal -1 0 0
    outer loop
      vertex 0 35.1197 22.7263
      vertex 0 39.4598 21.6402
      vertex 0 39.2663 21.4342
    endloop
  endfacet
  facet normal -1 0 0
    outer loop
      vertex 0 35.2302 22.1263
      vertex 0 39.2663 21.4342
      vertex 0 39.1003 21.2056
    endloop
  endfacet
  facet normal -1 0 0
    outer loop
      vertex 0 35.3133 21.522
      vertex 0 39.1003 21.2056
      vertex 0 38.9641 20.958
    endloop
  endfacet
  facet normal -1 0 0
    outer loop
      vertex 0 35.3965 20.305
      vertex 0 38.7544 20.1413
      vertex 0 35.3965 19.695
    endloop
  endfacet
  facet normal -1 0 0
    outer loop
      vertex 0 38.7544 20.1413
      vertex 0 35.3965 20.305
      vertex 0 38.7899 20.4216
    endloop
  endfacet
  facet normal -1 0 0
    outer loop
      vertex 0 35.3688 20.9144
      vertex 0 38.7899 20.4216
      vertex 0 35.3965 20.305
    endloop
  endfacet
  facet normal -1 0 0
    outer loop
      vertex 0 38.7899 20.4216
      vertex 0 35.3688 20.9144
      vertex 0 38.8601 20.6953
    endloop
  endfacet
  facet normal -1 0 0
    outer loop
      vertex 0 35.3133 21.522
      vertex 0 38.8601 20.6953
      vertex 0 35.3688 20.9144
    endloop
  endfacet
  facet normal -1 0 0
    outer loop
      vertex 0 38.8601 20.6953
      vertex 0 35.3133 21.522
      vertex 0 38.9641 20.958
    endloop
  endfacet
  facet normal -1 0 0
    outer loop
      vertex 0 39.1003 21.2056
      vertex 0 35.3133 21.522
      vertex 0 35.2302 22.1263
    endloop
  endfacet
  facet normal -1 0 0
    outer loop
      vertex 0 39.2663 21.4342
      vertex 0 35.2302 22.1263
      vertex 0 35.1197 22.7263
    endloop
  endfacet
  facet normal -1 0 0
    outer loop
      vertex 0 39.4598 21.6402
      vertex 0 35.1197 22.7263
      vertex 0 34.982 23.3206
    endloop
  endfacet
  facet normal -1 0 0
    outer loop
      vertex 0 39.6775 21.8203
      vertex 0 34.982 23.3206
      vertex 0 34.8175 23.9081
    endloop
  endfacet
  facet normal -1 0 0
    outer loop
      vertex 0 39.9161 21.9717
      vertex 0 34.8175 23.9081
      vertex 0 34.6263 24.4874
    endloop
  endfacet
  facet normal -1 0 0
    outer loop
      vertex 0 40.1717 22.092
      vertex 0 34.6263 24.4874
      vertex 0 34.409 25.0574
    endloop
  endfacet
  facet normal -1 0 0
    outer loop
      vertex 0 40.4404 22.1793
      vertex 0 34.409 25.0574
      vertex 0 34.1659 25.617
    endloop
  endfacet
  facet normal -1 0 0
    outer loop
      vertex 0 40.718 22.2323
      vertex 0 34.1659 25.617
      vertex 0 33.8977 26.1649
    endloop
  endfacet
  facet normal -1 0 0
    outer loop
      vertex 0 41 22.25
      vertex 0 33.8977 26.1649
      vertex 0 33.6047 26.7
    endloop
  endfacet
  facet normal -1 0 0
    outer loop
      vertex 0 41.282 22.2323
      vertex 0 33.6047 26.7
      vertex 0 48 40
    endloop
  endfacet
  facet normal -1 0 0
    outer loop
      vertex 0 33.2878 27.2212
      vertex 0 48 40
      vertex 0 33.6047 26.7
    endloop
  endfacet
  facet normal -1 0 0
    outer loop
      vertex 0 32.9474 27.7275
      vertex 0 48 40
      vertex 0 33.2878 27.2212
    endloop
  endfacet
  facet normal -1 0 0
    outer loop
      vertex 0 32.5843 28.2178
      vertex 0 48 40
      vertex 0 32.9474 27.7275
    endloop
  endfacet
  facet normal -1 0 0
    outer loop
      vertex 0 32.1993 28.691
      vertex 0 48 40
      vertex 0 32.5843 28.2178
    endloop
  endfacet
  facet normal -1 0 0
    outer loop
      vertex 0 31.7932 29.1462
      vertex 0 48 40
      vertex 0 32.1993 28.691
    endloop
  endfacet
  facet normal -1 0 0
    outer loop
      vertex 0 31.3668 29.5825
      vertex 0 48 40
      vertex 0 31.7932 29.1462
    endloop
  endfacet
  facet normal -1 0 0
    outer loop
      vertex 0 30.9209 29.9989
      vertex 0 48 40
      vertex 0 31.3668 29.5825
    endloop
  endfacet
  facet normal -1 0 0
    outer loop
      vertex 0 30.4566 30.3945
      vertex 0 48 40
      vertex 0 30.9209 29.9989
    endloop
  endfacet
  facet normal -1 0 0
    outer loop
      vertex 0 29.9747 30.7687
      vertex 0 48 40
      vertex 0 30.4566 30.3945
    endloop
  endfacet
  facet normal -1 0 0
    outer loop
      vertex 0 29.4763 31.1205
      vertex 0 48 40
      vertex 0 29.9747 30.7687
    endloop
  endfacet
  facet normal -1 0 0
    outer loop
      vertex 0 28.9624 31.4492
      vertex 0 48 40
      vertex 0 29.4763 31.1205
    endloop
  endfacet
  facet normal -1 0 0
    outer loop
      vertex 0 28.4341 31.7542
      vertex 0 48 40
      vertex 0 28.9624 31.4492
    endloop
  endfacet
  facet normal -1 0 0
    outer loop
      vertex 0 27.8924 32.0349
      vertex 0 48 40
      vertex 0 28.4341 31.7542
    endloop
  endfacet
  facet normal -1 0 0
    outer loop
      vertex 0 27.3386 32.2906
      vertex 0 48 40
      vertex 0 27.8924 32.0349
    endloop
  endfacet
  facet normal -1 0 0
    outer loop
      vertex 0 26.7736 32.5209
      vertex 0 48 40
      vertex 0 27.3386 32.2906
    endloop
  endfacet
  facet normal -1 0 0
    outer loop
      vertex 0 26.1988 32.7252
      vertex 0 48 40
      vertex 0 26.7736 32.5209
    endloop
  endfacet
  facet normal -1 0 0
    outer loop
      vertex 0 25.6153 32.9031
      vertex 0 48 40
      vertex 0 26.1988 32.7252
    endloop
  endfacet
  facet normal -1 0 0
    outer loop
      vertex 0 25.0243 33.0543
      vertex 0 48 40
      vertex 0 25.6153 32.9031
    endloop
  endfacet
  facet normal -1 0 0
    outer loop
      vertex 0 24.427 33.1784
      vertex 0 48 40
      vertex 0 25.0243 33.0543
    endloop
  endfacet
  facet normal -1 0 0
    outer loop
      vertex 0 23.8246 33.2752
      vertex 0 48 40
      vertex 0 24.427 33.1784
    endloop
  endfacet
  facet normal -1 0 0
    outer loop
      vertex 0 23.2185 33.3445
      vertex 0 48 40
      vertex 0 23.8246 33.2752
    endloop
  endfacet
  facet normal -1 0 0
    outer loop
      vertex 0 6 40
      vertex 0 23.2185 33.3445
      vertex 0 22.6099 33.3861
    endloop
  endfacet
  facet normal -1 0 0
    outer loop
      vertex 0 6 40
      vertex 0 22.6099 33.3861
      vertex 0 22 33.4
    endloop
  endfacet
  facet normal -1 0 0
    outer loop
      vertex 0 6 40
      vertex 0 22 33.4
      vertex 0 6 33.4
    endloop
  endfacet
  facet normal -1 0 0
    outer loop
      vertex 0 23.2185 33.3445
      vertex 0 6 40
      vertex 0 48 40
    endloop
  endfacet
  facet normal 0 -1 0
    outer loop
      vertex 7.98438 45 39.5932
      vertex 8 45 40
      vertex 7.98438 45 40
    endloop
  endfacet
  facet normal 0 -1 0
    outer loop
      vertex 7.98438 45 0.40678
      vertex 8 45 40
      vertex 7.98438 45 39.5932
    endloop
  endfacet
  facet normal 0 -1 0
    outer loop
      vertex 8 45 0
      vertex 7.98438 45 0.40678
      vertex 7.98438 45 0
    endloop
  endfacet
  facet normal 0 -1 0
    outer loop
      vertex 7.98438 45 0.40678
      vertex 8 45 0
      vertex 8 45 40
    endloop
  endfacet
  facet normal 0 1 -0
    outer loop
      vertex 8 48 0
      vertex 0 48 40
      vertex 8 48 40
    endloop
  endfacet
  facet normal 0 1 0
    outer loop
      vertex 0 48 40
      vertex 8 48 0
      vertex 0 48 0
    endloop
  endfacet
  facet normal 1 -0 0
    outer loop
      vertex 8 45 40
      vertex 8 48 0
      vertex 8 48 40
    endloop
  endfacet
  facet normal 1 0 0
    outer loop
      vertex 8 48 0
      vertex 8 45 40
      vertex 8 45 0
    endloop
  endfacet
  facet normal -0 0.535776 0.84436
    outer loop
      vertex 0 39.9161 18.0283
      vertex 7.90121 39.6775 18.1797
      vertex 7.90494 39.9161 18.0283
    endloop
  endfacet
  facet normal 0 0.535776 0.84436
    outer loop
      vertex 7.90121 39.6775 18.1797
      vertex 0 39.9161 18.0283
      vertex 0 39.6775 18.1797
    endloop
  endfacet
  facet normal 0 -0.187535 -0.982258
    outer loop
      vertex 0 41.5596 22.1793
      vertex 7.92628 41.282 22.2323
      vertex 0 41.282 22.2323
    endloop
  endfacet
  facet normal 0 -0.187535 -0.982258
    outer loop
      vertex 7.92628 41.282 22.2323
      vertex 0 41.5596 22.1793
      vertex 7.93062 41.5596 22.1793
    endloop
  endfacet
  facet normal 0 0.809164 -0.587582
    outer loop
      vertex 7.89219 39.1003 21.2056
      vertex 0 39.2663 21.4342
      vertex 7.89479 39.2663 21.4342
    endloop
  endfacet
  facet normal 0 0.809164 -0.587582
    outer loop
      vertex 0 39.2663 21.4342
      vertex 7.89219 39.1003 21.2056
      vertex 0 39.1003 21.2056
    endloop
  endfacet
  facet normal 0 0.992075 0.125646
    outer loop
      vertex 7.88734 38.7899 19.5784
      vertex 0 38.7544 19.8587
      vertex 7.88679 38.7544 19.8587
    endloop
  endfacet
  facet normal 0 0.992075 0.125646
    outer loop
      vertex 0 38.7544 19.8587
      vertex 7.88734 38.7899 19.5784
      vertex 0 38.7899 19.5784
    endloop
  endfacet
  facet normal 0 -0.187535 0.982258
    outer loop
      vertex 0 41.5596 17.8207
      vertex 7.92628 41.282 17.7677
      vertex 7.93062 41.5596 17.8207
    endloop
  endfacet
  facet normal 0 -0.187535 0.982258
    outer loop
      vertex 7.92628 41.282 17.7677
      vertex 0 41.5596 17.8207
      vertex 0 41.282 17.7677
    endloop
  endfacet
  facet normal 0 -0.308998 0.951063
    outer loop
      vertex 0 41.8283 17.908
      vertex 7.93062 41.5596 17.8207
      vertex 7.93482 41.8283 17.908
    endloop
  endfacet
  facet normal 0 -0.308998 0.951063
    outer loop
      vertex 7.93062 41.5596 17.8207
      vertex 0 41.8283 17.908
      vertex 0 41.5596 17.8207
    endloop
  endfacet
  facet normal -0 0.425848 0.904795
    outer loop
      vertex 0 40.1717 17.908
      vertex 7.90494 39.9161 18.0283
      vertex 7.90893 40.1717 17.908
    endloop
  endfacet
  facet normal 0 0.425848 0.904795
    outer loop
      vertex 7.90494 39.9161 18.0283
      vertex 0 40.1717 17.908
      vertex 0 39.9161 18.0283
    endloop
  endfacet
  facet normal 0 0.929789 -0.368093
    outer loop
      vertex 7.88844 38.8601 20.6953
      vertex 0 38.9641 20.958
      vertex 7.89006 38.9641 20.958
    endloop
  endfacet
  facet normal 0 0.929789 -0.368093
    outer loop
      vertex 0 38.9641 20.958
      vertex 7.88844 38.8601 20.6953
      vertex 0 38.8601 20.6953
    endloop
  endfacet
  facet normal 0 -0.992075 0.125646
    outer loop
      vertex 0 43.2101 19.5784
      vertex 7.95696 43.2456 19.8587
      vertex 0 43.2456 19.8587
    endloop
  endfacet
  facet normal 0 -0.992075 0.125646
    outer loop
      vertex 7.95696 43.2456 19.8587
      vertex 0 43.2101 19.5784
      vertex 7.95641 43.2101 19.5784
    endloop
  endfacet
  facet normal 0 -0.876186 0.481973
    outer loop
      vertex 0 42.8997 18.7944
      vertex 7.95369 43.0359 19.042
      vertex 0 43.0359 19.042
    endloop
  endfacet
  facet normal 0 -0.876186 0.481973
    outer loop
      vertex 7.95369 43.0359 19.042
      vertex 0 42.8997 18.7944
      vertex 7.95156 42.8997 18.7944
    endloop
  endfacet
  facet normal 0 -0.308998 -0.951063
    outer loop
      vertex 0 41.8283 22.092
      vertex 7.93062 41.5596 22.1793
      vertex 0 41.5596 22.1793
    endloop
  endfacet
  facet normal 0 -0.308998 -0.951063
    outer loop
      vertex 7.93062 41.5596 22.1793
      vertex 0 41.8283 22.092
      vertex 7.93482 41.8283 22.092
    endloop
  endfacet
  facet normal 0 -0.0626427 0.998036
    outer loop
      vertex 0 41.282 17.7677
      vertex 7.92188 41 17.75
      vertex 7.92628 41.282 17.7677
    endloop
  endfacet
  facet normal 0 -0.0626427 0.998036
    outer loop
      vertex 7.92188 41 17.75
      vertex 0 41.282 17.7677
      vertex 0 41 17.75
    endloop
  endfacet
  facet normal -0 0.187535 0.982258
    outer loop
      vertex 0 40.718 17.7677
      vertex 7.91313 40.4404 17.8207
      vertex 7.91747 40.718 17.7677
    endloop
  endfacet
  facet normal 0 0.187535 0.982258
    outer loop
      vertex 7.91313 40.4404 17.8207
      vertex 0 40.718 17.7677
      vertex 0 40.4404 17.8207
    endloop
  endfacet
  facet normal 0 0.187535 -0.982258
    outer loop
      vertex 0 40.718 22.2323
      vertex 7.91313 40.4404 22.1793
      vertex 0 40.4404 22.1793
    endloop
  endfacet
  facet normal 0 0.187535 -0.982258
    outer loop
      vertex 7.91313 40.4404 22.1793
      vertex 0 40.718 22.2323
      vertex 7.91747 40.718 22.2323
    endloop
  endfacet
  facet normal 0 -1 0
    outer loop
      vertex 0 43.2456 19.8587
      vertex 7.95696 43.2456 20.1413
      vertex 0 43.2456 20.1413
    endloop
  endfacet
  facet normal 0 -1 -0
    outer loop
      vertex 7.95696 43.2456 20.1413
      vertex 0 43.2456 19.8587
      vertex 7.95696 43.2456 19.8587
    endloop
  endfacet
  facet normal 0 -0.929789 -0.368093
    outer loop
      vertex 0 43.1399 20.6953
      vertex 7.95369 43.0359 20.958
      vertex 0 43.0359 20.958
    endloop
  endfacet
  facet normal 0 -0.929789 -0.368093
    outer loop
      vertex 7.95369 43.0359 20.958
      vertex 0 43.1399 20.6953
      vertex 7.95531 43.1399 20.6953
    endloop
  endfacet
  facet normal 0 -0.63743 0.770508
    outer loop
      vertex 0 42.5402 18.3598
      vertex 7.94254 42.3225 18.1797
      vertex 7.94594 42.5402 18.3598
    endloop
  endfacet
  facet normal 0 -0.63743 0.770508
    outer loop
      vertex 7.94254 42.3225 18.1797
      vertex 0 42.5402 18.3598
      vertex 0 42.3225 18.1797
    endloop
  endfacet
  facet normal 0 -0.535776 0.84436
    outer loop
      vertex 0 42.3225 18.1797
      vertex 7.93881 42.0839 18.0283
      vertex 7.94254 42.3225 18.1797
    endloop
  endfacet
  facet normal 0 -0.535776 0.84436
    outer loop
      vertex 7.93881 42.0839 18.0283
      vertex 0 42.3225 18.1797
      vertex 0 42.0839 18.0283
    endloop
  endfacet
  facet normal 0 0.968646 -0.248443
    outer loop
      vertex 7.88734 38.7899 20.4216
      vertex 0 38.8601 20.6953
      vertex 7.88844 38.8601 20.6953
    endloop
  endfacet
  facet normal 0 0.968646 -0.248443
    outer loop
      vertex 0 38.8601 20.6953
      vertex 7.88734 38.7899 20.4216
      vertex 0 38.7899 20.4216
    endloop
  endfacet
  facet normal 0 0.535776 -0.84436
    outer loop
      vertex 0 39.9161 21.9717
      vertex 7.90121 39.6775 21.8203
      vertex 0 39.6775 21.8203
    endloop
  endfacet
  facet normal 0 0.535776 -0.84436
    outer loop
      vertex 7.90121 39.6775 21.8203
      vertex 0 39.9161 21.9717
      vertex 7.90494 39.9161 21.9717
    endloop
  endfacet
  facet normal 0 0.929789 0.368093
    outer loop
      vertex 7.89006 38.9641 19.042
      vertex 0 38.8601 19.3047
      vertex 7.88844 38.8601 19.3047
    endloop
  endfacet
  facet normal 0 0.929789 0.368093
    outer loop
      vertex 0 38.8601 19.3047
      vertex 7.89006 38.9641 19.042
      vertex 0 38.9641 19.042
    endloop
  endfacet
  facet normal 0 0.876186 -0.481973
    outer loop
      vertex 7.89006 38.9641 20.958
      vertex 0 39.1003 21.2056
      vertex 7.89219 39.1003 21.2056
    endloop
  endfacet
  facet normal 0 0.876186 -0.481973
    outer loop
      vertex 0 39.1003 21.2056
      vertex 7.89006 38.9641 20.958
      vertex 0 38.9641 20.958
    endloop
  endfacet
  facet normal -0 0.0626427 0.998036
    outer loop
      vertex 0 41 17.75
      vertex 7.91747 40.718 17.7677
      vertex 7.92188 41 17.75
    endloop
  endfacet
  facet normal 0 0.0626427 0.998036
    outer loop
      vertex 7.91747 40.718 17.7677
      vertex 0 41 17.75
      vertex 0 40.718 17.7677
    endloop
  endfacet
  facet normal 0 -0.63743 -0.770508
    outer loop
      vertex 0 42.5402 21.6402
      vertex 7.94254 42.3225 21.8203
      vertex 0 42.3225 21.8203
    endloop
  endfacet
  facet normal 0 -0.63743 -0.770508
    outer loop
      vertex 7.94254 42.3225 21.8203
      vertex 0 42.5402 21.6402
      vertex 7.94594 42.5402 21.6402
    endloop
  endfacet
  facet normal 0 -0.876186 -0.481973
    outer loop
      vertex 0 43.0359 20.958
      vertex 7.95156 42.8997 21.2056
      vertex 0 42.8997 21.2056
    endloop
  endfacet
  facet normal 0 -0.876186 -0.481973
    outer loop
      vertex 7.95156 42.8997 21.2056
      vertex 0 43.0359 20.958
      vertex 7.95369 43.0359 20.958
    endloop
  endfacet
  facet normal 0 0.968646 0.248443
    outer loop
      vertex 7.88844 38.8601 19.3047
      vertex 0 38.7899 19.5784
      vertex 7.88734 38.7899 19.5784
    endloop
  endfacet
  facet normal 0 0.968646 0.248443
    outer loop
      vertex 0 38.7899 19.5784
      vertex 7.88844 38.8601 19.3047
      vertex 0 38.8601 19.3047
    endloop
  endfacet
  facet normal 0 -0.0626427 -0.998036
    outer loop
      vertex 0 41.282 22.2323
      vertex 7.92188 41 22.25
      vertex 0 41 22.25
    endloop
  endfacet
  facet normal 0 -0.0626427 -0.998036
    outer loop
      vertex 7.92188 41 22.25
      vertex 0 41.282 22.2323
      vertex 7.92628 41.282 22.2323
    endloop
  endfacet
  facet normal 0 -0.809164 -0.587582
    outer loop
      vertex 0 42.8997 21.2056
      vertex 7.94896 42.7337 21.4342
      vertex 0 42.7337 21.4342
    endloop
  endfacet
  facet normal 0 -0.809164 -0.587582
    outer loop
      vertex 7.94896 42.7337 21.4342
      vertex 0 42.8997 21.2056
      vertex 7.95156 42.8997 21.2056
    endloop
  endfacet
  facet normal 0 -0.728875 0.684647
    outer loop
      vertex 7.94594 42.5402 18.3598
      vertex 0 42.7337 18.5658
      vertex 0 42.5402 18.3598
    endloop
  endfacet
  facet normal 0 -0.728875 0.684647
    outer loop
      vertex 0 42.7337 18.5658
      vertex 7.94594 42.5402 18.3598
      vertex 7.94896 42.7337 18.5658
    endloop
  endfacet
  facet normal 0 -0.425848 0.904795
    outer loop
      vertex 0 42.0839 18.0283
      vertex 7.93482 41.8283 17.908
      vertex 7.93881 42.0839 18.0283
    endloop
  endfacet
  facet normal 0 -0.425848 0.904795
    outer loop
      vertex 7.93482 41.8283 17.908
      vertex 0 42.0839 18.0283
      vertex 0 41.8283 17.908
    endloop
  endfacet
  facet normal 0 0.308998 -0.951063
    outer loop
      vertex 0 40.4404 22.1793
      vertex 7.90893 40.1717 22.092
      vertex 0 40.1717 22.092
    endloop
  endfacet
  facet normal 0 0.308998 -0.951063
    outer loop
      vertex 7.90893 40.1717 22.092
      vertex 0 40.4404 22.1793
      vertex 7.91313 40.4404 22.1793
    endloop
  endfacet
  facet normal 0 -0.992075 -0.125646
    outer loop
      vertex 0 43.2456 20.1413
      vertex 7.95641 43.2101 20.4216
      vertex 0 43.2101 20.4216
    endloop
  endfacet
  facet normal 0 -0.992075 -0.125646
    outer loop
      vertex 7.95641 43.2101 20.4216
      vertex 0 43.2456 20.1413
      vertex 7.95696 43.2456 20.1413
    endloop
  endfacet
  facet normal 0 -0.809164 0.587582
    outer loop
      vertex 7.94896 42.7337 18.5658
      vertex 0 42.8997 18.7944
      vertex 0 42.7337 18.5658
    endloop
  endfacet
  facet normal 0 -0.809164 0.587582
    outer loop
      vertex 0 42.8997 18.7944
      vertex 7.94896 42.7337 18.5658
      vertex 7.95156 42.8997 18.7944
    endloop
  endfacet
  facet normal 0 -0.968646 0.248443
    outer loop
      vertex 0 43.1399 19.3047
      vertex 7.95641 43.2101 19.5784
      vertex 0 43.2101 19.5784
    endloop
  endfacet
  facet normal 0 -0.968646 0.248443
    outer loop
      vertex 7.95641 43.2101 19.5784
      vertex 0 43.1399 19.3047
      vertex 7.95531 43.1399 19.3047
    endloop
  endfacet
  facet normal -0 0.63743 0.770508
    outer loop
      vertex 0 39.6775 18.1797
      vertex 7.89781 39.4598 18.3598
      vertex 7.90121 39.6775 18.1797
    endloop
  endfacet
  facet normal 0 0.63743 0.770508
    outer loop
      vertex 7.89781 39.4598 18.3598
      vertex 0 39.6775 18.1797
      vertex 0 39.4598 18.3598
    endloop
  endfacet
  facet normal 0 -0.535776 -0.84436
    outer loop
      vertex 0 42.3225 21.8203
      vertex 7.93881 42.0839 21.9717
      vertex 0 42.0839 21.9717
    endloop
  endfacet
  facet normal 0 -0.535776 -0.84436
    outer loop
      vertex 7.93881 42.0839 21.9717
      vertex 0 42.3225 21.8203
      vertex 7.94254 42.3225 21.8203
    endloop
  endfacet
  facet normal 0 0.63743 -0.770508
    outer loop
      vertex 0 39.6775 21.8203
      vertex 7.89781 39.4598 21.6402
      vertex 0 39.4598 21.6402
    endloop
  endfacet
  facet normal 0 0.63743 -0.770508
    outer loop
      vertex 7.89781 39.4598 21.6402
      vertex 0 39.6775 21.8203
      vertex 7.90121 39.6775 21.8203
    endloop
  endfacet
  facet normal 0 0.425848 -0.904795
    outer loop
      vertex 0 40.1717 22.092
      vertex 7.90494 39.9161 21.9717
      vertex 0 39.9161 21.9717
    endloop
  endfacet
  facet normal 0 0.425848 -0.904795
    outer loop
      vertex 7.90494 39.9161 21.9717
      vertex 0 40.1717 22.092
      vertex 7.90893 40.1717 22.092
    endloop
  endfacet
  facet normal 0 0.0626427 -0.998036
    outer loop
      vertex 0 41 22.25
      vertex 7.91747 40.718 22.2323
      vertex 0 40.718 22.2323
    endloop
  endfacet
  facet normal 0 0.0626427 -0.998036
    outer loop
      vertex 7.91747 40.718 22.2323
      vertex 0 41 22.25
      vertex 7.92188 41 22.25
    endloop
  endfacet
  facet normal -0 0.809164 0.587582
    outer loop
      vertex 0 39.2663 18.5658
      vertex 7.89219 39.1003 18.7944
      vertex 7.89479 39.2663 18.5658
    endloop
  endfacet
  facet normal 0 0.809164 0.587582
    outer loop
      vertex 7.89219 39.1003 18.7944
      vertex 0 39.2663 18.5658
      vertex 0 39.1003 18.7944
    endloop
  endfacet
  facet normal 0 -0.968646 -0.248443
    outer loop
      vertex 0 43.2101 20.4216
      vertex 7.95531 43.1399 20.6953
      vertex 0 43.1399 20.6953
    endloop
  endfacet
  facet normal 0 -0.968646 -0.248443
    outer loop
      vertex 7.95531 43.1399 20.6953
      vertex 0 43.2101 20.4216
      vertex 7.95641 43.2101 20.4216
    endloop
  endfacet
  facet normal 0 -0.929789 0.368093
    outer loop
      vertex 0 43.0359 19.042
      vertex 7.95531 43.1399 19.3047
      vertex 0 43.1399 19.3047
    endloop
  endfacet
  facet normal 0 -0.929789 0.368093
    outer loop
      vertex 7.95531 43.1399 19.3047
      vertex 0 43.0359 19.042
      vertex 7.95369 43.0359 19.042
    endloop
  endfacet
  facet normal 0 -0.728875 -0.684647
    outer loop
      vertex 0 42.7337 21.4342
      vertex 7.94594 42.5402 21.6402
      vertex 0 42.5402 21.6402
    endloop
  endfacet
  facet normal 0 -0.728875 -0.684647
    outer loop
      vertex 7.94594 42.5402 21.6402
      vertex 0 42.7337 21.4342
      vertex 7.94896 42.7337 21.4342
    endloop
  endfacet
  facet normal 0 0.728875 -0.684647
    outer loop
      vertex 7.89479 39.2663 21.4342
      vertex 0 39.4598 21.6402
      vertex 7.89781 39.4598 21.6402
    endloop
  endfacet
  facet normal 0 0.728875 -0.684647
    outer loop
      vertex 0 39.4598 21.6402
      vertex 7.89479 39.2663 21.4342
      vertex 0 39.2663 21.4342
    endloop
  endfacet
  facet normal -0 0.308998 0.951063
    outer loop
      vertex 0 40.4404 17.8207
      vertex 7.90893 40.1717 17.908
      vertex 7.91313 40.4404 17.8207
    endloop
  endfacet
  facet normal 0 0.308998 0.951063
    outer loop
      vertex 7.90893 40.1717 17.908
      vertex 0 40.4404 17.8207
      vertex 0 40.1717 17.908
    endloop
  endfacet
  facet normal -0 0.728875 0.684647
    outer loop
      vertex 0 39.4598 18.3598
      vertex 7.89479 39.2663 18.5658
      vertex 7.89781 39.4598 18.3598
    endloop
  endfacet
  facet normal 0 0.728875 0.684647
    outer loop
      vertex 7.89479 39.2663 18.5658
      vertex 0 39.4598 18.3598
      vertex 0 39.2663 18.5658
    endloop
  endfacet
  facet normal 0 -0.425848 -0.904795
    outer loop
      vertex 0 42.0839 21.9717
      vertex 7.93482 41.8283 22.092
      vertex 0 41.8283 22.092
    endloop
  endfacet
  facet normal 0 -0.425848 -0.904795
    outer loop
      vertex 7.93482 41.8283 22.092
      vertex 0 42.0839 21.9717
      vertex 7.93881 42.0839 21.9717
    endloop
  endfacet
  facet normal 0 1 -0
    outer loop
      vertex 7.88679 38.7544 19.8587
      vertex 0 38.7544 20.1413
      vertex 7.88679 38.7544 20.1413
    endloop
  endfacet
  facet normal 0 1 0
    outer loop
      vertex 0 38.7544 20.1413
      vertex 7.88679 38.7544 19.8587
      vertex 0 38.7544 19.8587
    endloop
  endfacet
  facet normal 0 0.876186 0.481973
    outer loop
      vertex 7.89219 39.1003 18.7944
      vertex 0 38.9641 19.042
      vertex 7.89006 38.9641 19.042
    endloop
  endfacet
  facet normal 0 0.876186 0.481973
    outer loop
      vertex 0 38.9641 19.042
      vertex 7.89219 39.1003 18.7944
      vertex 0 39.1003 18.7944
    endloop
  endfacet
  facet normal 0 0.992075 -0.125646
    outer loop
      vertex 7.88679 38.7544 20.1413
      vertex 0 38.7899 20.4216
      vertex 7.88734 38.7899 20.4216
    endloop
  endfacet
  facet normal 0 0.992075 -0.125646
    outer loop
      vertex 0 38.7899 20.4216
      vertex 7.88679 38.7544 20.1413
      vertex 0 38.7544 20.1413
    endloop
  endfacet
endsolid OpenSCAD_Model
