solid OpenSCAD_Model
  facet normal 1 0 0
    outer loop
      vertex -18 24 40
      vertex -18 21.75 20
      vertex -18 24 0
    endloop
  endfacet
  facet normal 1 0 0
    outer loop
      vertex -18 24 40
      vertex -18 21.7283 20.3447
      vertex -18 21.75 20
    endloop
  endfacet
  facet normal 1 0 0
    outer loop
      vertex -18 24 40
      vertex -18 21.6636 20.6839
      vertex -18 21.7283 20.3447
    endloop
  endfacet
  facet normal 1 0 0
    outer loop
      vertex -18 24 40
      vertex -18 21.5569 21.0123
      vertex -18 21.6636 20.6839
    endloop
  endfacet
  facet normal 1 0 0
    outer loop
      vertex -18 24 40
      vertex -18 21.4098 21.3248
      vertex -18 21.5569 21.0123
    endloop
  endfacet
  facet normal 1 0 0
    outer loop
      vertex -18 24 40
      vertex -18 21.2248 21.6164
      vertex -18 21.4098 21.3248
    endloop
  endfacet
  facet normal 1 0 0
    outer loop
      vertex -18 24 40
      vertex -18 21.0047 21.8825
      vertex -18 21.2248 21.6164
    endloop
  endfacet
  facet normal 1 0 0
    outer loop
      vertex -18 24 40
      vertex -18 20.7529 22.1189
      vertex -18 21.0047 21.8825
    endloop
  endfacet
  facet normal 1 0 0
    outer loop
      vertex -18 24 40
      vertex -18 20.4735 22.3219
      vertex -18 20.7529 22.1189
    endloop
  endfacet
  facet normal 1 0 0
    outer loop
      vertex -18 24 40
      vertex -18 20.1709 22.4883
      vertex -18 20.4735 22.3219
    endloop
  endfacet
  facet normal 1 0 0
    outer loop
      vertex -18 24 40
      vertex -18 19.8498 22.6154
      vertex -18 20.1709 22.4883
    endloop
  endfacet
  facet normal 1 0 0
    outer loop
      vertex -18 24 40
      vertex -18 19.5153 22.7013
      vertex -18 19.8498 22.6154
    endloop
  endfacet
  facet normal 1 0 0
    outer loop
      vertex -18 24 40
      vertex -18 19.1727 22.7446
      vertex -18 19.5153 22.7013
    endloop
  endfacet
  facet normal 1 0 0
    outer loop
      vertex -18 24 40
      vertex -18 18.8273 22.7446
      vertex -18 19.1727 22.7446
    endloop
  endfacet
  facet normal 1 0 0
    outer loop
      vertex -18 24 40
      vertex -18 18.4847 22.7013
      vertex -18 18.8273 22.7446
    endloop
  endfacet
  facet normal 1 0 0
    outer loop
      vertex -18 24 40
      vertex -18 18.1502 22.6154
      vertex -18 18.4847 22.7013
    endloop
  endfacet
  facet normal 1 -0 0
    outer loop
      vertex -18 6 40
      vertex -18 18.1502 22.6154
      vertex -18 24 40
    endloop
  endfacet
  facet normal 1 0 0
    outer loop
      vertex -18 18.1502 22.6154
      vertex -18 6 40
      vertex -18 17.8291 22.4883
    endloop
  endfacet
  facet normal 1 0 0
    outer loop
      vertex -18 17.8291 22.4883
      vertex -18 6 40
      vertex -18 17.5265 22.3219
    endloop
  endfacet
  facet normal 1 0 0
    outer loop
      vertex -18 17.5265 22.3219
      vertex -18 6 40
      vertex -18 17.2471 22.1189
    endloop
  endfacet
  facet normal 1 0 0
    outer loop
      vertex -18 17.2471 22.1189
      vertex -18 6 40
      vertex -18 16.9953 21.8825
    endloop
  endfacet
  facet normal 1 0 0
    outer loop
      vertex -18 16.9953 21.8825
      vertex -18 6 40
      vertex -18 16.7752 21.6164
    endloop
  endfacet
  facet normal 1 0 0
    outer loop
      vertex -18 16.7752 21.6164
      vertex -18 6 40
      vertex -18 16.5902 21.3248
    endloop
  endfacet
  facet normal 1 0 0
    outer loop
      vertex -18 16.2717 20.3447
      vertex -18 6 40
      vertex -18 16.25 20
    endloop
  endfacet
  facet normal 1 0 0
    outer loop
      vertex -18 16.3364 20.6839
      vertex -18 6 40
      vertex -18 16.2717 20.3447
    endloop
  endfacet
  facet normal 1 0 0
    outer loop
      vertex -18 16.4431 21.0123
      vertex -18 6 40
      vertex -18 16.3364 20.6839
    endloop
  endfacet
  facet normal 1 0 0
    outer loop
      vertex -18 16.5902 21.3248
      vertex -18 6 40
      vertex -18 16.4431 21.0123
    endloop
  endfacet
  facet normal 1 -0 0
    outer loop
      vertex -18 21.7283 19.6553
      vertex -18 24 0
      vertex -18 21.75 20
    endloop
  endfacet
  facet normal 1 -0 0
    outer loop
      vertex -18 21.6636 19.3161
      vertex -18 24 0
      vertex -18 21.7283 19.6553
    endloop
  endfacet
  facet normal 1 -0 0
    outer loop
      vertex -18 21.5569 18.9877
      vertex -18 24 0
      vertex -18 21.6636 19.3161
    endloop
  endfacet
  facet normal 1 -0 0
    outer loop
      vertex -18 21.4098 18.6752
      vertex -18 24 0
      vertex -18 21.5569 18.9877
    endloop
  endfacet
  facet normal 1 -0 0
    outer loop
      vertex -18 21.2248 18.3836
      vertex -18 24 0
      vertex -18 21.4098 18.6752
    endloop
  endfacet
  facet normal 1 -0 0
    outer loop
      vertex -18 21.0047 18.1175
      vertex -18 24 0
      vertex -18 21.2248 18.3836
    endloop
  endfacet
  facet normal 1 -0 0
    outer loop
      vertex -18 20.7529 17.8811
      vertex -18 24 0
      vertex -18 21.0047 18.1175
    endloop
  endfacet
  facet normal 1 -0 0
    outer loop
      vertex -18 20.4735 17.6781
      vertex -18 24 0
      vertex -18 20.7529 17.8811
    endloop
  endfacet
  facet normal 1 -0 0
    outer loop
      vertex -18 20.1709 17.5117
      vertex -18 24 0
      vertex -18 20.4735 17.6781
    endloop
  endfacet
  facet normal 1 -0 0
    outer loop
      vertex -18 19.8498 17.3846
      vertex -18 24 0
      vertex -18 20.1709 17.5117
    endloop
  endfacet
  facet normal 1 -0 0
    outer loop
      vertex -18 19.5153 17.2987
      vertex -18 24 0
      vertex -18 19.8498 17.3846
    endloop
  endfacet
  facet normal 1 -0 0
    outer loop
      vertex -18 19.1727 17.2554
      vertex -18 24 0
      vertex -18 19.5153 17.2987
    endloop
  endfacet
  facet normal 1 -0 0
    outer loop
      vertex -18 18.8273 17.2554
      vertex -18 24 0
      vertex -18 19.1727 17.2554
    endloop
  endfacet
  facet normal 1 0 0
    outer loop
      vertex -18 18.4847 17.2987
      vertex -18 24 0
      vertex -18 18.8273 17.2554
    endloop
  endfacet
  facet normal 1 0 0
    outer loop
      vertex -18 18.1502 17.3846
      vertex -18 24 0
      vertex -18 18.4847 17.2987
    endloop
  endfacet
  facet normal 1 0 0
    outer loop
      vertex -18 6 0
      vertex -18 18.1502 17.3846
      vertex -18 17.8291 17.5117
    endloop
  endfacet
  facet normal 1 0 0
    outer loop
      vertex -18 6 0
      vertex -18 17.8291 17.5117
      vertex -18 17.5265 17.6781
    endloop
  endfacet
  facet normal 1 0 0
    outer loop
      vertex -18 6 0
      vertex -18 17.5265 17.6781
      vertex -18 17.2471 17.8811
    endloop
  endfacet
  facet normal 1 0 0
    outer loop
      vertex -18 6 0
      vertex -18 17.2471 17.8811
      vertex -18 16.9953 18.1175
    endloop
  endfacet
  facet normal 1 0 0
    outer loop
      vertex -18 6 0
      vertex -18 16.9953 18.1175
      vertex -18 16.7752 18.3836
    endloop
  endfacet
  facet normal 1 0 0
    outer loop
      vertex -18 6 0
      vertex -18 16.7752 18.3836
      vertex -18 16.5902 18.6752
    endloop
  endfacet
  facet normal 1 0 0
    outer loop
      vertex -18 6 0
      vertex -18 16.5902 18.6752
      vertex -18 16.4431 18.9877
    endloop
  endfacet
  facet normal 1 0 0
    outer loop
      vertex -18 6 0
      vertex -18 16.25 20
      vertex -18 6 40
    endloop
  endfacet
  facet normal 1 0 0
    outer loop
      vertex -18 16.25 20
      vertex -18 6 0
      vertex -18 16.2717 19.6553
    endloop
  endfacet
  facet normal 1 0 0
    outer loop
      vertex -18 16.2717 19.6553
      vertex -18 6 0
      vertex -18 16.3364 19.3161
    endloop
  endfacet
  facet normal 1 0 0
    outer loop
      vertex -18 16.3364 19.3161
      vertex -18 6 0
      vertex -18 16.4431 18.9877
    endloop
  endfacet
  facet normal 1 0 0
    outer loop
      vertex -18 18.1502 17.3846
      vertex -18 6 0
      vertex -18 24 0
    endloop
  endfacet
  facet normal 0 1 -0
    outer loop
      vertex -18 24 0
      vertex -26 24 40
      vertex -18 24 40
    endloop
  endfacet
  facet normal 0 1 0
    outer loop
      vertex -26 24 40
      vertex -18 24 0
      vertex -26 24 0
    endloop
  endfacet
  facet normal -1 0 0
    outer loop
      vertex -26 24 0
      vertex -26 21.75 20
      vertex -26 24 40
    endloop
  endfacet
  facet normal -1 0 0
    outer loop
      vertex -26 24 0
      vertex -26 21.7283 19.6553
      vertex -26 21.75 20
    endloop
  endfacet
  facet normal -1 0 0
    outer loop
      vertex -26 24 0
      vertex -26 21.6636 19.3161
      vertex -26 21.7283 19.6553
    endloop
  endfacet
  facet normal -1 0 0
    outer loop
      vertex -26 24 0
      vertex -26 21.5569 18.9877
      vertex -26 21.6636 19.3161
    endloop
  endfacet
  facet normal -1 0 0
    outer loop
      vertex -26 24 0
      vertex -26 21.4098 18.6752
      vertex -26 21.5569 18.9877
    endloop
  endfacet
  facet normal -1 0 0
    outer loop
      vertex -26 24 0
      vertex -26 21.2248 18.3836
      vertex -26 21.4098 18.6752
    endloop
  endfacet
  facet normal -1 0 0
    outer loop
      vertex -26 24 0
      vertex -26 21.0047 18.1175
      vertex -26 21.2248 18.3836
    endloop
  endfacet
  facet normal -1 0 0
    outer loop
      vertex -26 24 0
      vertex -26 20.7529 17.8811
      vertex -26 21.0047 18.1175
    endloop
  endfacet
  facet normal -1 0 0
    outer loop
      vertex -26 24 0
      vertex -26 20.4735 17.6781
      vertex -26 20.7529 17.8811
    endloop
  endfacet
  facet normal -1 0 0
    outer loop
      vertex -26 24 0
      vertex -26 20.1709 17.5117
      vertex -26 20.4735 17.6781
    endloop
  endfacet
  facet normal -1 0 0
    outer loop
      vertex -26 24 0
      vertex -26 19.8498 17.3846
      vertex -26 20.1709 17.5117
    endloop
  endfacet
  facet normal -1 0 0
    outer loop
      vertex -26 24 0
      vertex -26 19.5153 17.2987
      vertex -26 19.8498 17.3846
    endloop
  endfacet
  facet normal -1 0 0
    outer loop
      vertex -26 24 0
      vertex -26 19.1727 17.2554
      vertex -26 19.5153 17.2987
    endloop
  endfacet
  facet normal -1 0 0
    outer loop
      vertex -26 24 0
      vertex -26 18.8273 17.2554
      vertex -26 19.1727 17.2554
    endloop
  endfacet
  facet normal -1 0 0
    outer loop
      vertex -26 24 0
      vertex -26 18.4847 17.2987
      vertex -26 18.8273 17.2554
    endloop
  endfacet
  facet normal -1 0 0
    outer loop
      vertex -26 24 0
      vertex -26 18.1502 17.3846
      vertex -26 18.4847 17.2987
    endloop
  endfacet
  facet normal -1 0 0
    outer loop
      vertex -26 24 0
      vertex -26 17.8291 17.5117
      vertex -26 18.1502 17.3846
    endloop
  endfacet
  facet normal -1 0 0
    outer loop
      vertex -26 24 0
      vertex -26 17.5265 17.6781
      vertex -26 17.8291 17.5117
    endloop
  endfacet
  facet normal -1 0 0
    outer loop
      vertex -26 -2 0
      vertex -26 17.5265 17.6781
      vertex -26 24 0
    endloop
  endfacet
  facet normal -1 -0 0
    outer loop
      vertex -26 17.5265 17.6781
      vertex -26 -2 0
      vertex -26 17.2471 17.8811
    endloop
  endfacet
  facet normal -1 -0 0
    outer loop
      vertex -26 17.2471 17.8811
      vertex -26 -2 0
      vertex -26 16.9953 18.1175
    endloop
  endfacet
  facet normal -1 -0 0
    outer loop
      vertex -26 16.9953 18.1175
      vertex -26 -2 0
      vertex -26 16.7752 18.3836
    endloop
  endfacet
  facet normal -1 -0 0
    outer loop
      vertex -26 16.7752 18.3836
      vertex -26 -2 0
      vertex -26 16.5902 18.6752
    endloop
  endfacet
  facet normal -1 -0 0
    outer loop
      vertex -26 16.2717 19.6553
      vertex -26 -2 0
      vertex -26 16.25 20
    endloop
  endfacet
  facet normal -1 -0 0
    outer loop
      vertex -26 16.3364 19.3161
      vertex -26 -2 0
      vertex -26 16.2717 19.6553
    endloop
  endfacet
  facet normal -1 -0 0
    outer loop
      vertex -26 16.4431 18.9877
      vertex -26 -2 0
      vertex -26 16.3364 19.3161
    endloop
  endfacet
  facet normal -1 -0 0
    outer loop
      vertex -26 16.5902 18.6752
      vertex -26 -2 0
      vertex -26 16.4431 18.9877
    endloop
  endfacet
  facet normal -1 0 0
    outer loop
      vertex -26 21.7283 20.3447
      vertex -26 24 40
      vertex -26 21.75 20
    endloop
  endfacet
  facet normal -1 0 0
    outer loop
      vertex -26 21.6636 20.6839
      vertex -26 24 40
      vertex -26 21.7283 20.3447
    endloop
  endfacet
  facet normal -1 0 0
    outer loop
      vertex -26 21.5569 21.0123
      vertex -26 24 40
      vertex -26 21.6636 20.6839
    endloop
  endfacet
  facet normal -1 0 0
    outer loop
      vertex -26 21.4098 21.3248
      vertex -26 24 40
      vertex -26 21.5569 21.0123
    endloop
  endfacet
  facet normal -1 0 0
    outer loop
      vertex -26 21.2248 21.6164
      vertex -26 24 40
      vertex -26 21.4098 21.3248
    endloop
  endfacet
  facet normal -1 0 0
    outer loop
      vertex -26 21.0047 21.8825
      vertex -26 24 40
      vertex -26 21.2248 21.6164
    endloop
  endfacet
  facet normal -1 0 0
    outer loop
      vertex -26 20.7529 22.1189
      vertex -26 24 40
      vertex -26 21.0047 21.8825
    endloop
  endfacet
  facet normal -1 0 0
    outer loop
      vertex -26 20.4735 22.3219
      vertex -26 24 40
      vertex -26 20.7529 22.1189
    endloop
  endfacet
  facet normal -1 0 0
    outer loop
      vertex -26 20.1709 22.4883
      vertex -26 24 40
      vertex -26 20.4735 22.3219
    endloop
  endfacet
  facet normal -1 0 0
    outer loop
      vertex -26 19.8498 22.6154
      vertex -26 24 40
      vertex -26 20.1709 22.4883
    endloop
  endfacet
  facet normal -1 0 0
    outer loop
      vertex -26 19.5153 22.7013
      vertex -26 24 40
      vertex -26 19.8498 22.6154
    endloop
  endfacet
  facet normal -1 0 0
    outer loop
      vertex -26 19.1727 22.7446
      vertex -26 24 40
      vertex -26 19.5153 22.7013
    endloop
  endfacet
  facet normal -1 0 0
    outer loop
      vertex -26 18.8273 22.7446
      vertex -26 24 40
      vertex -26 19.1727 22.7446
    endloop
  endfacet
  facet normal -1 0 0
    outer loop
      vertex -26 18.4847 22.7013
      vertex -26 24 40
      vertex -26 18.8273 22.7446
    endloop
  endfacet
  facet normal -1 0 0
    outer loop
      vertex -26 18.1502 22.6154
      vertex -26 24 40
      vertex -26 18.4847 22.7013
    endloop
  endfacet
  facet normal -1 0 0
    outer loop
      vertex -26 17.8291 22.4883
      vertex -26 24 40
      vertex -26 18.1502 22.6154
    endloop
  endfacet
  facet normal -1 0 0
    outer loop
      vertex -26 17.5265 22.3219
      vertex -26 24 40
      vertex -26 17.8291 22.4883
    endloop
  endfacet
  facet normal -1 0 0
    outer loop
      vertex -26 -2 40
      vertex -26 17.5265 22.3219
      vertex -26 17.2471 22.1189
    endloop
  endfacet
  facet normal -1 0 0
    outer loop
      vertex -26 -2 40
      vertex -26 17.2471 22.1189
      vertex -26 16.9953 21.8825
    endloop
  endfacet
  facet normal -1 0 0
    outer loop
      vertex -26 -2 40
      vertex -26 16.9953 21.8825
      vertex -26 16.7752 21.6164
    endloop
  endfacet
  facet normal -1 0 0
    outer loop
      vertex -26 -2 40
      vertex -26 16.7752 21.6164
      vertex -26 16.5902 21.3248
    endloop
  endfacet
  facet normal -1 0 0
    outer loop
      vertex -26 -2 40
      vertex -26 16.5902 21.3248
      vertex -26 16.4431 21.0123
    endloop
  endfacet
  facet normal -1 0 0
    outer loop
      vertex -26 -2 40
      vertex -26 16.25 20
      vertex -26 -2 0
    endloop
  endfacet
  facet normal -1 0 0
    outer loop
      vertex -26 16.25 20
      vertex -26 -2 40
      vertex -26 16.2717 20.3447
    endloop
  endfacet
  facet normal -1 0 0
    outer loop
      vertex -26 16.2717 20.3447
      vertex -26 -2 40
      vertex -26 16.3364 20.6839
    endloop
  endfacet
  facet normal -1 0 0
    outer loop
      vertex -26 16.3364 20.6839
      vertex -26 -2 40
      vertex -26 16.4431 21.0123
    endloop
  endfacet
  facet normal -1 0 0
    outer loop
      vertex -26 17.5265 22.3219
      vertex -26 -2 40
      vertex -26 24 40
    endloop
  endfacet
  facet normal 0 0 -1
    outer loop
      vertex 7.25 -2 0
      vertex -18 6 0
      vertex 0 6 0
    endloop
  endfacet
  facet normal 0 0 -1
    outer loop
      vertex -26 -2 0
      vertex -18 6 0
      vertex 7.25 -2 0
    endloop
  endfacet
  facet normal 0 0 -1
    outer loop
      vertex -26 24 0
      vertex -18 6 0
      vertex -26 -2 0
    endloop
  endfacet
  facet normal 0 0 -1
    outer loop
      vertex -18 6 0
      vertex -26 24 0
      vertex -18 24 0
    endloop
  endfacet
  facet normal 0 0 -1
    outer loop
      vertex 0 6 0
      vertex 7.875 38 0
      vertex 7.25 -2 0
    endloop
  endfacet
  facet normal -0 0 -1
    outer loop
      vertex 7.875 38 0
      vertex 0 6 0
      vertex 0 38 0
    endloop
  endfacet
  facet normal 0 0 1
    outer loop
      vertex -18 24 40
      vertex -26 24 40
      vertex -18 6 40
    endloop
  endfacet
  facet normal 0 0 1
    outer loop
      vertex 0 6 40
      vertex 7.875 38 40
      vertex 0 38 40
    endloop
  endfacet
  facet normal 0 0 1
    outer loop
      vertex 7.875 38 40
      vertex 0 6 40
      vertex 7.25 -2 40
    endloop
  endfacet
  facet normal -0 0 1
    outer loop
      vertex -18 6 40
      vertex 7.25 -2 40
      vertex 0 6 40
    endloop
  endfacet
  facet normal 0 0 1
    outer loop
      vertex -18 6 40
      vertex -26 -2 40
      vertex 7.25 -2 40
    endloop
  endfacet
  facet normal 0 0 1
    outer loop
      vertex -26 -2 40
      vertex -18 6 40
      vertex -26 24 40
    endloop
  endfacet
  facet normal 0 -0.587793 0.809011
    outer loop
      vertex -26 20.7529 17.8811
      vertex -18 20.4735 17.6781
      vertex -18 20.7529 17.8811
    endloop
  endfacet
  facet normal 0 -0.587793 0.809011
    outer loop
      vertex -18 20.4735 17.6781
      vertex -26 20.7529 17.8811
      vertex -26 20.4735 17.6781
    endloop
  endfacet
  facet normal 0 0.98229 0.187365
    outer loop
      vertex -18 16.3364 19.3161
      vertex -26 16.2717 19.6553
      vertex -18 16.2717 19.6553
    endloop
  endfacet
  facet normal 0 0.98229 0.187365
    outer loop
      vertex -26 16.2717 19.6553
      vertex -18 16.3364 19.3161
      vertex -26 16.3364 19.3161
    endloop
  endfacet
  facet normal 0 0.95106 0.309007
    outer loop
      vertex -18 16.4431 18.9877
      vertex -26 16.3364 19.3161
      vertex -18 16.3364 19.3161
    endloop
  endfacet
  facet normal 0 0.95106 0.309007
    outer loop
      vertex -26 16.3364 19.3161
      vertex -18 16.4431 18.9877
      vertex -26 16.4431 18.9877
    endloop
  endfacet
  facet normal 0 -0.368043 0.929809
    outer loop
      vertex -26 20.1709 17.5117
      vertex -18 19.8498 17.3846
      vertex -18 20.1709 17.5117
    endloop
  endfacet
  facet normal 0 -0.368043 0.929809
    outer loop
      vertex -18 19.8498 17.3846
      vertex -26 20.1709 17.5117
      vertex -26 19.8498 17.3846
    endloop
  endfacet
  facet normal 0 0.248731 -0.968573
    outer loop
      vertex -26 18.1502 22.6154
      vertex -18 18.4847 22.7013
      vertex -18 18.1502 22.6154
    endloop
  endfacet
  facet normal 0 0.248731 -0.968573
    outer loop
      vertex -18 18.4847 22.7013
      vertex -26 18.1502 22.6154
      vertex -26 18.4847 22.7013
    endloop
  endfacet
  facet normal 0 -0.587793 -0.809011
    outer loop
      vertex -26 20.4735 22.3219
      vertex -18 20.7529 22.1189
      vertex -18 20.4735 22.3219
    endloop
  endfacet
  facet normal -0 -0.587793 -0.809011
    outer loop
      vertex -18 20.7529 22.1189
      vertex -26 20.4735 22.3219
      vertex -26 20.7529 22.1189
    endloop
  endfacet
  facet normal 0 0.904773 0.425895
    outer loop
      vertex -18 16.5902 18.6752
      vertex -26 16.4431 18.9877
      vertex -18 16.4431 18.9877
    endloop
  endfacet
  facet normal 0 0.904773 0.425895
    outer loop
      vertex -26 16.4431 18.9877
      vertex -18 16.5902 18.6752
      vertex -26 16.5902 18.6752
    endloop
  endfacet
  facet normal 0 0.998024 0.0628289
    outer loop
      vertex -18 16.2717 19.6553
      vertex -26 16.25 20
      vertex -18 16.25 20
    endloop
  endfacet
  facet normal 0 0.998024 0.0628289
    outer loop
      vertex -26 16.25 20
      vertex -18 16.2717 19.6553
      vertex -26 16.2717 19.6553
    endloop
  endfacet
  facet normal 0 0.8444 0.535713
    outer loop
      vertex -18 16.7752 18.3836
      vertex -26 16.5902 18.6752
      vertex -18 16.5902 18.6752
    endloop
  endfacet
  facet normal 0 0.8444 0.535713
    outer loop
      vertex -26 16.5902 18.6752
      vertex -18 16.7752 18.3836
      vertex -26 16.7752 18.3836
    endloop
  endfacet
  facet normal 0 -0.998024 0.0628289
    outer loop
      vertex -26 21.7283 19.6553
      vertex -18 21.75 20
      vertex -26 21.75 20
    endloop
  endfacet
  facet normal 0 -0.998024 0.0628289
    outer loop
      vertex -18 21.75 20
      vertex -26 21.7283 19.6553
      vertex -18 21.7283 19.6553
    endloop
  endfacet
  facet normal 0 -0.248731 0.968573
    outer loop
      vertex -26 19.8498 17.3846
      vertex -18 19.5153 17.2987
      vertex -18 19.8498 17.3846
    endloop
  endfacet
  facet normal 0 -0.248731 0.968573
    outer loop
      vertex -18 19.5153 17.2987
      vertex -26 19.8498 17.3846
      vertex -26 19.5153 17.2987
    endloop
  endfacet
  facet normal 0 -0.8444 -0.535713
    outer loop
      vertex -26 21.4098 21.3248
      vertex -18 21.2248 21.6164
      vertex -26 21.2248 21.6164
    endloop
  endfacet
  facet normal 0 -0.8444 -0.535713
    outer loop
      vertex -18 21.2248 21.6164
      vertex -26 21.4098 21.3248
      vertex -18 21.4098 21.3248
    endloop
  endfacet
  facet normal 0 0.904773 -0.425895
    outer loop
      vertex -18 16.4431 21.0123
      vertex -26 16.5902 21.3248
      vertex -18 16.5902 21.3248
    endloop
  endfacet
  facet normal 0 0.904773 -0.425895
    outer loop
      vertex -26 16.5902 21.3248
      vertex -18 16.4431 21.0123
      vertex -26 16.4431 21.0123
    endloop
  endfacet
  facet normal 0 -0.8444 0.535713
    outer loop
      vertex -26 21.2248 18.3836
      vertex -18 21.4098 18.6752
      vertex -26 21.4098 18.6752
    endloop
  endfacet
  facet normal 0 -0.8444 0.535713
    outer loop
      vertex -18 21.4098 18.6752
      vertex -26 21.2248 18.3836
      vertex -18 21.2248 18.3836
    endloop
  endfacet
  facet normal 0 -0.998024 -0.0628289
    outer loop
      vertex -26 21.75 20
      vertex -18 21.7283 20.3447
      vertex -26 21.7283 20.3447
    endloop
  endfacet
  facet normal 0 -0.998024 -0.0628289
    outer loop
      vertex -18 21.7283 20.3447
      vertex -26 21.75 20
      vertex -18 21.75 20
    endloop
  endfacet
  facet normal -0 0.587793 0.809011
    outer loop
      vertex -26 17.5265 17.6781
      vertex -18 17.2471 17.8811
      vertex -18 17.5265 17.6781
    endloop
  endfacet
  facet normal 0 0.587793 0.809011
    outer loop
      vertex -18 17.2471 17.8811
      vertex -26 17.5265 17.6781
      vertex -26 17.2471 17.8811
    endloop
  endfacet
  facet normal 0 0.8444 -0.535713
    outer loop
      vertex -18 16.5902 21.3248
      vertex -26 16.7752 21.6164
      vertex -18 16.7752 21.6164
    endloop
  endfacet
  facet normal 0 0.8444 -0.535713
    outer loop
      vertex -26 16.7752 21.6164
      vertex -18 16.5902 21.3248
      vertex -26 16.5902 21.3248
    endloop
  endfacet
  facet normal 0 0.95106 -0.309007
    outer loop
      vertex -18 16.3364 20.6839
      vertex -26 16.4431 21.0123
      vertex -18 16.4431 21.0123
    endloop
  endfacet
  facet normal 0 0.95106 -0.309007
    outer loop
      vertex -26 16.4431 21.0123
      vertex -18 16.3364 20.6839
      vertex -26 16.3364 20.6839
    endloop
  endfacet
  facet normal 0 -0.95106 0.309007
    outer loop
      vertex -26 21.5569 18.9877
      vertex -18 21.6636 19.3161
      vertex -26 21.6636 19.3161
    endloop
  endfacet
  facet normal 0 -0.95106 0.309007
    outer loop
      vertex -18 21.6636 19.3161
      vertex -26 21.5569 18.9877
      vertex -18 21.5569 18.9877
    endloop
  endfacet
  facet normal 0 0.481852 -0.876253
    outer loop
      vertex -26 17.5265 22.3219
      vertex -18 17.8291 22.4883
      vertex -18 17.5265 22.3219
    endloop
  endfacet
  facet normal 0 0.481852 -0.876253
    outer loop
      vertex -18 17.8291 22.4883
      vertex -26 17.5265 22.3219
      vertex -26 17.8291 22.4883
    endloop
  endfacet
  facet normal 0 -0.481852 0.876253
    outer loop
      vertex -26 20.4735 17.6781
      vertex -18 20.1709 17.5117
      vertex -18 20.4735 17.6781
    endloop
  endfacet
  facet normal 0 -0.481852 0.876253
    outer loop
      vertex -18 20.1709 17.5117
      vertex -26 20.4735 17.6781
      vertex -26 20.1709 17.5117
    endloop
  endfacet
  facet normal -0 0.481852 0.876253
    outer loop
      vertex -26 17.8291 17.5117
      vertex -18 17.5265 17.6781
      vertex -18 17.8291 17.5117
    endloop
  endfacet
  facet normal 0 0.481852 0.876253
    outer loop
      vertex -18 17.5265 17.6781
      vertex -26 17.8291 17.5117
      vertex -26 17.5265 17.6781
    endloop
  endfacet
  facet normal -0 0.248731 0.968573
    outer loop
      vertex -26 18.4847 17.2987
      vertex -18 18.1502 17.3846
      vertex -18 18.4847 17.2987
    endloop
  endfacet
  facet normal 0 0.248731 0.968573
    outer loop
      vertex -18 18.1502 17.3846
      vertex -26 18.4847 17.2987
      vertex -26 18.1502 17.3846
    endloop
  endfacet
  facet normal 0 0.770566 0.63736
    outer loop
      vertex -18 16.9953 18.1175
      vertex -26 16.7752 18.3836
      vertex -18 16.7752 18.3836
    endloop
  endfacet
  facet normal 0 0.770566 0.63736
    outer loop
      vertex -26 16.7752 18.3836
      vertex -18 16.9953 18.1175
      vertex -26 16.9953 18.1175
    endloop
  endfacet
  facet normal 0 -0.98229 0.187365
    outer loop
      vertex -26 21.6636 19.3161
      vertex -18 21.7283 19.6553
      vertex -26 21.7283 19.6553
    endloop
  endfacet
  facet normal 0 -0.98229 0.187365
    outer loop
      vertex -18 21.7283 19.6553
      vertex -26 21.6636 19.3161
      vertex -18 21.6636 19.3161
    endloop
  endfacet
  facet normal -0 0.684461 0.729049
    outer loop
      vertex -26 17.2471 17.8811
      vertex -18 16.9953 18.1175
      vertex -18 17.2471 17.8811
    endloop
  endfacet
  facet normal 0 0.684461 0.729049
    outer loop
      vertex -18 16.9953 18.1175
      vertex -26 17.2471 17.8811
      vertex -26 16.9953 18.1175
    endloop
  endfacet
  facet normal 0 0.98229 -0.187365
    outer loop
      vertex -18 16.2717 20.3447
      vertex -26 16.3364 20.6839
      vertex -18 16.3364 20.6839
    endloop
  endfacet
  facet normal 0 0.98229 -0.187365
    outer loop
      vertex -26 16.3364 20.6839
      vertex -18 16.2717 20.3447
      vertex -26 16.2717 20.3447
    endloop
  endfacet
  facet normal 0 -0.248731 -0.968573
    outer loop
      vertex -26 19.5153 22.7013
      vertex -18 19.8498 22.6154
      vertex -18 19.5153 22.7013
    endloop
  endfacet
  facet normal -0 -0.248731 -0.968573
    outer loop
      vertex -18 19.8498 22.6154
      vertex -26 19.5153 22.7013
      vertex -26 19.8498 22.6154
    endloop
  endfacet
  facet normal 0 -0.904773 0.425895
    outer loop
      vertex -26 21.4098 18.6752
      vertex -18 21.5569 18.9877
      vertex -26 21.5569 18.9877
    endloop
  endfacet
  facet normal 0 -0.904773 0.425895
    outer loop
      vertex -18 21.5569 18.9877
      vertex -26 21.4098 18.6752
      vertex -18 21.4098 18.6752
    endloop
  endfacet
  facet normal 0 0.998024 -0.0628289
    outer loop
      vertex -18 16.25 20
      vertex -26 16.2717 20.3447
      vertex -18 16.2717 20.3447
    endloop
  endfacet
  facet normal 0 0.998024 -0.0628289
    outer loop
      vertex -26 16.2717 20.3447
      vertex -18 16.25 20
      vertex -26 16.25 20
    endloop
  endfacet
  facet normal 0 0.368043 -0.929809
    outer loop
      vertex -26 17.8291 22.4883
      vertex -18 18.1502 22.6154
      vertex -18 17.8291 22.4883
    endloop
  endfacet
  facet normal 0 0.368043 -0.929809
    outer loop
      vertex -18 18.1502 22.6154
      vertex -26 17.8291 22.4883
      vertex -26 18.1502 22.6154
    endloop
  endfacet
  facet normal 0 -0.770566 -0.63736
    outer loop
      vertex -26 21.2248 21.6164
      vertex -18 21.0047 21.8825
      vertex -26 21.0047 21.8825
    endloop
  endfacet
  facet normal 0 -0.770566 -0.63736
    outer loop
      vertex -18 21.0047 21.8825
      vertex -26 21.2248 21.6164
      vertex -18 21.2248 21.6164
    endloop
  endfacet
  facet normal 0 0 -1
    outer loop
      vertex -26 18.8273 22.7446
      vertex -18 19.1727 22.7446
      vertex -18 18.8273 22.7446
    endloop
  endfacet
  facet normal -0 0 -1
    outer loop
      vertex -18 19.1727 22.7446
      vertex -26 18.8273 22.7446
      vertex -26 19.1727 22.7446
    endloop
  endfacet
  facet normal 0 -0.125389 -0.992108
    outer loop
      vertex -26 19.1727 22.7446
      vertex -18 19.5153 22.7013
      vertex -18 19.1727 22.7446
    endloop
  endfacet
  facet normal -0 -0.125389 -0.992108
    outer loop
      vertex -18 19.5153 22.7013
      vertex -26 19.1727 22.7446
      vertex -26 19.5153 22.7013
    endloop
  endfacet
  facet normal 0 0.770566 -0.63736
    outer loop
      vertex -18 16.7752 21.6164
      vertex -26 16.9953 21.8825
      vertex -18 16.9953 21.8825
    endloop
  endfacet
  facet normal 0 0.770566 -0.63736
    outer loop
      vertex -26 16.9953 21.8825
      vertex -18 16.7752 21.6164
      vertex -26 16.7752 21.6164
    endloop
  endfacet
  facet normal 0 -0.98229 -0.187365
    outer loop
      vertex -26 21.7283 20.3447
      vertex -18 21.6636 20.6839
      vertex -26 21.6636 20.6839
    endloop
  endfacet
  facet normal 0 -0.98229 -0.187365
    outer loop
      vertex -18 21.6636 20.6839
      vertex -26 21.7283 20.3447
      vertex -18 21.7283 20.3447
    endloop
  endfacet
  facet normal 0 0.125389 -0.992108
    outer loop
      vertex -26 18.4847 22.7013
      vertex -18 18.8273 22.7446
      vertex -18 18.4847 22.7013
    endloop
  endfacet
  facet normal 0 0.125389 -0.992108
    outer loop
      vertex -18 18.8273 22.7446
      vertex -26 18.4847 22.7013
      vertex -26 18.8273 22.7446
    endloop
  endfacet
  facet normal 0 -0.904773 -0.425895
    outer loop
      vertex -26 21.5569 21.0123
      vertex -18 21.4098 21.3248
      vertex -26 21.4098 21.3248
    endloop
  endfacet
  facet normal 0 -0.904773 -0.425895
    outer loop
      vertex -18 21.4098 21.3248
      vertex -26 21.5569 21.0123
      vertex -18 21.5569 21.0123
    endloop
  endfacet
  facet normal -0 0 1
    outer loop
      vertex -26 19.1727 17.2554
      vertex -18 18.8273 17.2554
      vertex -18 19.1727 17.2554
    endloop
  endfacet
  facet normal 0 0 1
    outer loop
      vertex -18 18.8273 17.2554
      vertex -26 19.1727 17.2554
      vertex -26 18.8273 17.2554
    endloop
  endfacet
  facet normal 0 -0.684461 0.729049
    outer loop
      vertex -26 21.0047 18.1175
      vertex -18 20.7529 17.8811
      vertex -18 21.0047 18.1175
    endloop
  endfacet
  facet normal 0 -0.684461 0.729049
    outer loop
      vertex -18 20.7529 17.8811
      vertex -26 21.0047 18.1175
      vertex -26 20.7529 17.8811
    endloop
  endfacet
  facet normal -0 0.368043 0.929809
    outer loop
      vertex -26 18.1502 17.3846
      vertex -18 17.8291 17.5117
      vertex -18 18.1502 17.3846
    endloop
  endfacet
  facet normal 0 0.368043 0.929809
    outer loop
      vertex -18 17.8291 17.5117
      vertex -26 18.1502 17.3846
      vertex -26 17.8291 17.5117
    endloop
  endfacet
  facet normal -0 0.125389 0.992108
    outer loop
      vertex -26 18.8273 17.2554
      vertex -18 18.4847 17.2987
      vertex -18 18.8273 17.2554
    endloop
  endfacet
  facet normal 0 0.125389 0.992108
    outer loop
      vertex -18 18.4847 17.2987
      vertex -26 18.8273 17.2554
      vertex -26 18.4847 17.2987
    endloop
  endfacet
  facet normal 0 -0.684461 -0.729049
    outer loop
      vertex -26 20.7529 22.1189
      vertex -18 21.0047 21.8825
      vertex -18 20.7529 22.1189
    endloop
  endfacet
  facet normal -0 -0.684461 -0.729049
    outer loop
      vertex -18 21.0047 21.8825
      vertex -26 20.7529 22.1189
      vertex -26 21.0047 21.8825
    endloop
  endfacet
  facet normal 0 -0.125389 0.992108
    outer loop
      vertex -26 19.5153 17.2987
      vertex -18 19.1727 17.2554
      vertex -18 19.5153 17.2987
    endloop
  endfacet
  facet normal 0 -0.125389 0.992108
    outer loop
      vertex -18 19.1727 17.2554
      vertex -26 19.5153 17.2987
      vertex -26 19.1727 17.2554
    endloop
  endfacet
  facet normal 0 -0.481852 -0.876253
    outer loop
      vertex -26 20.1709 22.4883
      vertex -18 20.4735 22.3219
      vertex -18 20.1709 22.4883
    endloop
  endfacet
  facet normal -0 -0.481852 -0.876253
    outer loop
      vertex -18 20.4735 22.3219
      vertex -26 20.1709 22.4883
      vertex -26 20.4735 22.3219
    endloop
  endfacet
  facet normal 0 -0.95106 -0.309007
    outer loop
      vertex -26 21.6636 20.6839
      vertex -18 21.5569 21.0123
      vertex -26 21.5569 21.0123
    endloop
  endfacet
  facet normal 0 -0.95106 -0.309007
    outer loop
      vertex -18 21.5569 21.0123
      vertex -26 21.6636 20.6839
      vertex -18 21.6636 20.6839
    endloop
  endfacet
  facet normal 0 -0.770566 0.63736
    outer loop
      vertex -26 21.0047 18.1175
      vertex -18 21.2248 18.3836
      vertex -26 21.2248 18.3836
    endloop
  endfacet
  facet normal 0 -0.770566 0.63736
    outer loop
      vertex -18 21.2248 18.3836
      vertex -26 21.0047 18.1175
      vertex -18 21.0047 18.1175
    endloop
  endfacet
  facet normal 0 -0.368043 -0.929809
    outer loop
      vertex -26 19.8498 22.6154
      vertex -18 20.1709 22.4883
      vertex -18 19.8498 22.6154
    endloop
  endfacet
  facet normal -0 -0.368043 -0.929809
    outer loop
      vertex -18 20.1709 22.4883
      vertex -26 19.8498 22.6154
      vertex -26 20.1709 22.4883
    endloop
  endfacet
  facet normal 0 0.587793 -0.809011
    outer loop
      vertex -26 17.2471 22.1189
      vertex -18 17.5265 22.3219
      vertex -18 17.2471 22.1189
    endloop
  endfacet
  facet normal 0 0.587793 -0.809011
    outer loop
      vertex -18 17.5265 22.3219
      vertex -26 17.2471 22.1189
      vertex -26 17.5265 22.3219
    endloop
  endfacet
  facet normal 0 0.684461 -0.729049
    outer loop
      vertex -26 16.9953 21.8825
      vertex -18 17.2471 22.1189
      vertex -18 16.9953 21.8825
    endloop
  endfacet
  facet normal 0 0.684461 -0.729049
    outer loop
      vertex -18 17.2471 22.1189
      vertex -26 16.9953 21.8825
      vertex -26 17.2471 22.1189
    endloop
  endfacet
  facet normal 0.999878 -0.0156231 0
    outer loop
      vertex 7.63125 22.4 30.4
      vertex 7.25 -2 40
      vertex 7.25 -2 30.4
    endloop
  endfacet
  facet normal 0.999878 -0.0156231 0
    outer loop
      vertex 7.875 38 40
      vertex 7.63125 22.4 30.4
      vertex 7.875 38 36.7458
    endloop
  endfacet
  facet normal 0.999878 -0.0156231 -3.46902e-17
    outer loop
      vertex 7.63125 22.4 30.4
      vertex 7.875 38 40
      vertex 7.25 -2 40
    endloop
  endfacet
  facet normal 0.999878 -0.0156231 0
    outer loop
      vertex 7.63125 22.4 30.4
      vertex 7.875 38 3.25424
      vertex 7.875 38 36.7458
    endloop
  endfacet
  facet normal 0.999878 -0.0156231 0
    outer loop
      vertex 7.875 38 3.25424
      vertex 7.63125 22.4 30.4
      vertex 7.63125 22.4 9.6
    endloop
  endfacet
  facet normal 0.999878 -0.0156231 0
    outer loop
      vertex 7.63125 22.4 9.6
      vertex 7.875 38 0
      vertex 7.875 38 3.25424
    endloop
  endfacet
  facet normal 0.999878 -0.0156231 3.70029e-17
    outer loop
      vertex 7.875 38 0
      vertex 7.63125 22.4 9.6
      vertex 7.25 -2 0
    endloop
  endfacet
  facet normal 0.999878 -0.0156231 0
    outer loop
      vertex 7.63125 22.4 9.6
      vertex 7.25 -2 9.6
      vertex 7.25 -2 0
    endloop
  endfacet
  facet normal 0 0 -1
    outer loop
      vertex 4.4 22.4 30.4
      vertex 7.25 -2 30.4
      vertex 4.4 -2 30.4
    endloop
  endfacet
  facet normal 0 0 -1
    outer loop
      vertex 7.25 -2 30.4
      vertex 4.4 22.4 30.4
      vertex 7.63125 22.4 30.4
    endloop
  endfacet
  facet normal 0 -1 0
    outer loop
      vertex -26 -2 40
      vertex -0.4 -2 33.4
      vertex 7.25 -2 40
    endloop
  endfacet
  facet normal 0 -1 0
    outer loop
      vertex -26 -2 40
      vertex -0.4 -2 6.6
      vertex -0.4 -2 33.4
    endloop
  endfacet
  facet normal 0 -1 0
    outer loop
      vertex 7.25 -2 0
      vertex -0.4 -2 6.6
      vertex -26 -2 0
    endloop
  endfacet
  facet normal 0 -1 0
    outer loop
      vertex -26 -2 0
      vertex -0.4 -2 6.6
      vertex -26 -2 40
    endloop
  endfacet
  facet normal 0 -1 0
    outer loop
      vertex 4.4 -2 33.4
      vertex 7.25 -2 40
      vertex -0.4 -2 33.4
    endloop
  endfacet
  facet normal 0 -1 0
    outer loop
      vertex 7.25 -2 30.4
      vertex 4.4 -2 33.4
      vertex 4.4 -2 30.4
    endloop
  endfacet
  facet normal 0 -1 0
    outer loop
      vertex 4.4 -2 33.4
      vertex 7.25 -2 30.4
      vertex 7.25 -2 40
    endloop
  endfacet
  facet normal 0 -1 0
    outer loop
      vertex 4.4 -2 6.6
      vertex 7.25 -2 9.6
      vertex 4.4 -2 9.6
    endloop
  endfacet
  facet normal 0 -1 0
    outer loop
      vertex 4.4 -2 6.6
      vertex 7.25 -2 0
      vertex 7.25 -2 9.6
    endloop
  endfacet
  facet normal 0 -1 0
    outer loop
      vertex -0.4 -2 6.6
      vertex 7.25 -2 0
      vertex 4.4 -2 6.6
    endloop
  endfacet
  facet normal 1 -0 0
    outer loop
      vertex -0.4 -2 33.4
      vertex -0.4 6 6.6
      vertex -0.4 6 33.4
    endloop
  endfacet
  facet normal 1 0 0
    outer loop
      vertex -0.4 6 6.6
      vertex -0.4 -2 33.4
      vertex -0.4 -2 6.6
    endloop
  endfacet
  facet normal 0 0 1
    outer loop
      vertex 0 6 6.6
      vertex 4.4 22 6.6
      vertex 0 22 6.6
    endloop
  endfacet
  facet normal 0 0 1
    outer loop
      vertex 4.4 22 6.6
      vertex 0 6 6.6
      vertex 4.4 -2 6.6
    endloop
  endfacet
  facet normal 0 0 1
    outer loop
      vertex -0.4 -2 6.6
      vertex 0 6 6.6
      vertex -0.4 6 6.6
    endloop
  endfacet
  facet normal 0 0 1
    outer loop
      vertex 0 6 6.6
      vertex -0.4 -2 6.6
      vertex 4.4 -2 6.6
    endloop
  endfacet
  facet normal 0 -0.0227683 0.999741
    outer loop
      vertex 0 22.6099 6.61389
      vertex 4.4 22 6.6
      vertex 4.4 22.6099 6.61389
    endloop
  endfacet
  facet normal 0 -0.0227683 0.999741
    outer loop
      vertex 4.4 22 6.6
      vertex 0 22.6099 6.61389
      vertex 0 22 6.6
    endloop
  endfacet
  facet normal 0 -0.0682434 0.997669
    outer loop
      vertex 0 23.2185 6.65552
      vertex 4.4 22.6099 6.61389
      vertex 4.4 23.2185 6.65552
    endloop
  endfacet
  facet normal 0 -0.0682434 0.997669
    outer loop
      vertex 4.4 22.6099 6.61389
      vertex 0 23.2185 6.65552
      vertex 0 22.6099 6.61389
    endloop
  endfacet
  facet normal 0 -0.113581 0.993529
    outer loop
      vertex 0 23.8246 6.72481
      vertex 4.4 23.2185 6.65552
      vertex 4.4 23.8246 6.72481
    endloop
  endfacet
  facet normal 0 -0.113581 0.993529
    outer loop
      vertex 4.4 23.2185 6.65552
      vertex 0 23.8246 6.72481
      vertex 0 23.2185 6.65552
    endloop
  endfacet
  facet normal 0 -0.158655 0.987334
    outer loop
      vertex 0 24.427 6.82161
      vertex 4.4 23.8246 6.72481
      vertex 4.4 24.427 6.82161
    endloop
  endfacet
  facet normal 0 -0.158655 0.987334
    outer loop
      vertex 4.4 23.8246 6.72481
      vertex 0 24.427 6.82161
      vertex 0 23.8246 6.72481
    endloop
  endfacet
  facet normal 0 -0.203455 0.979084
    outer loop
      vertex 0 25.0243 6.94573
      vertex 4.4 24.427 6.82161
      vertex 4.4 25.0243 6.94573
    endloop
  endfacet
  facet normal 0 -0.203455 0.979084
    outer loop
      vertex 4.4 24.427 6.82161
      vertex 0 25.0243 6.94573
      vertex 0 24.427 6.82161
    endloop
  endfacet
  facet normal 0 -0.247824 0.968805
    outer loop
      vertex 0 25.6153 7.09691
      vertex 4.4 25.0243 6.94573
      vertex 4.4 25.6153 7.09691
    endloop
  endfacet
  facet normal 0 -0.247824 0.968805
    outer loop
      vertex 4.4 25.0243 6.94573
      vertex 0 25.6153 7.09691
      vertex 0 25.0243 6.94573
    endloop
  endfacet
  facet normal 0 -0.291661 0.956522
    outer loop
      vertex 0 26.1988 7.27483
      vertex 4.4 25.6153 7.09691
      vertex 4.4 26.1988 7.27483
    endloop
  endfacet
  facet normal 0 -0.291661 0.956522
    outer loop
      vertex 4.4 25.6153 7.09691
      vertex 0 26.1988 7.27483
      vertex 0 25.6153 7.09691
    endloop
  endfacet
  facet normal 0 -0.334888 0.942258
    outer loop
      vertex 0 26.7736 7.47912
      vertex 4.4 26.1988 7.27483
      vertex 4.4 26.7736 7.47912
    endloop
  endfacet
  facet normal 0 -0.334888 0.942258
    outer loop
      vertex 4.4 26.1988 7.27483
      vertex 0 26.7736 7.47912
      vertex 0 26.1988 7.27483
    endloop
  endfacet
  facet normal 0 -0.377388 0.926055
    outer loop
      vertex 0 27.3386 7.70937
      vertex 4.4 26.7736 7.47912
      vertex 4.4 27.3386 7.70937
    endloop
  endfacet
  facet normal 0 -0.377388 0.926055
    outer loop
      vertex 4.4 26.7736 7.47912
      vertex 0 27.3386 7.70937
      vertex 0 26.7736 7.47912
    endloop
  endfacet
  facet normal 0 -0.41922 0.907885
    outer loop
      vertex 0 27.8924 7.96509
      vertex 4.4 27.3386 7.70937
      vertex 4.4 27.8924 7.96509
    endloop
  endfacet
  facet normal 0 -0.41922 0.907885
    outer loop
      vertex 4.4 27.3386 7.70937
      vertex 0 27.8924 7.96509
      vertex 0 27.3386 7.70937
    endloop
  endfacet
  facet normal 0 -0.460031 0.887903
    outer loop
      vertex 0 28.4341 8.24575
      vertex 4.4 27.8924 7.96509
      vertex 4.4 28.4341 8.24575
    endloop
  endfacet
  facet normal 0 -0.460031 0.887903
    outer loop
      vertex 4.4 27.8924 7.96509
      vertex 0 28.4341 8.24575
      vertex 0 27.8924 7.96509
    endloop
  endfacet
  facet normal 0 -0.500019 0.866014
    outer loop
      vertex 0 28.9624 8.55078
      vertex 4.4 28.4341 8.24575
      vertex 4.4 28.9624 8.55078
    endloop
  endfacet
  facet normal 0 -0.500019 0.866014
    outer loop
      vertex 4.4 28.4341 8.24575
      vertex 0 28.9624 8.55078
      vertex 0 28.4341 8.24575
    endloop
  endfacet
  facet normal 0 -0.538896 0.842373
    outer loop
      vertex 0 29.4763 8.87954
      vertex 4.4 28.9624 8.55078
      vertex 4.4 29.4763 8.87954
    endloop
  endfacet
  facet normal 0 -0.538896 0.842373
    outer loop
      vertex 4.4 28.9624 8.55078
      vertex 0 29.4763 8.87954
      vertex 0 28.9624 8.55078
    endloop
  endfacet
  facet normal 0 -0.57667 0.816977
    outer loop
      vertex 0 29.9747 9.23134
      vertex 4.4 29.4763 8.87954
      vertex 4.4 29.9747 9.23134
    endloop
  endfacet
  facet normal 0 -0.57667 0.816977
    outer loop
      vertex 4.4 29.4763 8.87954
      vertex 0 29.9747 9.23134
      vertex 0 29.4763 8.87954
    endloop
  endfacet
  facet normal 0 -0.613245 0.789893
    outer loop
      vertex 0 30.4566 9.60547
      vertex 4.4 29.9747 9.23134
      vertex 4.4 30.4566 9.60547
    endloop
  endfacet
  facet normal 0 -0.613245 0.789893
    outer loop
      vertex 4.4 29.9747 9.23134
      vertex 0 30.4566 9.60547
      vertex 0 29.9747 9.23134
    endloop
  endfacet
  facet normal 0 -0.648576 0.76115
    outer loop
      vertex 0 30.9209 10.0011
      vertex 4.4 30.4566 9.60547
      vertex 4.4 30.9209 10.0011
    endloop
  endfacet
  facet normal 0 -0.648576 0.76115
    outer loop
      vertex 4.4 30.4566 9.60547
      vertex 0 30.9209 10.0011
      vertex 0 30.4566 9.60547
    endloop
  endfacet
  facet normal 0 -0.682517 0.73087
    outer loop
      vertex 0 31.3668 10.4175
      vertex 4.4 30.9209 10.0011
      vertex 4.4 31.3668 10.4175
    endloop
  endfacet
  facet normal 0 -0.682517 0.73087
    outer loop
      vertex 4.4 30.9209 10.0011
      vertex 0 31.3668 10.4175
      vertex 0 30.9209 10.0011
    endloop
  endfacet
  facet normal 0 -0.715174 0.698946
    outer loop
      vertex 0 31.3668 10.4175
      vertex 4.4 31.7932 10.8538
      vertex 0 31.7932 10.8538
    endloop
  endfacet
  facet normal 0 -0.715174 0.698946
    outer loop
      vertex 4.4 31.7932 10.8538
      vertex 0 31.3668 10.4175
      vertex 4.4 31.3668 10.4175
    endloop
  endfacet
  facet normal 0 -0.746205 0.665716
    outer loop
      vertex 0 31.7932 10.8538
      vertex 4.4 32.1993 11.309
      vertex 0 32.1993 11.309
    endloop
  endfacet
  facet normal 0 -0.746205 0.665716
    outer loop
      vertex 4.4 32.1993 11.309
      vertex 0 31.7932 10.8538
      vertex 4.4 31.7932 10.8538
    endloop
  endfacet
  facet normal 0 -0.775693 0.631111
    outer loop
      vertex 0 32.1993 11.309
      vertex 4.4 32.5843 11.7822
      vertex 0 32.5843 11.7822
    endloop
  endfacet
  facet normal 0 -0.775693 0.631111
    outer loop
      vertex 4.4 32.5843 11.7822
      vertex 0 32.1993 11.309
      vertex 4.4 32.1993 11.309
    endloop
  endfacet
  facet normal 0 -0.803624 0.595137
    outer loop
      vertex 0 32.5843 11.7822
      vertex 4.4 32.9474 12.2725
      vertex 0 32.9474 12.2725
    endloop
  endfacet
  facet normal 0 -0.803624 0.595137
    outer loop
      vertex 4.4 32.9474 12.2725
      vertex 0 32.5843 11.7822
      vertex 4.4 32.5843 11.7822
    endloop
  endfacet
  facet normal 0 -0.829875 0.557949
    outer loop
      vertex 0 32.9474 12.2725
      vertex 4.4 33.2878 12.7788
      vertex 0 33.2878 12.7788
    endloop
  endfacet
  facet normal 0 -0.829875 0.557949
    outer loop
      vertex 4.4 33.2878 12.7788
      vertex 0 32.9474 12.2725
      vertex 4.4 32.9474 12.2725
    endloop
  endfacet
  facet normal 0 -0.854455 0.519526
    outer loop
      vertex 0 33.2878 12.7788
      vertex 4.4 33.6047 13.3
      vertex 0 33.6047 13.3
    endloop
  endfacet
  facet normal 0 -0.854455 0.519526
    outer loop
      vertex 4.4 33.6047 13.3
      vertex 0 33.2878 12.7788
      vertex 4.4 33.2878 12.7788
    endloop
  endfacet
  facet normal 0 -0.877118 0.480276
    outer loop
      vertex 0 33.6047 13.3
      vertex 4.4 33.8977 13.8351
      vertex 0 33.8977 13.8351
    endloop
  endfacet
  facet normal 0 -0.877118 0.480276
    outer loop
      vertex 4.4 33.8977 13.8351
      vertex 0 33.6047 13.3
      vertex 4.4 33.6047 13.3
    endloop
  endfacet
  facet normal 0 -0.898166 0.439657
    outer loop
      vertex 0 33.8977 13.8351
      vertex 4.4 34.1659 14.383
      vertex 0 34.1659 14.383
    endloop
  endfacet
  facet normal 0 -0.898166 0.439657
    outer loop
      vertex 4.4 34.1659 14.383
      vertex 0 33.8977 13.8351
      vertex 4.4 33.8977 13.8351
    endloop
  endfacet
  facet normal 0 -0.917192 0.398444
    outer loop
      vertex 0 34.1659 14.383
      vertex 4.4 34.409 14.9426
      vertex 0 34.409 14.9426
    endloop
  endfacet
  facet normal 0 -0.917192 0.398444
    outer loop
      vertex 4.4 34.409 14.9426
      vertex 0 34.1659 14.383
      vertex 4.4 34.1659 14.383
    endloop
  endfacet
  facet normal 0 -0.934402 0.35622
    outer loop
      vertex 0 34.409 14.9426
      vertex 4.4 34.6263 15.5126
      vertex 0 34.6263 15.5126
    endloop
  endfacet
  facet normal 0 -0.934402 0.35622
    outer loop
      vertex 4.4 34.6263 15.5126
      vertex 0 34.409 14.9426
      vertex 4.4 34.409 14.9426
    endloop
  endfacet
  facet normal 0 -0.949614 0.313423
    outer loop
      vertex 0 34.6263 15.5126
      vertex 4.4 34.8175 16.0919
      vertex 0 34.8175 16.0919
    endloop
  endfacet
  facet normal 0 -0.949614 0.313423
    outer loop
      vertex 4.4 34.8175 16.0919
      vertex 0 34.6263 15.5126
      vertex 4.4 34.6263 15.5126
    endloop
  endfacet
  facet normal 0 -0.962964 0.26963
    outer loop
      vertex 0 34.8175 16.0919
      vertex 4.4 34.982 16.6794
      vertex 0 34.982 16.6794
    endloop
  endfacet
  facet normal 0 -0.962964 0.26963
    outer loop
      vertex 4.4 34.982 16.6794
      vertex 0 34.8175 16.0919
      vertex 4.4 34.8175 16.0919
    endloop
  endfacet
  facet normal 0 -0.974192 0.225721
    outer loop
      vertex 0 34.982 16.6794
      vertex 4.4 35.1197 17.2737
      vertex 0 35.1197 17.2737
    endloop
  endfacet
  facet normal 0 -0.974192 0.225721
    outer loop
      vertex 4.4 35.1197 17.2737
      vertex 0 34.982 16.6794
      vertex 4.4 34.982 16.6794
    endloop
  endfacet
  facet normal 0 -0.983461 0.181121
    outer loop
      vertex 0 35.1197 17.2737
      vertex 4.4 35.2302 17.8737
      vertex 0 35.2302 17.8737
    endloop
  endfacet
  facet normal 0 -0.983461 0.181121
    outer loop
      vertex 4.4 35.2302 17.8737
      vertex 0 35.1197 17.2737
      vertex 4.4 35.1197 17.2737
    endloop
  endfacet
  facet normal 0 -0.990677 0.136232
    outer loop
      vertex 0 35.2302 17.8737
      vertex 4.4 35.3133 18.478
      vertex 0 35.3133 18.478
    endloop
  endfacet
  facet normal 0 -0.990677 0.136232
    outer loop
      vertex 4.4 35.3133 18.478
      vertex 0 35.2302 17.8737
      vertex 4.4 35.2302 17.8737
    endloop
  endfacet
  facet normal 0 -0.995854 0.0909643
    outer loop
      vertex 0 35.3133 18.478
      vertex 4.4 35.3688 19.0856
      vertex 0 35.3688 19.0856
    endloop
  endfacet
  facet normal 0 -0.995854 0.0909643
    outer loop
      vertex 4.4 35.3688 19.0856
      vertex 0 35.3133 18.478
      vertex 4.4 35.3133 18.478
    endloop
  endfacet
  facet normal 0 -0.998969 0.0454077
    outer loop
      vertex 0 35.3688 19.0856
      vertex 4.4 35.3965 19.695
      vertex 0 35.3965 19.695
    endloop
  endfacet
  facet normal 0 -0.998969 0.0454077
    outer loop
      vertex 4.4 35.3965 19.695
      vertex 0 35.3688 19.0856
      vertex 4.4 35.3688 19.0856
    endloop
  endfacet
  facet normal 0 -1 0
    outer loop
      vertex 0 35.3965 19.695
      vertex 4.4 35.3965 20.305
      vertex 0 35.3965 20.305
    endloop
  endfacet
  facet normal 0 -1 -0
    outer loop
      vertex 4.4 35.3965 20.305
      vertex 0 35.3965 19.695
      vertex 4.4 35.3965 19.695
    endloop
  endfacet
  facet normal 0 -0.998969 -0.0454077
    outer loop
      vertex 0 35.3965 20.305
      vertex 4.4 35.3688 20.9144
      vertex 0 35.3688 20.9144
    endloop
  endfacet
  facet normal 0 -0.998969 -0.0454077
    outer loop
      vertex 4.4 35.3688 20.9144
      vertex 0 35.3965 20.305
      vertex 4.4 35.3965 20.305
    endloop
  endfacet
  facet normal 0 -0.995854 -0.0909643
    outer loop
      vertex 0 35.3688 20.9144
      vertex 4.4 35.3133 21.522
      vertex 0 35.3133 21.522
    endloop
  endfacet
  facet normal 0 -0.995854 -0.0909643
    outer loop
      vertex 4.4 35.3133 21.522
      vertex 0 35.3688 20.9144
      vertex 4.4 35.3688 20.9144
    endloop
  endfacet
  facet normal 0 -0.990677 -0.136232
    outer loop
      vertex 0 35.3133 21.522
      vertex 4.4 35.2302 22.1263
      vertex 0 35.2302 22.1263
    endloop
  endfacet
  facet normal 0 -0.990677 -0.136232
    outer loop
      vertex 4.4 35.2302 22.1263
      vertex 0 35.3133 21.522
      vertex 4.4 35.3133 21.522
    endloop
  endfacet
  facet normal 0 -0.983461 -0.181121
    outer loop
      vertex 0 35.2302 22.1263
      vertex 4.4 35.1197 22.7263
      vertex 0 35.1197 22.7263
    endloop
  endfacet
  facet normal 0 -0.983461 -0.181121
    outer loop
      vertex 4.4 35.1197 22.7263
      vertex 0 35.2302 22.1263
      vertex 4.4 35.2302 22.1263
    endloop
  endfacet
  facet normal 0 -0.974192 -0.225721
    outer loop
      vertex 0 35.1197 22.7263
      vertex 4.4 34.982 23.3206
      vertex 0 34.982 23.3206
    endloop
  endfacet
  facet normal 0 -0.974192 -0.225721
    outer loop
      vertex 4.4 34.982 23.3206
      vertex 0 35.1197 22.7263
      vertex 4.4 35.1197 22.7263
    endloop
  endfacet
  facet normal 0 -0.962964 -0.26963
    outer loop
      vertex 0 34.982 23.3206
      vertex 4.4 34.8175 23.9081
      vertex 0 34.8175 23.9081
    endloop
  endfacet
  facet normal 0 -0.962964 -0.26963
    outer loop
      vertex 4.4 34.8175 23.9081
      vertex 0 34.982 23.3206
      vertex 4.4 34.982 23.3206
    endloop
  endfacet
  facet normal 0 -0.949614 -0.313423
    outer loop
      vertex 0 34.8175 23.9081
      vertex 4.4 34.6263 24.4874
      vertex 0 34.6263 24.4874
    endloop
  endfacet
  facet normal 0 -0.949614 -0.313423
    outer loop
      vertex 4.4 34.6263 24.4874
      vertex 0 34.8175 23.9081
      vertex 4.4 34.8175 23.9081
    endloop
  endfacet
  facet normal 0 -0.934402 -0.35622
    outer loop
      vertex 0 34.6263 24.4874
      vertex 4.4 34.409 25.0574
      vertex 0 34.409 25.0574
    endloop
  endfacet
  facet normal 0 -0.934402 -0.35622
    outer loop
      vertex 4.4 34.409 25.0574
      vertex 0 34.6263 24.4874
      vertex 4.4 34.6263 24.4874
    endloop
  endfacet
  facet normal 0 -0.917192 -0.398444
    outer loop
      vertex 0 34.409 25.0574
      vertex 4.4 34.1659 25.617
      vertex 0 34.1659 25.617
    endloop
  endfacet
  facet normal 0 -0.917192 -0.398444
    outer loop
      vertex 4.4 34.1659 25.617
      vertex 0 34.409 25.0574
      vertex 4.4 34.409 25.0574
    endloop
  endfacet
  facet normal 0 -0.898166 -0.439657
    outer loop
      vertex 0 34.1659 25.617
      vertex 4.4 33.8977 26.1649
      vertex 0 33.8977 26.1649
    endloop
  endfacet
  facet normal 0 -0.898166 -0.439657
    outer loop
      vertex 4.4 33.8977 26.1649
      vertex 0 34.1659 25.617
      vertex 4.4 34.1659 25.617
    endloop
  endfacet
  facet normal 0 -0.877118 -0.480276
    outer loop
      vertex 0 33.8977 26.1649
      vertex 4.4 33.6047 26.7
      vertex 0 33.6047 26.7
    endloop
  endfacet
  facet normal 0 -0.877118 -0.480276
    outer loop
      vertex 4.4 33.6047 26.7
      vertex 0 33.8977 26.1649
      vertex 4.4 33.8977 26.1649
    endloop
  endfacet
  facet normal 0 -0.854455 -0.519526
    outer loop
      vertex 0 33.6047 26.7
      vertex 4.4 33.2878 27.2212
      vertex 0 33.2878 27.2212
    endloop
  endfacet
  facet normal 0 -0.854455 -0.519526
    outer loop
      vertex 4.4 33.2878 27.2212
      vertex 0 33.6047 26.7
      vertex 4.4 33.6047 26.7
    endloop
  endfacet
  facet normal 0 -0.829875 -0.557949
    outer loop
      vertex 0 33.2878 27.2212
      vertex 4.4 32.9474 27.7275
      vertex 0 32.9474 27.7275
    endloop
  endfacet
  facet normal 0 -0.829875 -0.557949
    outer loop
      vertex 4.4 32.9474 27.7275
      vertex 0 33.2878 27.2212
      vertex 4.4 33.2878 27.2212
    endloop
  endfacet
  facet normal 0 -0.803624 -0.595137
    outer loop
      vertex 0 32.9474 27.7275
      vertex 4.4 32.5843 28.2178
      vertex 0 32.5843 28.2178
    endloop
  endfacet
  facet normal 0 -0.803624 -0.595137
    outer loop
      vertex 4.4 32.5843 28.2178
      vertex 0 32.9474 27.7275
      vertex 4.4 32.9474 27.7275
    endloop
  endfacet
  facet normal 0 -0.775693 -0.631111
    outer loop
      vertex 0 32.5843 28.2178
      vertex 4.4 32.1993 28.691
      vertex 0 32.1993 28.691
    endloop
  endfacet
  facet normal 0 -0.775693 -0.631111
    outer loop
      vertex 4.4 32.1993 28.691
      vertex 0 32.5843 28.2178
      vertex 4.4 32.5843 28.2178
    endloop
  endfacet
  facet normal 0 -0.746205 -0.665716
    outer loop
      vertex 0 32.1993 28.691
      vertex 4.4 31.7932 29.1462
      vertex 0 31.7932 29.1462
    endloop
  endfacet
  facet normal 0 -0.746205 -0.665716
    outer loop
      vertex 4.4 31.7932 29.1462
      vertex 0 32.1993 28.691
      vertex 4.4 32.1993 28.691
    endloop
  endfacet
  facet normal 0 -0.715174 -0.698946
    outer loop
      vertex 0 31.7932 29.1462
      vertex 4.4 31.3668 29.5825
      vertex 0 31.3668 29.5825
    endloop
  endfacet
  facet normal 0 -0.715174 -0.698946
    outer loop
      vertex 4.4 31.3668 29.5825
      vertex 0 31.7932 29.1462
      vertex 4.4 31.7932 29.1462
    endloop
  endfacet
  facet normal 0 -0.682517 -0.73087
    outer loop
      vertex 0 30.9209 29.9989
      vertex 4.4 31.3668 29.5825
      vertex 4.4 30.9209 29.9989
    endloop
  endfacet
  facet normal -0 -0.682517 -0.73087
    outer loop
      vertex 4.4 31.3668 29.5825
      vertex 0 30.9209 29.9989
      vertex 0 31.3668 29.5825
    endloop
  endfacet
  facet normal 0 -0.648547 -0.761174
    outer loop
      vertex 0 30.4566 30.3945
      vertex 4.4 30.9209 29.9989
      vertex 4.4 30.4566 30.3945
    endloop
  endfacet
  facet normal -0 -0.648547 -0.761174
    outer loop
      vertex 4.4 30.9209 29.9989
      vertex 0 30.4566 30.3945
      vertex 0 30.9209 29.9989
    endloop
  endfacet
  facet normal 0 -0.613316 -0.789837
    outer loop
      vertex 0 29.9747 30.7687
      vertex 4.4 30.4566 30.3945
      vertex 4.4 29.9747 30.7687
    endloop
  endfacet
  facet normal -0 -0.613316 -0.789837
    outer loop
      vertex 4.4 30.4566 30.3945
      vertex 0 29.9747 30.7687
      vertex 0 30.4566 30.3945
    endloop
  endfacet
  facet normal 0 -0.57667 -0.816977
    outer loop
      vertex 0 29.4763 31.1205
      vertex 4.4 29.9747 30.7687
      vertex 4.4 29.4763 31.1205
    endloop
  endfacet
  facet normal -0 -0.57667 -0.816977
    outer loop
      vertex 4.4 29.9747 30.7687
      vertex 0 29.4763 31.1205
      vertex 0 29.9747 30.7687
    endloop
  endfacet
  facet normal 0 -0.538826 -0.842417
    outer loop
      vertex 0 28.9624 31.4492
      vertex 4.4 29.4763 31.1205
      vertex 4.4 28.9624 31.4492
    endloop
  endfacet
  facet normal -0 -0.538826 -0.842417
    outer loop
      vertex 4.4 29.4763 31.1205
      vertex 0 28.9624 31.4492
      vertex 0 29.4763 31.1205
    endloop
  endfacet
  facet normal 0 -0.499983 -0.866035
    outer loop
      vertex 0 28.4341 31.7542
      vertex 4.4 28.9624 31.4492
      vertex 4.4 28.4341 31.7542
    endloop
  endfacet
  facet normal -0 -0.499983 -0.866035
    outer loop
      vertex 4.4 28.9624 31.4492
      vertex 0 28.4341 31.7542
      vertex 0 28.9624 31.4492
    endloop
  endfacet
  facet normal 0 -0.460083 -0.887876
    outer loop
      vertex 0 27.8924 32.0349
      vertex 4.4 28.4341 31.7542
      vertex 4.4 27.8924 32.0349
    endloop
  endfacet
  facet normal -0 -0.460083 -0.887876
    outer loop
      vertex 4.4 28.4341 31.7542
      vertex 0 27.8924 32.0349
      vertex 0 28.4341 31.7542
    endloop
  endfacet
  facet normal 0 -0.419193 -0.907897
    outer loop
      vertex 0 27.3386 32.2906
      vertex 4.4 27.8924 32.0349
      vertex 4.4 27.3386 32.2906
    endloop
  endfacet
  facet normal -0 -0.419193 -0.907897
    outer loop
      vertex 4.4 27.8924 32.0349
      vertex 0 27.3386 32.2906
      vertex 0 27.8924 32.0349
    endloop
  endfacet
  facet normal 0 -0.377458 -0.926027
    outer loop
      vertex 0 26.7736 32.5209
      vertex 4.4 27.3386 32.2906
      vertex 4.4 26.7736 32.5209
    endloop
  endfacet
  facet normal -0 -0.377458 -0.926027
    outer loop
      vertex 4.4 27.3386 32.2906
      vertex 0 26.7736 32.5209
      vertex 0 27.3386 32.2906
    endloop
  endfacet
  facet normal 0 -0.334903 -0.942253
    outer loop
      vertex 0 26.1988 32.7252
      vertex 4.4 26.7736 32.5209
      vertex 4.4 26.1988 32.7252
    endloop
  endfacet
  facet normal -0 -0.334903 -0.942253
    outer loop
      vertex 4.4 26.7736 32.5209
      vertex 0 26.1988 32.7252
      vertex 0 26.7736 32.5209
    endloop
  endfacet
  facet normal 0 -0.291631 -0.956531
    outer loop
      vertex 0 25.6153 32.9031
      vertex 4.4 26.1988 32.7252
      vertex 4.4 25.6153 32.9031
    endloop
  endfacet
  facet normal -0 -0.291631 -0.956531
    outer loop
      vertex 4.4 26.1988 32.7252
      vertex 0 25.6153 32.9031
      vertex 0 26.1988 32.7252
    endloop
  endfacet
  facet normal 0 -0.247855 -0.968797
    outer loop
      vertex 0 25.0243 33.0543
      vertex 4.4 25.6153 32.9031
      vertex 4.4 25.0243 33.0543
    endloop
  endfacet
  facet normal -0 -0.247855 -0.968797
    outer loop
      vertex 4.4 25.6153 32.9031
      vertex 0 25.0243 33.0543
      vertex 0 25.6153 32.9031
    endloop
  endfacet
  facet normal 0 -0.203424 -0.979091
    outer loop
      vertex 0 24.427 33.1784
      vertex 4.4 25.0243 33.0543
      vertex 4.4 24.427 33.1784
    endloop
  endfacet
  facet normal -0 -0.203424 -0.979091
    outer loop
      vertex 4.4 25.0243 33.0543
      vertex 0 24.427 33.1784
      vertex 0 25.0243 33.0543
    endloop
  endfacet
  facet normal 0 -0.158655 -0.987334
    outer loop
      vertex 0 23.8246 33.2752
      vertex 4.4 24.427 33.1784
      vertex 4.4 23.8246 33.2752
    endloop
  endfacet
  facet normal -0 -0.158655 -0.987334
    outer loop
      vertex 4.4 24.427 33.1784
      vertex 0 23.8246 33.2752
      vertex 0 24.427 33.1784
    endloop
  endfacet
  facet normal 0 -0.113597 -0.993527
    outer loop
      vertex 0 23.2185 33.3445
      vertex 4.4 23.8246 33.2752
      vertex 4.4 23.2185 33.3445
    endloop
  endfacet
  facet normal -0 -0.113597 -0.993527
    outer loop
      vertex 4.4 23.8246 33.2752
      vertex 0 23.2185 33.3445
      vertex 0 23.8246 33.2752
    endloop
  endfacet
  facet normal 0 -0.0681945 -0.997672
    outer loop
      vertex 0 22.6099 33.3861
      vertex 4.4 23.2185 33.3445
      vertex 4.4 22.6099 33.3861
    endloop
  endfacet
  facet normal -0 -0.0681945 -0.997672
    outer loop
      vertex 4.4 23.2185 33.3445
      vertex 0 22.6099 33.3861
      vertex 0 23.2185 33.3445
    endloop
  endfacet
  facet normal 0 -0.0227847 -0.99974
    outer loop
      vertex 0 22 33.4
      vertex 4.4 22.6099 33.3861
      vertex 4.4 22 33.4
    endloop
  endfacet
  facet normal -0 -0.0227847 -0.99974
    outer loop
      vertex 4.4 22.6099 33.3861
      vertex 0 22 33.4
      vertex 0 22.6099 33.3861
    endloop
  endfacet
  facet normal 0 0 -1
    outer loop
      vertex 4.4 -2 33.4
      vertex 0 6 33.4
      vertex 4.4 22 33.4
    endloop
  endfacet
  facet normal 0 0 -1
    outer loop
      vertex -0.4 -2 33.4
      vertex 0 6 33.4
      vertex 4.4 -2 33.4
    endloop
  endfacet
  facet normal -0 0 -1
    outer loop
      vertex 0 6 33.4
      vertex -0.4 -2 33.4
      vertex -0.4 6 33.4
    endloop
  endfacet
  facet normal -0 0 -1
    outer loop
      vertex 4.4 22 33.4
      vertex 0 6 33.4
      vertex 0 22 33.4
    endloop
  endfacet
  facet normal -1 0 0
    outer loop
      vertex 4.4 22.4 9.6
      vertex 4.4 35.3965 19.695
      vertex 4.4 35.3688 19.0856
    endloop
  endfacet
  facet normal -1 -0 0
    outer loop
      vertex 4.4 35.3965 19.695
      vertex 4.4 22.4 9.6
      vertex 4.4 35.3965 20.305
    endloop
  endfacet
  facet normal -1 0 0
    outer loop
      vertex 4.4 22.4 9.6
      vertex 4.4 35.3688 19.0856
      vertex 4.4 35.3133 18.478
    endloop
  endfacet
  facet normal -1 0 0
    outer loop
      vertex 4.4 22.4 30.4
      vertex 4.4 35.3965 20.305
      vertex 4.4 22.4 9.6
    endloop
  endfacet
  facet normal -1 0 0
    outer loop
      vertex 4.4 22.4 9.6
      vertex 4.4 35.3133 18.478
      vertex 4.4 35.2302 17.8737
    endloop
  endfacet
  facet normal -1 0 0
    outer loop
      vertex 4.4 35.3965 20.305
      vertex 4.4 22.4 30.4
      vertex 4.4 35.3688 20.9144
    endloop
  endfacet
  facet normal -1 0 0
    outer loop
      vertex 4.4 22.4 9.6
      vertex 4.4 35.2302 17.8737
      vertex 4.4 35.1197 17.2737
    endloop
  endfacet
  facet normal -1 0 0
    outer loop
      vertex 4.4 35.3688 20.9144
      vertex 4.4 22.4 30.4
      vertex 4.4 35.3133 21.522
    endloop
  endfacet
  facet normal -1 0 0
    outer loop
      vertex 4.4 22.4 9.6
      vertex 4.4 35.1197 17.2737
      vertex 4.4 34.982 16.6794
    endloop
  endfacet
  facet normal -1 0 0
    outer loop
      vertex 4.4 35.3133 21.522
      vertex 4.4 22.4 30.4
      vertex 4.4 35.2302 22.1263
    endloop
  endfacet
  facet normal -1 0 0
    outer loop
      vertex 4.4 22.4 9.6
      vertex 4.4 34.982 16.6794
      vertex 4.4 34.8175 16.0919
    endloop
  endfacet
  facet normal -1 0 0
    outer loop
      vertex 4.4 35.2302 22.1263
      vertex 4.4 22.4 30.4
      vertex 4.4 35.1197 22.7263
    endloop
  endfacet
  facet normal -1 0 0
    outer loop
      vertex 4.4 22.4 9.6
      vertex 4.4 34.8175 16.0919
      vertex 4.4 34.6263 15.5126
    endloop
  endfacet
  facet normal -1 0 0
    outer loop
      vertex 4.4 35.1197 22.7263
      vertex 4.4 22.4 30.4
      vertex 4.4 34.982 23.3206
    endloop
  endfacet
  facet normal -1 0 0
    outer loop
      vertex 4.4 22.4 9.6
      vertex 4.4 34.6263 15.5126
      vertex 4.4 34.409 14.9426
    endloop
  endfacet
  facet normal -1 0 0
    outer loop
      vertex 4.4 34.982 23.3206
      vertex 4.4 22.4 30.4
      vertex 4.4 34.8175 23.9081
    endloop
  endfacet
  facet normal -1 0 0
    outer loop
      vertex 4.4 22.4 9.6
      vertex 4.4 34.409 14.9426
      vertex 4.4 34.1659 14.383
    endloop
  endfacet
  facet normal -1 0 0
    outer loop
      vertex 4.4 34.8175 23.9081
      vertex 4.4 22.4 30.4
      vertex 4.4 34.6263 24.4874
    endloop
  endfacet
  facet normal -1 0 0
    outer loop
      vertex 4.4 22.4 9.6
      vertex 4.4 34.1659 14.383
      vertex 4.4 33.8977 13.8351
    endloop
  endfacet
  facet normal -1 0 0
    outer loop
      vertex 4.4 34.6263 24.4874
      vertex 4.4 22.4 30.4
      vertex 4.4 34.409 25.0574
    endloop
  endfacet
  facet normal -1 0 0
    outer loop
      vertex 4.4 22.4 9.6
      vertex 4.4 33.8977 13.8351
      vertex 4.4 33.6047 13.3
    endloop
  endfacet
  facet normal -1 0 0
    outer loop
      vertex 4.4 34.409 25.0574
      vertex 4.4 22.4 30.4
      vertex 4.4 34.1659 25.617
    endloop
  endfacet
  facet normal -1 0 0
    outer loop
      vertex 4.4 22.4 9.6
      vertex 4.4 33.6047 13.3
      vertex 4.4 33.2878 12.7788
    endloop
  endfacet
  facet normal -1 0 0
    outer loop
      vertex 4.4 34.1659 25.617
      vertex 4.4 22.4 30.4
      vertex 4.4 33.8977 26.1649
    endloop
  endfacet
  facet normal -1 0 0
    outer loop
      vertex 4.4 22.4 9.6
      vertex 4.4 33.2878 12.7788
      vertex 4.4 32.9474 12.2725
    endloop
  endfacet
  facet normal -1 0 0
    outer loop
      vertex 4.4 33.8977 26.1649
      vertex 4.4 22.4 30.4
      vertex 4.4 33.6047 26.7
    endloop
  endfacet
  facet normal -1 0 0
    outer loop
      vertex 4.4 22.4 9.6
      vertex 4.4 32.9474 12.2725
      vertex 4.4 32.5843 11.7822
    endloop
  endfacet
  facet normal -1 0 0
    outer loop
      vertex 4.4 33.6047 26.7
      vertex 4.4 22.4 30.4
      vertex 4.4 33.2878 27.2212
    endloop
  endfacet
  facet normal -1 0 0
    outer loop
      vertex 4.4 22.4 9.6
      vertex 4.4 32.5843 11.7822
      vertex 4.4 32.1993 11.309
    endloop
  endfacet
  facet normal -1 0 0
    outer loop
      vertex 4.4 33.2878 27.2212
      vertex 4.4 22.4 30.4
      vertex 4.4 32.9474 27.7275
    endloop
  endfacet
  facet normal -1 0 0
    outer loop
      vertex 4.4 22.4 9.6
      vertex 4.4 32.1993 11.309
      vertex 4.4 31.7932 10.8538
    endloop
  endfacet
  facet normal -1 0 0
    outer loop
      vertex 4.4 32.9474 27.7275
      vertex 4.4 22.4 30.4
      vertex 4.4 32.5843 28.2178
    endloop
  endfacet
  facet normal -1 0 0
    outer loop
      vertex 4.4 22.4 9.6
      vertex 4.4 31.7932 10.8538
      vertex 4.4 31.3668 10.4175
    endloop
  endfacet
  facet normal -1 0 0
    outer loop
      vertex 4.4 32.5843 28.2178
      vertex 4.4 22.4 30.4
      vertex 4.4 32.1993 28.691
    endloop
  endfacet
  facet normal -1 0 0
    outer loop
      vertex 4.4 22.4 9.6
      vertex 4.4 31.3668 10.4175
      vertex 4.4 30.9209 10.0011
    endloop
  endfacet
  facet normal -1 0 0
    outer loop
      vertex 4.4 32.1993 28.691
      vertex 4.4 22.4 30.4
      vertex 4.4 31.7932 29.1462
    endloop
  endfacet
  facet normal -1 0 0
    outer loop
      vertex 4.4 22.4 9.6
      vertex 4.4 30.9209 10.0011
      vertex 4.4 30.4566 9.60547
    endloop
  endfacet
  facet normal -1 0 0
    outer loop
      vertex 4.4 31.7932 29.1462
      vertex 4.4 22.4 30.4
      vertex 4.4 31.3668 29.5825
    endloop
  endfacet
  facet normal -1 0 0
    outer loop
      vertex 4.4 22.4 9.6
      vertex 4.4 30.4566 9.60547
      vertex 4.4 29.9747 9.23134
    endloop
  endfacet
  facet normal -1 0 0
    outer loop
      vertex 4.4 31.3668 29.5825
      vertex 4.4 22.4 30.4
      vertex 4.4 30.9209 29.9989
    endloop
  endfacet
  facet normal -1 0 0
    outer loop
      vertex 4.4 22.4 9.6
      vertex 4.4 29.9747 9.23134
      vertex 4.4 29.4763 8.87954
    endloop
  endfacet
  facet normal -1 0 0
    outer loop
      vertex 4.4 30.9209 29.9989
      vertex 4.4 22.4 30.4
      vertex 4.4 30.4566 30.3945
    endloop
  endfacet
  facet normal -1 0 0
    outer loop
      vertex 4.4 22.4 9.6
      vertex 4.4 29.4763 8.87954
      vertex 4.4 28.9624 8.55078
    endloop
  endfacet
  facet normal -1 0 0
    outer loop
      vertex 4.4 30.4566 30.3945
      vertex 4.4 22.4 30.4
      vertex 4.4 29.9747 30.7687
    endloop
  endfacet
  facet normal -1 0 0
    outer loop
      vertex 4.4 22.4 9.6
      vertex 4.4 28.9624 8.55078
      vertex 4.4 28.4341 8.24575
    endloop
  endfacet
  facet normal -1 -0 0
    outer loop
      vertex 4.4 29.9747 30.7687
      vertex 4.4 22.4 30.4
      vertex 4.4 29.4763 31.1205
    endloop
  endfacet
  facet normal -1 0 0
    outer loop
      vertex 4.4 22.4 9.6
      vertex 4.4 28.4341 8.24575
      vertex 4.4 27.8924 7.96509
    endloop
  endfacet
  facet normal -1 -0 0
    outer loop
      vertex 4.4 29.4763 31.1205
      vertex 4.4 22.4 30.4
      vertex 4.4 28.9624 31.4492
    endloop
  endfacet
  facet normal -1 0 0
    outer loop
      vertex 4.4 22.4 9.6
      vertex 4.4 27.8924 7.96509
      vertex 4.4 27.3386 7.70937
    endloop
  endfacet
  facet normal -1 -0 0
    outer loop
      vertex 4.4 28.9624 31.4492
      vertex 4.4 22.4 30.4
      vertex 4.4 28.4341 31.7542
    endloop
  endfacet
  facet normal -1 0 0
    outer loop
      vertex 4.4 22.4 9.6
      vertex 4.4 27.3386 7.70937
      vertex 4.4 26.7736 7.47912
    endloop
  endfacet
  facet normal -1 -0 0
    outer loop
      vertex 4.4 28.4341 31.7542
      vertex 4.4 22.4 30.4
      vertex 4.4 27.8924 32.0349
    endloop
  endfacet
  facet normal -1 0 0
    outer loop
      vertex 4.4 22.4 9.6
      vertex 4.4 26.7736 7.47912
      vertex 4.4 26.1988 7.27483
    endloop
  endfacet
  facet normal -1 -0 0
    outer loop
      vertex 4.4 27.8924 32.0349
      vertex 4.4 22.4 30.4
      vertex 4.4 27.3386 32.2906
    endloop
  endfacet
  facet normal -1 0 0
    outer loop
      vertex 4.4 22.4 9.6
      vertex 4.4 26.1988 7.27483
      vertex 4.4 25.6153 7.09691
    endloop
  endfacet
  facet normal -1 -0 0
    outer loop
      vertex 4.4 27.3386 32.2906
      vertex 4.4 22.4 30.4
      vertex 4.4 26.7736 32.5209
    endloop
  endfacet
  facet normal -1 0 0
    outer loop
      vertex 4.4 22.4 9.6
      vertex 4.4 25.6153 7.09691
      vertex 4.4 25.0243 6.94573
    endloop
  endfacet
  facet normal -1 -0 0
    outer loop
      vertex 4.4 26.7736 32.5209
      vertex 4.4 22.4 30.4
      vertex 4.4 26.1988 32.7252
    endloop
  endfacet
  facet normal -1 0 0
    outer loop
      vertex 4.4 22.4 9.6
      vertex 4.4 25.0243 6.94573
      vertex 4.4 24.427 6.82161
    endloop
  endfacet
  facet normal -1 -0 0
    outer loop
      vertex 4.4 26.1988 32.7252
      vertex 4.4 22.4 30.4
      vertex 4.4 25.6153 32.9031
    endloop
  endfacet
  facet normal -1 0 0
    outer loop
      vertex 4.4 22.4 9.6
      vertex 4.4 24.427 6.82161
      vertex 4.4 23.8246 6.72481
    endloop
  endfacet
  facet normal -1 -0 0
    outer loop
      vertex 4.4 25.6153 32.9031
      vertex 4.4 22.4 30.4
      vertex 4.4 25.0243 33.0543
    endloop
  endfacet
  facet normal -1 0 0
    outer loop
      vertex 4.4 22.4 9.6
      vertex 4.4 23.8246 6.72481
      vertex 4.4 23.2185 6.65552
    endloop
  endfacet
  facet normal -1 -0 0
    outer loop
      vertex 4.4 25.0243 33.0543
      vertex 4.4 22.4 30.4
      vertex 4.4 24.427 33.1784
    endloop
  endfacet
  facet normal -1 0 0
    outer loop
      vertex 4.4 22.4 9.6
      vertex 4.4 23.2185 6.65552
      vertex 4.4 22.6099 6.61389
    endloop
  endfacet
  facet normal -1 -0 0
    outer loop
      vertex 4.4 24.427 33.1784
      vertex 4.4 22.4 30.4
      vertex 4.4 23.8246 33.2752
    endloop
  endfacet
  facet normal -1 -0 0
    outer loop
      vertex 4.4 23.8246 33.2752
      vertex 4.4 22.4 30.4
      vertex 4.4 23.2185 33.3445
    endloop
  endfacet
  facet normal -1 0 0
    outer loop
      vertex 4.4 22 6.6
      vertex 4.4 22.4 9.6
      vertex 4.4 22.6099 6.61389
    endloop
  endfacet
  facet normal -1 0 0
    outer loop
      vertex 4.4 -2 9.6
      vertex 4.4 22 6.6
      vertex 4.4 -2 6.6
    endloop
  endfacet
  facet normal -1 0 0
    outer loop
      vertex 4.4 22 6.6
      vertex 4.4 -2 9.6
      vertex 4.4 22.4 9.6
    endloop
  endfacet
  facet normal -1 -0 0
    outer loop
      vertex 4.4 23.2185 33.3445
      vertex 4.4 22.4 30.4
      vertex 4.4 22.6099 33.3861
    endloop
  endfacet
  facet normal -1 0 0
    outer loop
      vertex 4.4 22.4 30.4
      vertex 4.4 22 33.4
      vertex 4.4 22.6099 33.3861
    endloop
  endfacet
  facet normal -1 0 0
    outer loop
      vertex 4.4 -2 30.4
      vertex 4.4 22 33.4
      vertex 4.4 22.4 30.4
    endloop
  endfacet
  facet normal -1 -0 0
    outer loop
      vertex 4.4 22 33.4
      vertex 4.4 -2 30.4
      vertex 4.4 -2 33.4
    endloop
  endfacet
  facet normal -0 0 1
    outer loop
      vertex 4.4 22.4 9.6
      vertex 7.25 -2 9.6
      vertex 7.63125 22.4 9.6
    endloop
  endfacet
  facet normal 0 0 1
    outer loop
      vertex 7.25 -2 9.6
      vertex 4.4 22.4 9.6
      vertex 4.4 -2 9.6
    endloop
  endfacet
  facet normal 0 -1 0
    outer loop
      vertex 4.4 22.4 9.6
      vertex 7.63125 22.4 30.4
      vertex 4.4 22.4 30.4
    endloop
  endfacet
  facet normal 0 -1 -0
    outer loop
      vertex 7.63125 22.4 30.4
      vertex 4.4 22.4 9.6
      vertex 7.63125 22.4 9.6
    endloop
  endfacet
  facet normal 0 1 0
    outer loop
      vertex 0 6 6.6
      vertex 0 6 0
      vertex -0.4 6 6.6
    endloop
  endfacet
  facet normal 0 1 0
    outer loop
      vertex -0.4 6 33.4
      vertex 0 6 40
      vertex 0 6 33.4
    endloop
  endfacet
  facet normal 0 1 0
    outer loop
      vertex 0 6 40
      vertex -0.4 6 33.4
      vertex -18 6 40
    endloop
  endfacet
  facet normal 0 1 -0
    outer loop
      vertex -0.4 6 6.6
      vertex -18 6 40
      vertex -0.4 6 33.4
    endloop
  endfacet
  facet normal 0 1 0
    outer loop
      vertex -18 6 0
      vertex -0.4 6 6.6
      vertex 0 6 0
    endloop
  endfacet
  facet normal 0 1 0
    outer loop
      vertex -0.4 6 6.6
      vertex -18 6 0
      vertex -18 6 40
    endloop
  endfacet
  facet normal -1 0 0
    outer loop
      vertex 0 38 0
      vertex 0 35.3965 19.695
      vertex 0 38 40
    endloop
  endfacet
  facet normal -1 0 0
    outer loop
      vertex 0 38 0
      vertex 0 35.3688 19.0856
      vertex 0 35.3965 19.695
    endloop
  endfacet
  facet normal -1 0 0
    outer loop
      vertex 0 38 0
      vertex 0 35.3133 18.478
      vertex 0 35.3688 19.0856
    endloop
  endfacet
  facet normal -1 0 0
    outer loop
      vertex 0 38 0
      vertex 0 35.2302 17.8737
      vertex 0 35.3133 18.478
    endloop
  endfacet
  facet normal -1 0 0
    outer loop
      vertex 0 38 0
      vertex 0 35.1197 17.2737
      vertex 0 35.2302 17.8737
    endloop
  endfacet
  facet normal -1 0 0
    outer loop
      vertex 0 38 0
      vertex 0 34.982 16.6794
      vertex 0 35.1197 17.2737
    endloop
  endfacet
  facet normal -1 0 0
    outer loop
      vertex 0 38 0
      vertex 0 34.8175 16.0919
      vertex 0 34.982 16.6794
    endloop
  endfacet
  facet normal -1 0 0
    outer loop
      vertex 0 38 0
      vertex 0 34.6263 15.5126
      vertex 0 34.8175 16.0919
    endloop
  endfacet
  facet normal -1 0 0
    outer loop
      vertex 0 38 0
      vertex 0 34.409 14.9426
      vertex 0 34.6263 15.5126
    endloop
  endfacet
  facet normal -1 0 0
    outer loop
      vertex 0 38 0
      vertex 0 34.1659 14.383
      vertex 0 34.409 14.9426
    endloop
  endfacet
  facet normal -1 0 0
    outer loop
      vertex 0 38 0
      vertex 0 33.8977 13.8351
      vertex 0 34.1659 14.383
    endloop
  endfacet
  facet normal -1 0 0
    outer loop
      vertex 0 38 0
      vertex 0 33.6047 13.3
      vertex 0 33.8977 13.8351
    endloop
  endfacet
  facet normal -1 0 0
    outer loop
      vertex 0 38 0
      vertex 0 33.2878 12.7788
      vertex 0 33.6047 13.3
    endloop
  endfacet
  facet normal -1 0 0
    outer loop
      vertex 0 38 0
      vertex 0 32.9474 12.2725
      vertex 0 33.2878 12.7788
    endloop
  endfacet
  facet normal -1 0 0
    outer loop
      vertex 0 38 0
      vertex 0 32.5843 11.7822
      vertex 0 32.9474 12.2725
    endloop
  endfacet
  facet normal -1 0 0
    outer loop
      vertex 0 38 0
      vertex 0 32.1993 11.309
      vertex 0 32.5843 11.7822
    endloop
  endfacet
  facet normal -1 0 0
    outer loop
      vertex 0 38 0
      vertex 0 31.7932 10.8538
      vertex 0 32.1993 11.309
    endloop
  endfacet
  facet normal -1 0 0
    outer loop
      vertex 0 38 0
      vertex 0 31.3668 10.4175
      vertex 0 31.7932 10.8538
    endloop
  endfacet
  facet normal -1 0 0
    outer loop
      vertex 0 38 0
      vertex 0 30.9209 10.0011
      vertex 0 31.3668 10.4175
    endloop
  endfacet
  facet normal -1 0 0
    outer loop
      vertex 0 38 0
      vertex 0 30.4566 9.60547
      vertex 0 30.9209 10.0011
    endloop
  endfacet
  facet normal -1 0 0
    outer loop
      vertex 0 38 0
      vertex 0 29.9747 9.23134
      vertex 0 30.4566 9.60547
    endloop
  endfacet
  facet normal -1 0 0
    outer loop
      vertex 0 38 0
      vertex 0 29.4763 8.87954
      vertex 0 29.9747 9.23134
    endloop
  endfacet
  facet normal -1 0 0
    outer loop
      vertex 0 38 0
      vertex 0 28.9624 8.55078
      vertex 0 29.4763 8.87954
    endloop
  endfacet
  facet normal -1 0 0
    outer loop
      vertex 0 38 0
      vertex 0 28.4341 8.24575
      vertex 0 28.9624 8.55078
    endloop
  endfacet
  facet normal -1 0 0
    outer loop
      vertex 0 38 0
      vertex 0 27.8924 7.96509
      vertex 0 28.4341 8.24575
    endloop
  endfacet
  facet normal -1 0 0
    outer loop
      vertex 0 38 0
      vertex 0 27.3386 7.70937
      vertex 0 27.8924 7.96509
    endloop
  endfacet
  facet normal -1 0 0
    outer loop
      vertex 0 38 0
      vertex 0 26.7736 7.47912
      vertex 0 27.3386 7.70937
    endloop
  endfacet
  facet normal -1 0 0
    outer loop
      vertex 0 38 0
      vertex 0 26.1988 7.27483
      vertex 0 26.7736 7.47912
    endloop
  endfacet
  facet normal -1 0 0
    outer loop
      vertex 0 38 0
      vertex 0 25.6153 7.09691
      vertex 0 26.1988 7.27483
    endloop
  endfacet
  facet normal -1 0 0
    outer loop
      vertex 0 38 0
      vertex 0 25.0243 6.94573
      vertex 0 25.6153 7.09691
    endloop
  endfacet
  facet normal -1 0 0
    outer loop
      vertex 0 38 0
      vertex 0 24.427 6.82161
      vertex 0 25.0243 6.94573
    endloop
  endfacet
  facet normal -1 0 0
    outer loop
      vertex 0 38 0
      vertex 0 23.8246 6.72481
      vertex 0 24.427 6.82161
    endloop
  endfacet
  facet normal -1 0 0
    outer loop
      vertex 0 38 0
      vertex 0 23.2185 6.65552
      vertex 0 23.8246 6.72481
    endloop
  endfacet
  facet normal -1 0 0
    outer loop
      vertex 0 38 0
      vertex 0 22.6099 6.61389
      vertex 0 23.2185 6.65552
    endloop
  endfacet
  facet normal -1 0 0
    outer loop
      vertex 0 38 0
      vertex 0 22 6.6
      vertex 0 22.6099 6.61389
    endloop
  endfacet
  facet normal -1 0 0
    outer loop
      vertex 0 6 0
      vertex 0 22 6.6
      vertex 0 38 0
    endloop
  endfacet
  facet normal -1 -0 0
    outer loop
      vertex 0 22 6.6
      vertex 0 6 0
      vertex 0 6 6.6
    endloop
  endfacet
  facet normal -1 0 0
    outer loop
      vertex 0 35.3965 20.305
      vertex 0 38 40
      vertex 0 35.3965 19.695
    endloop
  endfacet
  facet normal -1 0 0
    outer loop
      vertex 0 35.3688 20.9144
      vertex 0 38 40
      vertex 0 35.3965 20.305
    endloop
  endfacet
  facet normal -1 0 0
    outer loop
      vertex 0 35.3133 21.522
      vertex 0 38 40
      vertex 0 35.3688 20.9144
    endloop
  endfacet
  facet normal -1 0 0
    outer loop
      vertex 0 35.2302 22.1263
      vertex 0 38 40
      vertex 0 35.3133 21.522
    endloop
  endfacet
  facet normal -1 0 0
    outer loop
      vertex 0 35.1197 22.7263
      vertex 0 38 40
      vertex 0 35.2302 22.1263
    endloop
  endfacet
  facet normal -1 0 0
    outer loop
      vertex 0 34.982 23.3206
      vertex 0 38 40
      vertex 0 35.1197 22.7263
    endloop
  endfacet
  facet normal -1 0 0
    outer loop
      vertex 0 34.8175 23.9081
      vertex 0 38 40
      vertex 0 34.982 23.3206
    endloop
  endfacet
  facet normal -1 0 0
    outer loop
      vertex 0 34.6263 24.4874
      vertex 0 38 40
      vertex 0 34.8175 23.9081
    endloop
  endfacet
  facet normal -1 0 0
    outer loop
      vertex 0 34.409 25.0574
      vertex 0 38 40
      vertex 0 34.6263 24.4874
    endloop
  endfacet
  facet normal -1 0 0
    outer loop
      vertex 0 34.1659 25.617
      vertex 0 38 40
      vertex 0 34.409 25.0574
    endloop
  endfacet
  facet normal -1 0 0
    outer loop
      vertex 0 33.8977 26.1649
      vertex 0 38 40
      vertex 0 34.1659 25.617
    endloop
  endfacet
  facet normal -1 0 0
    outer loop
      vertex 0 33.6047 26.7
      vertex 0 38 40
      vertex 0 33.8977 26.1649
    endloop
  endfacet
  facet normal -1 0 0
    outer loop
      vertex 0 33.2878 27.2212
      vertex 0 38 40
      vertex 0 33.6047 26.7
    endloop
  endfacet
  facet normal -1 0 0
    outer loop
      vertex 0 32.9474 27.7275
      vertex 0 38 40
      vertex 0 33.2878 27.2212
    endloop
  endfacet
  facet normal -1 0 0
    outer loop
      vertex 0 32.5843 28.2178
      vertex 0 38 40
      vertex 0 32.9474 27.7275
    endloop
  endfacet
  facet normal -1 0 0
    outer loop
      vertex 0 32.1993 28.691
      vertex 0 38 40
      vertex 0 32.5843 28.2178
    endloop
  endfacet
  facet normal -1 0 0
    outer loop
      vertex 0 31.7932 29.1462
      vertex 0 38 40
      vertex 0 32.1993 28.691
    endloop
  endfacet
  facet normal -1 0 0
    outer loop
      vertex 0 31.3668 29.5825
      vertex 0 38 40
      vertex 0 31.7932 29.1462
    endloop
  endfacet
  facet normal -1 0 0
    outer loop
      vertex 0 30.9209 29.9989
      vertex 0 38 40
      vertex 0 31.3668 29.5825
    endloop
  endfacet
  facet normal -1 0 0
    outer loop
      vertex 0 30.4566 30.3945
      vertex 0 38 40
      vertex 0 30.9209 29.9989
    endloop
  endfacet
  facet normal -1 0 0
    outer loop
      vertex 0 29.9747 30.7687
      vertex 0 38 40
      vertex 0 30.4566 30.3945
    endloop
  endfacet
  facet normal -1 0 0
    outer loop
      vertex 0 29.4763 31.1205
      vertex 0 38 40
      vertex 0 29.9747 30.7687
    endloop
  endfacet
  facet normal -1 0 0
    outer loop
      vertex 0 28.9624 31.4492
      vertex 0 38 40
      vertex 0 29.4763 31.1205
    endloop
  endfacet
  facet normal -1 0 0
    outer loop
      vertex 0 28.4341 31.7542
      vertex 0 38 40
      vertex 0 28.9624 31.4492
    endloop
  endfacet
  facet normal -1 0 0
    outer loop
      vertex 0 27.8924 32.0349
      vertex 0 38 40
      vertex 0 28.4341 31.7542
    endloop
  endfacet
  facet normal -1 0 0
    outer loop
      vertex 0 27.3386 32.2906
      vertex 0 38 40
      vertex 0 27.8924 32.0349
    endloop
  endfacet
  facet normal -1 0 0
    outer loop
      vertex 0 26.7736 32.5209
      vertex 0 38 40
      vertex 0 27.3386 32.2906
    endloop
  endfacet
  facet normal -1 0 0
    outer loop
      vertex 0 26.1988 32.7252
      vertex 0 38 40
      vertex 0 26.7736 32.5209
    endloop
  endfacet
  facet normal -1 0 0
    outer loop
      vertex 0 25.6153 32.9031
      vertex 0 38 40
      vertex 0 26.1988 32.7252
    endloop
  endfacet
  facet normal -1 0 0
    outer loop
      vertex 0 25.0243 33.0543
      vertex 0 38 40
      vertex 0 25.6153 32.9031
    endloop
  endfacet
  facet normal -1 0 0
    outer loop
      vertex 0 24.427 33.1784
      vertex 0 38 40
      vertex 0 25.0243 33.0543
    endloop
  endfacet
  facet normal -1 0 0
    outer loop
      vertex 0 23.8246 33.2752
      vertex 0 38 40
      vertex 0 24.427 33.1784
    endloop
  endfacet
  facet normal -1 0 0
    outer loop
      vertex 0 23.2185 33.3445
      vertex 0 38 40
      vertex 0 23.8246 33.2752
    endloop
  endfacet
  facet normal -1 0 0
    outer loop
      vertex 0 22.6099 33.3861
      vertex 0 38 40
      vertex 0 23.2185 33.3445
    endloop
  endfacet
  facet normal -1 0 0
    outer loop
      vertex 0 22 33.4
      vertex 0 38 40
      vertex 0 22.6099 33.3861
    endloop
  endfacet
  facet normal -1 0 0
    outer loop
      vertex 0 6 40
      vertex 0 22 33.4
      vertex 0 6 33.4
    endloop
  endfacet
  facet normal -1 0 0
    outer loop
      vertex 0 22 33.4
      vertex 0 6 40
      vertex 0 38 40
    endloop
  endfacet
  facet normal 0 1 -0
    outer loop
      vertex 7.875 38 36.7458
      vertex 0 38 40
      vertex 7.875 38 40
    endloop
  endfacet
  facet normal 0 1 -0
    outer loop
      vertex 7.875 38 3.25424
      vertex 0 38 40
      vertex 7.875 38 36.7458
    endloop
  endfacet
  facet normal 0 1 0
    outer loop
      vertex 0 38 0
      vertex 7.875 38 3.25424
      vertex 7.875 38 0
    endloop
  endfacet
  facet normal 0 1 0
    outer loop
      vertex 7.875 38 3.25424
      vertex 0 38 0
      vertex 0 38 40
    endloop
  endfacet
endsolid OpenSCAD_Model
